<?xml version="1.0" encoding="utf-8" standalone="no"?>
<!DOCTYPE svg PUBLIC "-//W3C//DTD SVG 1.1//EN"
  "http://www.w3.org/Graphics/SVG/1.1/DTD/svg11.dtd">
<svg xmlns:xlink="http://www.w3.org/1999/xlink" width="460.8pt" height="345.6pt" viewBox="0 0 460.8 345.6" xmlns="http://www.w3.org/2000/svg" version="1.1">
 <metadata>
  <rdf:RDF xmlns:dc="http://purl.org/dc/elements/1.1/" xmlns:cc="http://creativecommons.org/ns#" xmlns:rdf="http://www.w3.org/1999/02/22-rdf-syntax-ns#">
   <cc:Work>
    <dc:type rdf:resource="http://purl.org/dc/dcmitype/StillImage"/>
    <dc:date>2025-02-05T12:50:59.870493</dc:date>
    <dc:format>image/svg+xml</dc:format>
    <dc:creator>
     <cc:Agent>
      <dc:title>Matplotlib v3.9.1, https://matplotlib.org/</dc:title>
     </cc:Agent>
    </dc:creator>
   </cc:Work>
  </rdf:RDF>
 </metadata>
 <defs>
  <style type="text/css">*{stroke-linejoin: round; stroke-linecap: butt}</style>
 </defs>
 <g id="figure_1">
  <g id="patch_1">
   <path d="M 0 345.6 
L 460.8 345.6 
L 460.8 0 
L 0 0 
z
" style="fill: #ffffff"/>
  </g>
  <g id="axes_1">
   <g id="patch_2">
    <path d="M 10.8 320.72 
L 450 320.72 
L 450 10.8 
L 10.8 10.8 
z
" style="fill: #ffffff"/>
   </g>
   <g id="matplotlib.axis_1">
    <g id="text_1">
     <!-- Time -->
     <g transform="translate(218.166406 332.318437) scale(0.1 -0.1)">
      <defs>
       <path id="DejaVuSans-54" d="M -19 4666 
L 3928 4666 
L 3928 4134 
L 2272 4134 
L 2272 0 
L 1638 0 
L 1638 4134 
L -19 4134 
L -19 4666 
z
" transform="scale(0.015625)"/>
       <path id="DejaVuSans-69" d="M 603 3500 
L 1178 3500 
L 1178 0 
L 603 0 
L 603 3500 
z
M 603 4863 
L 1178 4863 
L 1178 4134 
L 603 4134 
L 603 4863 
z
" transform="scale(0.015625)"/>
       <path id="DejaVuSans-6d" d="M 3328 2828 
Q 3544 3216 3844 3400 
Q 4144 3584 4550 3584 
Q 5097 3584 5394 3201 
Q 5691 2819 5691 2113 
L 5691 0 
L 5113 0 
L 5113 2094 
Q 5113 2597 4934 2840 
Q 4756 3084 4391 3084 
Q 3944 3084 3684 2787 
Q 3425 2491 3425 1978 
L 3425 0 
L 2847 0 
L 2847 2094 
Q 2847 2600 2669 2842 
Q 2491 3084 2119 3084 
Q 1678 3084 1418 2786 
Q 1159 2488 1159 1978 
L 1159 0 
L 581 0 
L 581 3500 
L 1159 3500 
L 1159 2956 
Q 1356 3278 1631 3431 
Q 1906 3584 2284 3584 
Q 2666 3584 2933 3390 
Q 3200 3197 3328 2828 
z
" transform="scale(0.015625)"/>
       <path id="DejaVuSans-65" d="M 3597 1894 
L 3597 1613 
L 953 1613 
Q 991 1019 1311 708 
Q 1631 397 2203 397 
Q 2534 397 2845 478 
Q 3156 559 3463 722 
L 3463 178 
Q 3153 47 2828 -22 
Q 2503 -91 2169 -91 
Q 1331 -91 842 396 
Q 353 884 353 1716 
Q 353 2575 817 3079 
Q 1281 3584 2069 3584 
Q 2775 3584 3186 3129 
Q 3597 2675 3597 1894 
z
M 3022 2063 
Q 3016 2534 2758 2815 
Q 2500 3097 2075 3097 
Q 1594 3097 1305 2825 
Q 1016 2553 972 2059 
L 3022 2063 
z
" transform="scale(0.015625)"/>
      </defs>
      <use xlink:href="#DejaVuSans-54"/>
      <use xlink:href="#DejaVuSans-69" x="57.958984"/>
      <use xlink:href="#DejaVuSans-6d" x="85.742188"/>
      <use xlink:href="#DejaVuSans-65" x="183.154297"/>
     </g>
    </g>
   </g>
   <g id="matplotlib.axis_2"/>
   <g id="line2d_1">
    <path d="M 30.763636 300.184214 
L 49.088422 298.810185 
L 66.135663 297.312061 
L 81.945282 295.701894 
L 96.676972 293.980471 
L 110.490427 292.145031 
L 123.505417 290.193743 
L 135.801787 288.12774 
L 147.459385 285.946053 
L 158.558057 283.644941 
L 169.137726 281.22663 
L 179.278239 278.682089 
L 188.979597 276.020353 
L 198.321644 273.227838 
L 207.304382 270.311916 
L 215.967734 267.267254 
L 224.351623 264.085889 
L 232.456049 260.773748 
L 240.320935 257.320098 
L 247.946282 253.730009 
L 255.372012 249.989054 
L 262.598126 246.100769 
L 269.664546 242.046118 
L 276.571274 237.826297 
L 283.318308 233.443331 
L 289.905649 228.900124 
L 296.373221 224.170455 
L 302.721022 219.253797 
L 308.949054 214.150507 
L 315.097239 208.826087 
L 321.165578 203.276538 
L 327.15407 197.498552 
L 333.102639 191.448633 
L 339.011284 185.121062 
L 344.91993 178.468629 
L 351.507271 170.702077 
L 355.02052 166.66219 
L 355.499599 166.384934 
L 356.218218 166.360171 
L 381.369885 166.359312 
L 430.036364 166.359312 
L 430.036364 166.359312 
" clip-path="url(#pbb30decb0b)" style="fill: none; stroke: #d3d3d3; stroke-width: 1.5; stroke-linecap: square"/>
   </g>
   <g id="line2d_2">
    <path d="M 30.763636 297.635168 
L 42.74062 296.05611 
L 53.879216 294.368462 
L 64.458885 292.54324 
L 74.399782 290.604008 
L 83.781753 288.548816 
L 92.684644 286.372286 
L 101.14838 284.075758 
L 109.212882 281.659316 
L 116.957999 279.107535 
L 124.383729 276.427727 
L 131.529996 273.613032 
L 138.3968 270.67102 
L 145.024065 267.592041 
L 151.451713 264.362438 
L 157.679745 260.986232 
L 163.748083 257.444683 
L 169.656729 253.739198 
L 175.405681 249.872648 
L 181.034864 245.819292 
L 186.544276 241.578017 
L 191.933919 237.148375 
L 197.243716 232.49539 
L 202.433742 227.651826 
L 207.543922 222.578725 
L 212.574255 217.272325 
L 217.564665 211.682101 
L 222.475229 205.84531 
L 227.345869 199.707247 
L 232.136663 193.310171 
L 236.887533 186.594674 
L 241.59848 179.548678 
L 246.269504 172.161019 
L 250.940528 164.352299 
L 255.571628 156.173204 
L 260.202729 147.540115 
L 264.873753 138.361239 
L 269.70447 128.367531 
L 274.016184 119.479179 
L 274.33557 119.220189 
L 275.014266 119.201966 
L 430.036364 119.201966 
L 430.036364 119.201966 
" clip-path="url(#pbb30decb0b)" style="fill: none; stroke: #d3d3d3; stroke-width: 1.5; stroke-linecap: square"/>
   </g>
   <g id="line2d_3">
    <path d="M 30.763636 295.086122 
L 39.426988 293.314134 
L 47.531414 291.433264 
L 55.276531 289.409247 
L 62.622414 287.260314 
L 69.569065 284.998462 
L 76.196329 282.609283 
L 82.544131 280.086852 
L 88.652393 277.421892 
L 94.521115 274.620855 
L 100.190221 271.670588 
L 105.699634 268.552621 
L 111.00943 265.293514 
L 116.199456 261.84682 
L 121.22979 258.239966 
L 126.140353 254.446346 
L 130.931147 250.465898 
L 135.642094 246.26265 
L 140.273194 241.83075 
L 144.824448 237.164752 
L 149.295856 232.259705 
L 153.687417 227.111217 
L 158.039054 221.663884 
L 162.310845 215.959425 
L 166.542713 209.936368 
L 170.734657 203.581399 
L 174.886679 196.88095 
L 178.998776 189.821278 
L 183.070951 182.388454 
L 187.143126 174.488637 
L 191.175377 166.177663 
L 195.207628 157.350685 
L 199.199956 148.072033 
L 203.192284 138.225154 
L 207.184612 127.777256 
L 211.17694 116.695763 
L 215.169269 104.950596 
L 219.20152 92.387422 
L 223.83262 77.183693 
L 225.389628 72.362416 
L 225.629168 72.069807 
L 226.148171 72.044619 
L 430.036364 72.044619 
L 430.036364 72.044619 
" clip-path="url(#pbb30decb0b)" style="fill: none; stroke: #d3d3d3; stroke-width: 1.5; stroke-linecap: square"/>
   </g>
   <g id="line2d_4">
    <path d="M 30.763636 292.537077 
L 37.430824 290.583419 
L 43.738702 288.505244 
L 49.767118 286.28616 
L 55.51607 283.934098 
L 61.025483 281.439872 
L 66.295356 278.810745 
L 71.365613 276.033648 
L 76.276176 273.09099 
L 81.027046 269.985647 
L 85.658147 266.691405 
L 90.169478 263.207308 
L 94.561038 259.532829 
L 98.832829 255.668939 
L 103.024774 251.577021 
L 107.136872 247.251513 
L 111.169123 242.687309 
L 115.161451 237.829758 
L 119.073933 232.718206 
L 122.946491 227.291558 
L 126.779126 221.535069 
L 130.571837 215.434043 
L 134.324626 208.973032 
L 138.037491 202.136754 
L 141.750356 194.828337 
L 145.423298 187.102198 
L 149.056316 178.941237 
L 152.689335 170.229498 
L 156.28243 161.035651 
L 159.875525 151.228999 
L 163.46862 140.769111 
L 167.061716 129.613064 
L 170.614888 117.852097 
L 174.16806 105.320313 
L 177.721232 91.970291 
L 181.274403 77.756385 
L 184.867499 62.453179 
L 188.540441 45.812667 
L 193.131618 24.91783 
L 193.451004 24.887273 
L 430.036364 24.887273 
L 430.036364 24.887273 
" clip-path="url(#pbb30decb0b)" style="fill: none; stroke: #d3d3d3; stroke-width: 1.5; stroke-linecap: square"/>
   </g>
   <g id="LineCollection_1">
    <path d="M 30.763636 300.345653 
L 30.763636 300.345653 
" clip-path="url(#pbb30decb0b)" style="fill: none; stroke: #000000; stroke-width: 1.5"/>
    <path d="M 34.755964 294.308109 
L 34.755964 294.308109 
" clip-path="url(#pbb30decb0b)" style="fill: none; stroke: #000000; stroke-width: 1.5"/>
    <path d="M 38.748292 295.711922 
L 38.748292 295.711922 
" clip-path="url(#pbb30decb0b)" style="fill: none; stroke: #000000; stroke-width: 1.5"/>
    <path d="M 42.74062 298.544328 
L 42.74062 298.544328 
" clip-path="url(#pbb30decb0b)" style="fill: none; stroke: #000000; stroke-width: 1.5"/>
    <path d="M 46.732949 297.286389 
L 46.732949 297.286389 
" clip-path="url(#pbb30decb0b)" style="fill: none; stroke: #000000; stroke-width: 1.5"/>
    <path d="M 50.725277 296.425338 
L 50.725277 296.425338 
" clip-path="url(#pbb30decb0b)" style="fill: none; stroke: #000000; stroke-width: 1.5"/>
    <path d="M 54.717605 294.555071 
L 54.717605 294.555071 
" clip-path="url(#pbb30decb0b)" style="fill: none; stroke: #000000; stroke-width: 1.5"/>
    <path d="M 58.709933 301.429567 
L 58.709933 301.429567 
" clip-path="url(#pbb30decb0b)" style="fill: none; stroke: #000000; stroke-width: 1.5"/>
    <path d="M 62.702261 298.192984 
L 62.702261 298.192984 
" clip-path="url(#pbb30decb0b)" style="fill: none; stroke: #000000; stroke-width: 1.5"/>
    <path d="M 66.694589 296.864088 
L 66.694589 296.864088 
" clip-path="url(#pbb30decb0b)" style="fill: none; stroke: #000000; stroke-width: 1.5"/>
    <path d="M 70.686917 296.14288 
L 70.686917 296.14288 
" clip-path="url(#pbb30decb0b)" style="fill: none; stroke: #000000; stroke-width: 1.5"/>
    <path d="M 74.679245 292.402344 
L 74.679245 292.402344 
" clip-path="url(#pbb30decb0b)" style="fill: none; stroke: #000000; stroke-width: 1.5"/>
    <path d="M 78.671573 303.169347 
L 78.671573 303.169347 
" clip-path="url(#pbb30decb0b)" style="fill: none; stroke: #000000; stroke-width: 1.5"/>
    <path d="M 82.663901 304.31253 
L 82.663901 304.31253 
" clip-path="url(#pbb30decb0b)" style="fill: none; stroke: #000000; stroke-width: 1.5"/>
    <path d="M 86.656229 298.065289 
L 86.656229 298.065289 
" clip-path="url(#pbb30decb0b)" style="fill: none; stroke: #000000; stroke-width: 1.5"/>
    <path d="M 90.648557 304.802992 
L 90.648557 304.802992 
" clip-path="url(#pbb30decb0b)" style="fill: none; stroke: #000000; stroke-width: 1.5"/>
    <path d="M 94.640885 306.632727 
L 94.640885 306.632727 
" clip-path="url(#pbb30decb0b)" style="fill: none; stroke: #000000; stroke-width: 1.5"/>
    <path d="M 98.633213 293.849806 
L 98.633213 293.849806 
" clip-path="url(#pbb30decb0b)" style="fill: none; stroke: #000000; stroke-width: 1.5"/>
    <path d="M 102.625541 280.837688 
L 102.625541 280.837688 
" clip-path="url(#pbb30decb0b)" style="fill: none; stroke: #000000; stroke-width: 1.5"/>
    <path d="M 106.617869 299.333076 
L 106.617869 299.333076 
" clip-path="url(#pbb30decb0b)" style="fill: none; stroke: #000000; stroke-width: 1.5"/>
    <path d="M 110.610197 296.780894 
L 110.610197 296.780894 
" clip-path="url(#pbb30decb0b)" style="fill: none; stroke: #000000; stroke-width: 1.5"/>
    <path d="M 114.602525 302.327023 
L 114.602525 302.327023 
" clip-path="url(#pbb30decb0b)" style="fill: none; stroke: #000000; stroke-width: 1.5"/>
    <path d="M 118.594853 285.816562 
L 118.594853 285.816562 
" clip-path="url(#pbb30decb0b)" style="fill: none; stroke: #000000; stroke-width: 1.5"/>
    <path d="M 122.587181 291.632952 
L 122.587181 291.632952 
" clip-path="url(#pbb30decb0b)" style="fill: none; stroke: #000000; stroke-width: 1.5"/>
    <path d="M 126.579509 302.099744 
L 126.579509 302.099744 
" clip-path="url(#pbb30decb0b)" style="fill: none; stroke: #000000; stroke-width: 1.5"/>
    <path d="M 130.571837 293.980762 
L 130.571837 293.980762 
" clip-path="url(#pbb30decb0b)" style="fill: none; stroke: #000000; stroke-width: 1.5"/>
    <path d="M 134.564165 303.314406 
L 134.564165 303.314406 
" clip-path="url(#pbb30decb0b)" style="fill: none; stroke: #000000; stroke-width: 1.5"/>
    <path d="M 138.556493 299.035617 
L 138.556493 299.035617 
" clip-path="url(#pbb30decb0b)" style="fill: none; stroke: #000000; stroke-width: 1.5"/>
    <path d="M 142.548821 285.966345 
L 142.548821 285.966345 
" clip-path="url(#pbb30decb0b)" style="fill: none; stroke: #000000; stroke-width: 1.5"/>
    <path d="M 146.54115 289.444107 
L 146.54115 289.444107 
" clip-path="url(#pbb30decb0b)" style="fill: none; stroke: #000000; stroke-width: 1.5"/>
    <path d="M 150.533478 288.934184 
L 150.533478 288.934184 
" clip-path="url(#pbb30decb0b)" style="fill: none; stroke: #000000; stroke-width: 1.5"/>
    <path d="M 154.525806 283.788944 
L 154.525806 283.788944 
" clip-path="url(#pbb30decb0b)" style="fill: none; stroke: #000000; stroke-width: 1.5"/>
    <path d="M 158.518134 274.904522 
L 158.518134 274.904522 
" clip-path="url(#pbb30decb0b)" style="fill: none; stroke: #000000; stroke-width: 1.5"/>
    <path d="M 162.510462 278.184286 
L 162.510462 278.184286 
" clip-path="url(#pbb30decb0b)" style="fill: none; stroke: #000000; stroke-width: 1.5"/>
    <path d="M 166.50279 296.178632 
L 166.50279 296.178632 
" clip-path="url(#pbb30decb0b)" style="fill: none; stroke: #000000; stroke-width: 1.5"/>
    <path d="M 170.495118 282.771698 
L 170.495118 282.771698 
" clip-path="url(#pbb30decb0b)" style="fill: none; stroke: #000000; stroke-width: 1.5"/>
    <path d="M 174.487446 281.453637 
L 174.487446 281.453637 
" clip-path="url(#pbb30decb0b)" style="fill: none; stroke: #000000; stroke-width: 1.5"/>
    <path d="M 178.479774 288.309801 
L 178.479774 288.309801 
" clip-path="url(#pbb30decb0b)" style="fill: none; stroke: #000000; stroke-width: 1.5"/>
    <path d="M 182.472102 278.494584 
L 182.472102 278.494584 
" clip-path="url(#pbb30decb0b)" style="fill: none; stroke: #000000; stroke-width: 1.5"/>
    <path d="M 186.46443 280.262144 
L 186.46443 280.262144 
" clip-path="url(#pbb30decb0b)" style="fill: none; stroke: #000000; stroke-width: 1.5"/>
    <path d="M 190.456758 281.882417 
L 190.456758 281.882417 
" clip-path="url(#pbb30decb0b)" style="fill: none; stroke: #000000; stroke-width: 1.5"/>
    <path d="M 194.449086 260.132878 
L 194.449086 260.132878 
" clip-path="url(#pbb30decb0b)" style="fill: none; stroke: #000000; stroke-width: 1.5"/>
    <path d="M 198.441414 276.861031 
L 198.441414 276.861031 
" clip-path="url(#pbb30decb0b)" style="fill: none; stroke: #000000; stroke-width: 1.5"/>
    <path d="M 202.433742 269.242037 
L 202.433742 269.242037 
" clip-path="url(#pbb30decb0b)" style="fill: none; stroke: #000000; stroke-width: 1.5"/>
    <path d="M 206.42607 264.136791 
L 206.42607 264.136791 
" clip-path="url(#pbb30decb0b)" style="fill: none; stroke: #000000; stroke-width: 1.5"/>
    <path d="M 210.418398 272.271248 
L 210.418398 272.271248 
" clip-path="url(#pbb30decb0b)" style="fill: none; stroke: #000000; stroke-width: 1.5"/>
    <path d="M 214.410726 258.948982 
L 214.410726 258.948982 
" clip-path="url(#pbb30decb0b)" style="fill: none; stroke: #000000; stroke-width: 1.5"/>
    <path d="M 218.403054 277.530862 
L 218.403054 277.530862 
" clip-path="url(#pbb30decb0b)" style="fill: none; stroke: #000000; stroke-width: 1.5"/>
    <path d="M 222.395382 270.115532 
L 222.395382 270.115532 
" clip-path="url(#pbb30decb0b)" style="fill: none; stroke: #000000; stroke-width: 1.5"/>
    <path d="M 226.38771 271.234883 
L 226.38771 271.234883 
" clip-path="url(#pbb30decb0b)" style="fill: none; stroke: #000000; stroke-width: 1.5"/>
    <path d="M 230.380038 248.603281 
L 230.380038 248.603281 
" clip-path="url(#pbb30decb0b)" style="fill: none; stroke: #000000; stroke-width: 1.5"/>
    <path d="M 234.372366 230.707806 
L 234.372366 230.707806 
" clip-path="url(#pbb30decb0b)" style="fill: none; stroke: #000000; stroke-width: 1.5"/>
    <path d="M 238.364694 259.348078 
L 238.364694 259.348078 
" clip-path="url(#pbb30decb0b)" style="fill: none; stroke: #000000; stroke-width: 1.5"/>
    <path d="M 242.357022 241.901733 
L 242.357022 241.901733 
" clip-path="url(#pbb30decb0b)" style="fill: none; stroke: #000000; stroke-width: 1.5"/>
    <path d="M 246.349351 243.033681 
L 246.349351 243.033681 
" clip-path="url(#pbb30decb0b)" style="fill: none; stroke: #000000; stroke-width: 1.5"/>
    <path d="M 250.341679 241.270404 
L 250.341679 241.270404 
" clip-path="url(#pbb30decb0b)" style="fill: none; stroke: #000000; stroke-width: 1.5"/>
    <path d="M 254.334007 246.931313 
L 254.334007 246.931313 
" clip-path="url(#pbb30decb0b)" style="fill: none; stroke: #000000; stroke-width: 1.5"/>
    <path d="M 258.326335 252.454067 
L 258.326335 252.454067 
" clip-path="url(#pbb30decb0b)" style="fill: none; stroke: #000000; stroke-width: 1.5"/>
    <path d="M 262.318663 227.451347 
L 262.318663 227.451347 
" clip-path="url(#pbb30decb0b)" style="fill: none; stroke: #000000; stroke-width: 1.5"/>
    <path d="M 266.310991 224.063418 
L 266.310991 224.063418 
" clip-path="url(#pbb30decb0b)" style="fill: none; stroke: #000000; stroke-width: 1.5"/>
    <path d="M 270.303319 224.874226 
L 270.303319 224.874226 
" clip-path="url(#pbb30decb0b)" style="fill: none; stroke: #000000; stroke-width: 1.5"/>
    <path d="M 274.295647 210.35009 
L 274.295647 210.35009 
" clip-path="url(#pbb30decb0b)" style="fill: none; stroke: #000000; stroke-width: 1.5"/>
    <path d="M 278.287975 205.137974 
L 278.287975 205.137974 
" clip-path="url(#pbb30decb0b)" style="fill: none; stroke: #000000; stroke-width: 1.5"/>
    <path d="M 282.280303 201.087601 
L 282.280303 201.087601 
" clip-path="url(#pbb30decb0b)" style="fill: none; stroke: #000000; stroke-width: 1.5"/>
    <path d="M 286.272631 209.869225 
L 286.272631 209.869225 
" clip-path="url(#pbb30decb0b)" style="fill: none; stroke: #000000; stroke-width: 1.5"/>
    <path d="M 290.264959 216.030891 
L 290.264959 216.030891 
" clip-path="url(#pbb30decb0b)" style="fill: none; stroke: #000000; stroke-width: 1.5"/>
    <path d="M 294.257287 215.961853 
L 294.257287 215.961853 
" clip-path="url(#pbb30decb0b)" style="fill: none; stroke: #000000; stroke-width: 1.5"/>
    <path d="M 298.249615 176.472555 
L 298.249615 176.472555 
" clip-path="url(#pbb30decb0b)" style="fill: none; stroke: #000000; stroke-width: 1.5"/>
    <path d="M 302.241943 172.859179 
L 302.241943 172.859179 
" clip-path="url(#pbb30decb0b)" style="fill: none; stroke: #000000; stroke-width: 1.5"/>
    <path d="M 306.234271 178.786507 
L 306.234271 178.786507 
" clip-path="url(#pbb30decb0b)" style="fill: none; stroke: #000000; stroke-width: 1.5"/>
    <path d="M 310.226599 171.58447 
L 310.226599 171.58447 
" clip-path="url(#pbb30decb0b)" style="fill: none; stroke: #000000; stroke-width: 1.5"/>
    <path d="M 314.218927 173.73063 
L 314.218927 173.73063 
" clip-path="url(#pbb30decb0b)" style="fill: none; stroke: #000000; stroke-width: 1.5"/>
    <path d="M 318.211255 153.044531 
L 318.211255 153.044531 
" clip-path="url(#pbb30decb0b)" style="fill: none; stroke: #000000; stroke-width: 1.5"/>
    <path d="M 322.203583 151.893436 
L 322.203583 151.893436 
" clip-path="url(#pbb30decb0b)" style="fill: none; stroke: #000000; stroke-width: 1.5"/>
    <path d="M 326.195911 133.240917 
L 326.195911 133.240917 
" clip-path="url(#pbb30decb0b)" style="fill: none; stroke: #000000; stroke-width: 1.5"/>
    <path d="M 330.188239 121.111792 
L 330.188239 121.111792 
" clip-path="url(#pbb30decb0b)" style="fill: none; stroke: #000000; stroke-width: 1.5"/>
    <path d="M 334.180567 111.67527 
L 334.180567 111.67527 
" clip-path="url(#pbb30decb0b)" style="fill: none; stroke: #000000; stroke-width: 1.5"/>
    <path d="M 338.172895 114.075417 
L 338.172895 114.075417 
" clip-path="url(#pbb30decb0b)" style="fill: none; stroke: #000000; stroke-width: 1.5"/>
    <path d="M 342.165223 103.740576 
L 342.165223 103.740576 
" clip-path="url(#pbb30decb0b)" style="fill: none; stroke: #000000; stroke-width: 1.5"/>
    <path d="M 346.157552 91.582022 
L 346.157552 91.582022 
" clip-path="url(#pbb30decb0b)" style="fill: none; stroke: #000000; stroke-width: 1.5"/>
    <path d="M 350.14988 90.949611 
L 350.14988 90.949611 
" clip-path="url(#pbb30decb0b)" style="fill: none; stroke: #000000; stroke-width: 1.5"/>
    <path d="M 354.142208 85.654888 
L 354.142208 85.654888 
" clip-path="url(#pbb30decb0b)" style="fill: none; stroke: #000000; stroke-width: 1.5"/>
    <path d="M 358.134536 92.461545 
L 358.134536 92.461545 
" clip-path="url(#pbb30decb0b)" style="fill: none; stroke: #000000; stroke-width: 1.5"/>
    <path d="M 362.126864 94.545726 
L 362.126864 94.545726 
" clip-path="url(#pbb30decb0b)" style="fill: none; stroke: #000000; stroke-width: 1.5"/>
    <path d="M 366.119192 84.191206 
L 366.119192 84.191206 
" clip-path="url(#pbb30decb0b)" style="fill: none; stroke: #000000; stroke-width: 1.5"/>
    <path d="M 370.11152 90.931583 
L 370.11152 90.931583 
" clip-path="url(#pbb30decb0b)" style="fill: none; stroke: #000000; stroke-width: 1.5"/>
    <path d="M 374.103848 81.687517 
L 374.103848 81.687517 
" clip-path="url(#pbb30decb0b)" style="fill: none; stroke: #000000; stroke-width: 1.5"/>
    <path d="M 378.096176 101.135652 
L 378.096176 101.135652 
" clip-path="url(#pbb30decb0b)" style="fill: none; stroke: #000000; stroke-width: 1.5"/>
    <path d="M 382.088504 67.289916 
L 382.088504 67.289916 
" clip-path="url(#pbb30decb0b)" style="fill: none; stroke: #000000; stroke-width: 1.5"/>
    <path d="M 386.080832 95.174177 
L 386.080832 95.174177 
" clip-path="url(#pbb30decb0b)" style="fill: none; stroke: #000000; stroke-width: 1.5"/>
    <path d="M 390.07316 89.100482 
L 390.07316 89.100482 
" clip-path="url(#pbb30decb0b)" style="fill: none; stroke: #000000; stroke-width: 1.5"/>
    <path d="M 394.065488 99.54143 
L 394.065488 99.54143 
" clip-path="url(#pbb30decb0b)" style="fill: none; stroke: #000000; stroke-width: 1.5"/>
    <path d="M 398.057816 92.082508 
L 398.057816 92.082508 
" clip-path="url(#pbb30decb0b)" style="fill: none; stroke: #000000; stroke-width: 1.5"/>
    <path d="M 402.050144 94.729268 
L 402.050144 94.729268 
" clip-path="url(#pbb30decb0b)" style="fill: none; stroke: #000000; stroke-width: 1.5"/>
    <path d="M 406.042472 89.123711 
L 406.042472 89.123711 
" clip-path="url(#pbb30decb0b)" style="fill: none; stroke: #000000; stroke-width: 1.5"/>
    <path d="M 410.0348 92.016022 
L 410.0348 92.016022 
" clip-path="url(#pbb30decb0b)" style="fill: none; stroke: #000000; stroke-width: 1.5"/>
    <path d="M 414.027128 100.255948 
L 414.027128 100.255948 
" clip-path="url(#pbb30decb0b)" style="fill: none; stroke: #000000; stroke-width: 1.5"/>
    <path d="M 418.019456 103.595395 
L 418.019456 103.595395 
" clip-path="url(#pbb30decb0b)" style="fill: none; stroke: #000000; stroke-width: 1.5"/>
    <path d="M 422.011784 88.278888 
L 422.011784 88.278888 
" clip-path="url(#pbb30decb0b)" style="fill: none; stroke: #000000; stroke-width: 1.5"/>
    <path d="M 426.004112 86.031257 
L 426.004112 86.031257 
" clip-path="url(#pbb30decb0b)" style="fill: none; stroke: #000000; stroke-width: 1.5"/>
    <path d="M 429.99644 92.608653 
L 429.99644 92.608653 
" clip-path="url(#pbb30decb0b)" style="fill: none; stroke: #000000; stroke-width: 1.5"/>
   </g>
   <g id="line2d_5">
    <path d="M 30.763636 303.328103 
L 48.09034 302.256789 
L 63.899959 301.05952 
L 78.232417 299.754072 
L 91.367176 298.337816 
L 103.543777 296.80406 
L 114.881988 295.154032 
L 125.461657 293.392503 
L 135.402554 291.514905 
L 144.784525 289.51946 
L 153.687417 287.400727 
L 162.151152 285.159653 
L 170.215655 282.796001 
L 177.920848 280.307844 
L 185.306655 277.691051 
L 192.412999 274.938748 
L 199.23988 272.058319 
L 205.867144 269.021086 
L 212.254869 265.849894 
L 218.442978 262.530992 
L 224.471393 259.045689 
L 230.340115 255.395388 
L 236.049144 251.582619 
L 241.638403 247.581546 
L 247.107893 243.390986 
L 252.457612 239.010521 
L 257.687562 234.440653 
L 262.837665 229.644363 
L 267.907922 224.616591 
L 272.898332 219.352756 
L 277.808895 213.848614 
L 282.639612 208.100456 
L 287.430406 202.053239 
L 292.181276 195.695047 
L 296.8523 189.072143 
L 301.483401 182.120833 
L 306.074578 174.8293 
L 310.665755 167.116699 
L 315.217009 159.032343 
L 319.72834 150.564076 
L 324.239671 141.619185 
L 328.751001 132.173874 
L 333.262332 122.206846 
L 337.813586 111.607275 
L 342.724149 99.590604 
L 345.758319 92.302657 
L 346.117628 91.895273 
L 346.636631 91.871797 
L 430.036364 91.871797 
L 430.036364 91.871797 
" clip-path="url(#pbb30decb0b)" style="fill: none; stroke: #0072b2; stroke-width: 1.5; stroke-linecap: square"/>
   </g>
   <g id="line2d_6">
    <defs>
     <path id="mf47837ba10" d="M 0 1.5 
C 0.397805 1.5 0.77937 1.341951 1.06066 1.06066 
C 1.341951 0.77937 1.5 0.397805 1.5 0 
C 1.5 -0.397805 1.341951 -0.77937 1.06066 -1.06066 
C 0.77937 -1.341951 0.397805 -1.5 0 -1.5 
C -0.397805 -1.5 -0.77937 -1.341951 -1.06066 -1.06066 
C -1.341951 -0.77937 -1.5 -0.397805 -1.5 0 
C -1.5 0.397805 -1.341951 0.77937 -1.06066 1.06066 
C -0.77937 1.341951 -0.397805 1.5 0 1.5 
z
" style="stroke: #000000"/>
    </defs>
    <g clip-path="url(#pbb30decb0b)">
     <use xlink:href="#mf47837ba10" x="30.763636" y="300.345653" style="stroke: #000000"/>
     <use xlink:href="#mf47837ba10" x="34.755964" y="294.308109" style="stroke: #000000"/>
     <use xlink:href="#mf47837ba10" x="38.748292" y="295.711922" style="stroke: #000000"/>
     <use xlink:href="#mf47837ba10" x="42.74062" y="298.544328" style="stroke: #000000"/>
     <use xlink:href="#mf47837ba10" x="46.732949" y="297.286389" style="stroke: #000000"/>
     <use xlink:href="#mf47837ba10" x="50.725277" y="296.425338" style="stroke: #000000"/>
     <use xlink:href="#mf47837ba10" x="54.717605" y="294.555071" style="stroke: #000000"/>
     <use xlink:href="#mf47837ba10" x="58.709933" y="301.429567" style="stroke: #000000"/>
     <use xlink:href="#mf47837ba10" x="62.702261" y="298.192984" style="stroke: #000000"/>
     <use xlink:href="#mf47837ba10" x="66.694589" y="296.864088" style="stroke: #000000"/>
     <use xlink:href="#mf47837ba10" x="70.686917" y="296.14288" style="stroke: #000000"/>
     <use xlink:href="#mf47837ba10" x="74.679245" y="292.402344" style="stroke: #000000"/>
     <use xlink:href="#mf47837ba10" x="78.671573" y="303.169347" style="stroke: #000000"/>
     <use xlink:href="#mf47837ba10" x="82.663901" y="304.31253" style="stroke: #000000"/>
     <use xlink:href="#mf47837ba10" x="86.656229" y="298.065289" style="stroke: #000000"/>
     <use xlink:href="#mf47837ba10" x="90.648557" y="304.802992" style="stroke: #000000"/>
     <use xlink:href="#mf47837ba10" x="94.640885" y="306.632727" style="stroke: #000000"/>
     <use xlink:href="#mf47837ba10" x="98.633213" y="293.849806" style="stroke: #000000"/>
     <use xlink:href="#mf47837ba10" x="102.625541" y="280.837688" style="stroke: #000000"/>
     <use xlink:href="#mf47837ba10" x="106.617869" y="299.333076" style="stroke: #000000"/>
     <use xlink:href="#mf47837ba10" x="110.610197" y="296.780894" style="stroke: #000000"/>
     <use xlink:href="#mf47837ba10" x="114.602525" y="302.327023" style="stroke: #000000"/>
     <use xlink:href="#mf47837ba10" x="118.594853" y="285.816562" style="stroke: #000000"/>
     <use xlink:href="#mf47837ba10" x="122.587181" y="291.632952" style="stroke: #000000"/>
     <use xlink:href="#mf47837ba10" x="126.579509" y="302.099744" style="stroke: #000000"/>
     <use xlink:href="#mf47837ba10" x="130.571837" y="293.980762" style="stroke: #000000"/>
     <use xlink:href="#mf47837ba10" x="134.564165" y="303.314406" style="stroke: #000000"/>
     <use xlink:href="#mf47837ba10" x="138.556493" y="299.035617" style="stroke: #000000"/>
     <use xlink:href="#mf47837ba10" x="142.548821" y="285.966345" style="stroke: #000000"/>
     <use xlink:href="#mf47837ba10" x="146.54115" y="289.444107" style="stroke: #000000"/>
     <use xlink:href="#mf47837ba10" x="150.533478" y="288.934184" style="stroke: #000000"/>
     <use xlink:href="#mf47837ba10" x="154.525806" y="283.788944" style="stroke: #000000"/>
     <use xlink:href="#mf47837ba10" x="158.518134" y="274.904522" style="stroke: #000000"/>
     <use xlink:href="#mf47837ba10" x="162.510462" y="278.184286" style="stroke: #000000"/>
     <use xlink:href="#mf47837ba10" x="166.50279" y="296.178632" style="stroke: #000000"/>
     <use xlink:href="#mf47837ba10" x="170.495118" y="282.771698" style="stroke: #000000"/>
     <use xlink:href="#mf47837ba10" x="174.487446" y="281.453637" style="stroke: #000000"/>
     <use xlink:href="#mf47837ba10" x="178.479774" y="288.309801" style="stroke: #000000"/>
     <use xlink:href="#mf47837ba10" x="182.472102" y="278.494584" style="stroke: #000000"/>
     <use xlink:href="#mf47837ba10" x="186.46443" y="280.262144" style="stroke: #000000"/>
     <use xlink:href="#mf47837ba10" x="190.456758" y="281.882417" style="stroke: #000000"/>
     <use xlink:href="#mf47837ba10" x="194.449086" y="260.132878" style="stroke: #000000"/>
     <use xlink:href="#mf47837ba10" x="198.441414" y="276.861031" style="stroke: #000000"/>
     <use xlink:href="#mf47837ba10" x="202.433742" y="269.242037" style="stroke: #000000"/>
     <use xlink:href="#mf47837ba10" x="206.42607" y="264.136791" style="stroke: #000000"/>
     <use xlink:href="#mf47837ba10" x="210.418398" y="272.271248" style="stroke: #000000"/>
     <use xlink:href="#mf47837ba10" x="214.410726" y="258.948982" style="stroke: #000000"/>
     <use xlink:href="#mf47837ba10" x="218.403054" y="277.530862" style="stroke: #000000"/>
     <use xlink:href="#mf47837ba10" x="222.395382" y="270.115532" style="stroke: #000000"/>
     <use xlink:href="#mf47837ba10" x="226.38771" y="271.234883" style="stroke: #000000"/>
     <use xlink:href="#mf47837ba10" x="230.380038" y="248.603281" style="stroke: #000000"/>
     <use xlink:href="#mf47837ba10" x="234.372366" y="230.707806" style="stroke: #000000"/>
     <use xlink:href="#mf47837ba10" x="238.364694" y="259.348078" style="stroke: #000000"/>
     <use xlink:href="#mf47837ba10" x="242.357022" y="241.901733" style="stroke: #000000"/>
     <use xlink:href="#mf47837ba10" x="246.349351" y="243.033681" style="stroke: #000000"/>
     <use xlink:href="#mf47837ba10" x="250.341679" y="241.270404" style="stroke: #000000"/>
     <use xlink:href="#mf47837ba10" x="254.334007" y="246.931313" style="stroke: #000000"/>
     <use xlink:href="#mf47837ba10" x="258.326335" y="252.454067" style="stroke: #000000"/>
     <use xlink:href="#mf47837ba10" x="262.318663" y="227.451347" style="stroke: #000000"/>
     <use xlink:href="#mf47837ba10" x="266.310991" y="224.063418" style="stroke: #000000"/>
     <use xlink:href="#mf47837ba10" x="270.303319" y="224.874226" style="stroke: #000000"/>
     <use xlink:href="#mf47837ba10" x="274.295647" y="210.35009" style="stroke: #000000"/>
     <use xlink:href="#mf47837ba10" x="278.287975" y="205.137974" style="stroke: #000000"/>
     <use xlink:href="#mf47837ba10" x="282.280303" y="201.087601" style="stroke: #000000"/>
     <use xlink:href="#mf47837ba10" x="286.272631" y="209.869225" style="stroke: #000000"/>
     <use xlink:href="#mf47837ba10" x="290.264959" y="216.030891" style="stroke: #000000"/>
     <use xlink:href="#mf47837ba10" x="294.257287" y="215.961853" style="stroke: #000000"/>
     <use xlink:href="#mf47837ba10" x="298.249615" y="176.472555" style="stroke: #000000"/>
     <use xlink:href="#mf47837ba10" x="302.241943" y="172.859179" style="stroke: #000000"/>
     <use xlink:href="#mf47837ba10" x="306.234271" y="178.786507" style="stroke: #000000"/>
     <use xlink:href="#mf47837ba10" x="310.226599" y="171.58447" style="stroke: #000000"/>
     <use xlink:href="#mf47837ba10" x="314.218927" y="173.73063" style="stroke: #000000"/>
     <use xlink:href="#mf47837ba10" x="318.211255" y="153.044531" style="stroke: #000000"/>
     <use xlink:href="#mf47837ba10" x="322.203583" y="151.893436" style="stroke: #000000"/>
     <use xlink:href="#mf47837ba10" x="326.195911" y="133.240917" style="stroke: #000000"/>
     <use xlink:href="#mf47837ba10" x="330.188239" y="121.111792" style="stroke: #000000"/>
     <use xlink:href="#mf47837ba10" x="334.180567" y="111.67527" style="stroke: #000000"/>
     <use xlink:href="#mf47837ba10" x="338.172895" y="114.075417" style="stroke: #000000"/>
     <use xlink:href="#mf47837ba10" x="342.165223" y="103.740576" style="stroke: #000000"/>
     <use xlink:href="#mf47837ba10" x="346.157552" y="91.582022" style="stroke: #000000"/>
     <use xlink:href="#mf47837ba10" x="350.14988" y="90.949611" style="stroke: #000000"/>
     <use xlink:href="#mf47837ba10" x="354.142208" y="85.654888" style="stroke: #000000"/>
     <use xlink:href="#mf47837ba10" x="358.134536" y="92.461545" style="stroke: #000000"/>
     <use xlink:href="#mf47837ba10" x="362.126864" y="94.545726" style="stroke: #000000"/>
     <use xlink:href="#mf47837ba10" x="366.119192" y="84.191206" style="stroke: #000000"/>
     <use xlink:href="#mf47837ba10" x="370.11152" y="90.931583" style="stroke: #000000"/>
     <use xlink:href="#mf47837ba10" x="374.103848" y="81.687517" style="stroke: #000000"/>
     <use xlink:href="#mf47837ba10" x="378.096176" y="101.135652" style="stroke: #000000"/>
     <use xlink:href="#mf47837ba10" x="382.088504" y="67.289916" style="stroke: #000000"/>
     <use xlink:href="#mf47837ba10" x="386.080832" y="95.174177" style="stroke: #000000"/>
     <use xlink:href="#mf47837ba10" x="390.07316" y="89.100482" style="stroke: #000000"/>
     <use xlink:href="#mf47837ba10" x="394.065488" y="99.54143" style="stroke: #000000"/>
     <use xlink:href="#mf47837ba10" x="398.057816" y="92.082508" style="stroke: #000000"/>
     <use xlink:href="#mf47837ba10" x="402.050144" y="94.729268" style="stroke: #000000"/>
     <use xlink:href="#mf47837ba10" x="406.042472" y="89.123711" style="stroke: #000000"/>
     <use xlink:href="#mf47837ba10" x="410.0348" y="92.016022" style="stroke: #000000"/>
     <use xlink:href="#mf47837ba10" x="414.027128" y="100.255948" style="stroke: #000000"/>
     <use xlink:href="#mf47837ba10" x="418.019456" y="103.595395" style="stroke: #000000"/>
     <use xlink:href="#mf47837ba10" x="422.011784" y="88.278888" style="stroke: #000000"/>
     <use xlink:href="#mf47837ba10" x="426.004112" y="86.031257" style="stroke: #000000"/>
     <use xlink:href="#mf47837ba10" x="429.99644" y="92.608653" style="stroke: #000000"/>
    </g>
   </g>
   <g id="patch_3">
    <path d="M 10.8 320.72 
L 10.8 10.8 
" style="fill: none; stroke: #000000; stroke-width: 0.8; stroke-linejoin: miter; stroke-linecap: square"/>
   </g>
   <g id="patch_4">
    <path d="M 450 320.72 
L 450 10.8 
" style="fill: none; stroke: #000000; stroke-width: 0.8; stroke-linejoin: miter; stroke-linecap: square"/>
   </g>
   <g id="patch_5">
    <path d="M 10.8 320.72 
L 450 320.72 
" style="fill: none; stroke: #000000; stroke-width: 0.8; stroke-linejoin: miter; stroke-linecap: square"/>
   </g>
   <g id="patch_6">
    <path d="M 10.8 10.8 
L 450 10.8 
" style="fill: none; stroke: #000000; stroke-width: 0.8; stroke-linejoin: miter; stroke-linecap: square"/>
   </g>
   <g id="text_2">
    <!-- $\theta_{estimate}$ -->
    <g style="fill: #0072b2" transform="translate(190.472727 113.467752) scale(0.25 -0.25)">
     <defs>
      <path id="DejaVuSans-Oblique-3b8" d="M 2913 2219 
L 925 2219 
Q 791 1284 928 888 
Q 1100 400 1566 400 
Q 2034 400 2391 891 
Q 2703 1322 2913 2219 
z
M 3009 2750 
Q 3094 3638 2984 3950 
Q 2813 4444 2353 4444 
Q 1875 4444 1525 3956 
Q 1250 3563 1034 2750 
L 3009 2750 
z
M 2444 4913 
Q 3194 4913 3494 4250 
Q 3794 3591 3566 2422 
Q 3341 1256 2781 594 
Q 2225 -72 1475 -72 
Q 722 -72 425 594 
Q 128 1256 353 2422 
Q 581 3591 1134 4250 
Q 1691 4913 2444 4913 
z
" transform="scale(0.015625)"/>
      <path id="DejaVuSans-Oblique-65" d="M 3078 2063 
Q 3088 2113 3092 2166 
Q 3097 2219 3097 2272 
Q 3097 2653 2873 2875 
Q 2650 3097 2266 3097 
Q 1838 3097 1509 2826 
Q 1181 2556 1013 2059 
L 3078 2063 
z
M 3578 1613 
L 903 1613 
Q 884 1494 878 1425 
Q 872 1356 872 1306 
Q 872 872 1139 634 
Q 1406 397 1894 397 
Q 2269 397 2603 481 
Q 2938 566 3225 728 
L 3116 159 
Q 2806 34 2476 -28 
Q 2147 -91 1806 -91 
Q 1078 -91 686 257 
Q 294 606 294 1247 
Q 294 1794 489 2264 
Q 684 2734 1063 3103 
Q 1306 3334 1642 3459 
Q 1978 3584 2356 3584 
Q 2950 3584 3301 3228 
Q 3653 2872 3653 2272 
Q 3653 2128 3634 1964 
Q 3616 1800 3578 1613 
z
" transform="scale(0.015625)"/>
      <path id="DejaVuSans-Oblique-73" d="M 3200 3397 
L 3091 2853 
Q 2863 2978 2609 3040 
Q 2356 3103 2088 3103 
Q 1634 3103 1373 2948 
Q 1113 2794 1113 2528 
Q 1113 2219 1719 2053 
Q 1766 2041 1788 2034 
L 1972 1978 
Q 2547 1819 2739 1644 
Q 2931 1469 2931 1166 
Q 2931 609 2489 259 
Q 2047 -91 1331 -91 
Q 1053 -91 747 -37 
Q 441 16 72 128 
L 184 722 
Q 500 559 806 475 
Q 1113 391 1394 391 
Q 1816 391 2080 572 
Q 2344 753 2344 1031 
Q 2344 1331 1650 1516 
L 1591 1531 
L 1394 1581 
Q 956 1697 753 1886 
Q 550 2075 550 2369 
Q 550 2928 970 3256 
Q 1391 3584 2113 3584 
Q 2397 3584 2667 3537 
Q 2938 3491 3200 3397 
z
" transform="scale(0.015625)"/>
      <path id="DejaVuSans-Oblique-74" d="M 2706 3500 
L 2619 3053 
L 1472 3053 
L 1100 1153 
Q 1081 1047 1072 975 
Q 1063 903 1063 863 
Q 1063 663 1183 572 
Q 1303 481 1569 481 
L 2150 481 
L 2053 0 
L 1503 0 
Q 991 0 739 200 
Q 488 400 488 806 
Q 488 878 497 964 
Q 506 1050 525 1153 
L 897 3053 
L 409 3053 
L 500 3500 
L 978 3500 
L 1172 4494 
L 1747 4494 
L 1556 3500 
L 2706 3500 
z
" transform="scale(0.015625)"/>
      <path id="DejaVuSans-Oblique-69" d="M 1172 4863 
L 1747 4863 
L 1606 4134 
L 1031 4134 
L 1172 4863 
z
M 909 3500 
L 1484 3500 
L 800 0 
L 225 0 
L 909 3500 
z
" transform="scale(0.015625)"/>
      <path id="DejaVuSans-Oblique-6d" d="M 5747 2113 
L 5338 0 
L 4763 0 
L 5166 2094 
Q 5191 2228 5203 2325 
Q 5216 2422 5216 2491 
Q 5216 2772 5059 2928 
Q 4903 3084 4622 3084 
Q 4203 3084 3875 2770 
Q 3547 2456 3450 1953 
L 3066 0 
L 2491 0 
L 2900 2094 
Q 2925 2209 2937 2307 
Q 2950 2406 2950 2484 
Q 2950 2769 2794 2926 
Q 2638 3084 2363 3084 
Q 1938 3084 1609 2770 
Q 1281 2456 1184 1953 
L 800 0 
L 225 0 
L 909 3500 
L 1484 3500 
L 1375 2956 
Q 1609 3263 1923 3423 
Q 2238 3584 2597 3584 
Q 2978 3584 3223 3384 
Q 3469 3184 3519 2828 
Q 3781 3197 4126 3390 
Q 4472 3584 4856 3584 
Q 5306 3584 5551 3325 
Q 5797 3066 5797 2591 
Q 5797 2488 5784 2364 
Q 5772 2241 5747 2113 
z
" transform="scale(0.015625)"/>
      <path id="DejaVuSans-Oblique-61" d="M 3438 1997 
L 3047 0 
L 2472 0 
L 2578 531 
Q 2325 219 2001 64 
Q 1678 -91 1281 -91 
Q 834 -91 548 182 
Q 263 456 263 884 
Q 263 1497 752 1853 
Q 1241 2209 2100 2209 
L 2900 2209 
L 2931 2363 
Q 2938 2388 2941 2417 
Q 2944 2447 2944 2509 
Q 2944 2788 2717 2942 
Q 2491 3097 2081 3097 
Q 1800 3097 1504 3025 
Q 1209 2953 897 2809 
L 997 3341 
Q 1322 3463 1633 3523 
Q 1944 3584 2234 3584 
Q 2853 3584 3176 3315 
Q 3500 3047 3500 2534 
Q 3500 2431 3484 2292 
Q 3469 2153 3438 1997 
z
M 2816 1759 
L 2241 1759 
Q 1534 1759 1195 1570 
Q 856 1381 856 984 
Q 856 709 1029 553 
Q 1203 397 1509 397 
Q 1978 397 2328 733 
Q 2678 1069 2791 1631 
L 2816 1759 
z
" transform="scale(0.015625)"/>
     </defs>
     <use xlink:href="#DejaVuSans-Oblique-3b8" transform="translate(0 0.234375)"/>
     <use xlink:href="#DejaVuSans-Oblique-65" transform="translate(61.181641 -16.171875) scale(0.7)"/>
     <use xlink:href="#DejaVuSans-Oblique-73" transform="translate(104.248047 -16.171875) scale(0.7)"/>
     <use xlink:href="#DejaVuSans-Oblique-74" transform="translate(140.717773 -16.171875) scale(0.7)"/>
     <use xlink:href="#DejaVuSans-Oblique-69" transform="translate(168.164062 -16.171875) scale(0.7)"/>
     <use xlink:href="#DejaVuSans-Oblique-6d" transform="translate(187.612305 -16.171875) scale(0.7)"/>
     <use xlink:href="#DejaVuSans-Oblique-61" transform="translate(255.800781 -16.171875) scale(0.7)"/>
     <use xlink:href="#DejaVuSans-Oblique-74" transform="translate(298.696289 -16.171875) scale(0.7)"/>
     <use xlink:href="#DejaVuSans-Oblique-65" transform="translate(326.142578 -16.171875) scale(0.7)"/>
    </g>
   </g>
  </g>
 </g>
 <defs>
  <clipPath id="pbb30decb0b">
   <rect x="10.8" y="10.8" width="439.2" height="309.92"/>
  </clipPath>
 </defs>
</svg>
