<?xml version="1.0" encoding="utf-8" standalone="no"?>
<!DOCTYPE svg PUBLIC "-//W3C//DTD SVG 1.1//EN"
  "http://www.w3.org/Graphics/SVG/1.1/DTD/svg11.dtd">
<svg xmlns:xlink="http://www.w3.org/1999/xlink" width="460.8pt" height="345.6pt" viewBox="0 0 460.8 345.6" xmlns="http://www.w3.org/2000/svg" version="1.1">
 <metadata>
  <rdf:RDF xmlns:dc="http://purl.org/dc/elements/1.1/" xmlns:cc="http://creativecommons.org/ns#" xmlns:rdf="http://www.w3.org/1999/02/22-rdf-syntax-ns#">
   <cc:Work>
    <dc:type rdf:resource="http://purl.org/dc/dcmitype/StillImage"/>
    <dc:date>2025-07-13T11:54:58.850650</dc:date>
    <dc:format>image/svg+xml</dc:format>
    <dc:creator>
     <cc:Agent>
      <dc:title>Matplotlib v3.9.1, https://matplotlib.org/</dc:title>
     </cc:Agent>
    </dc:creator>
   </cc:Work>
  </rdf:RDF>
 </metadata>
 <defs>
  <style type="text/css">*{stroke-linejoin: round; stroke-linecap: butt}</style>
 </defs>
 <g id="figure_1">
  <g id="patch_1">
   <path d="M 0 345.6 
L 460.8 345.6 
L 460.8 0 
L 0 0 
z
" style="fill: #ffffff"/>
  </g>
  <g id="axes_1">
   <g id="patch_2">
    <path d="M 10.8 291.92 
L 450 291.92 
L 450 10.8 
L 10.8 10.8 
z
" style="fill: #ffffff"/>
   </g>
   <g id="matplotlib.axis_1">
    <g id="text_1">
     <!-- Time -->
     <g transform="translate(181.465625 326.31375) scale(0.4 -0.4)">
      <defs>
       <path id="DejaVuSans-54" d="M -19 4666 
L 3928 4666 
L 3928 4134 
L 2272 4134 
L 2272 0 
L 1638 0 
L 1638 4134 
L -19 4134 
L -19 4666 
z
" transform="scale(0.015625)"/>
       <path id="DejaVuSans-69" d="M 603 3500 
L 1178 3500 
L 1178 0 
L 603 0 
L 603 3500 
z
M 603 4863 
L 1178 4863 
L 1178 4134 
L 603 4134 
L 603 4863 
z
" transform="scale(0.015625)"/>
       <path id="DejaVuSans-6d" d="M 3328 2828 
Q 3544 3216 3844 3400 
Q 4144 3584 4550 3584 
Q 5097 3584 5394 3201 
Q 5691 2819 5691 2113 
L 5691 0 
L 5113 0 
L 5113 2094 
Q 5113 2597 4934 2840 
Q 4756 3084 4391 3084 
Q 3944 3084 3684 2787 
Q 3425 2491 3425 1978 
L 3425 0 
L 2847 0 
L 2847 2094 
Q 2847 2600 2669 2842 
Q 2491 3084 2119 3084 
Q 1678 3084 1418 2786 
Q 1159 2488 1159 1978 
L 1159 0 
L 581 0 
L 581 3500 
L 1159 3500 
L 1159 2956 
Q 1356 3278 1631 3431 
Q 1906 3584 2284 3584 
Q 2666 3584 2933 3390 
Q 3200 3197 3328 2828 
z
" transform="scale(0.015625)"/>
       <path id="DejaVuSans-65" d="M 3597 1894 
L 3597 1613 
L 953 1613 
Q 991 1019 1311 708 
Q 1631 397 2203 397 
Q 2534 397 2845 478 
Q 3156 559 3463 722 
L 3463 178 
Q 3153 47 2828 -22 
Q 2503 -91 2169 -91 
Q 1331 -91 842 396 
Q 353 884 353 1716 
Q 353 2575 817 3079 
Q 1281 3584 2069 3584 
Q 2775 3584 3186 3129 
Q 3597 2675 3597 1894 
z
M 3022 2063 
Q 3016 2534 2758 2815 
Q 2500 3097 2075 3097 
Q 1594 3097 1305 2825 
Q 1016 2553 972 2059 
L 3022 2063 
z
" transform="scale(0.015625)"/>
      </defs>
      <use xlink:href="#DejaVuSans-54"/>
      <use xlink:href="#DejaVuSans-69" x="57.958984"/>
      <use xlink:href="#DejaVuSans-6d" x="85.742188"/>
      <use xlink:href="#DejaVuSans-65" x="183.154297"/>
     </g>
    </g>
   </g>
   <g id="matplotlib.axis_2"/>
   <g id="line2d_1">
    <path d="M 30.763636 269.572756 
L 50.126427 268.269165 
L 68.05198 266.842617 
L 84.580218 265.307174 
L 99.950681 263.658882 
L 114.323062 261.896868 
L 127.857054 260.015583 
L 140.592581 258.023093 
L 152.649411 255.914134 
L 164.107393 253.68613 
L 175.006448 251.34248 
L 185.426425 248.876205 
L 195.407245 246.28668 
L 204.988832 243.571968 
L 214.171187 240.74117 
L 223.034155 237.777726 
L 231.577737 234.688365 
L 239.841856 231.465344 
L 247.866435 228.097838 
L 255.651475 224.590119 
L 263.196975 220.947727 
L 270.542858 217.156221 
L 277.729049 213.196867 
L 284.715623 209.094512 
L 291.542504 204.82951 
L 298.249615 200.377076 
L 304.797033 195.764668 
L 311.224681 190.965851 
L 317.532559 185.98076 
L 323.760591 180.776165 
L 329.908776 175.348549 
L 335.977115 169.695854 
L 342.085377 163.700749 
L 348.313409 157.271173 
L 355.260059 150.101697 
L 355.699216 149.995423 
L 359.731467 149.99206 
L 430.036364 149.99206 
L 430.036364 149.99206 
" clip-path="url(#p5dc1e57bac)" style="fill: none; stroke: #d3d3d3; stroke-width: 4; stroke-linecap: square"/>
   </g>
   <g id="line2d_2">
    <path d="M 30.763636 267.295028 
L 43.419316 265.797861 
L 55.236607 264.178105 
L 66.295356 262.440348 
L 76.635486 260.593229 
L 86.416689 258.621686 
L 95.638967 256.538206 
L 104.422089 254.327456 
L 112.766054 251.999838 
L 120.75071 249.543069 
L 128.376057 246.966384 
L 135.721941 244.25073 
L 142.788361 241.402349 
L 149.615242 238.411226 
L 156.202583 235.283103 
L 162.590308 232.004096 
L 168.778417 228.578429 
L 174.806832 224.987433 
L 180.675554 221.232979 
L 186.424507 217.289619 
L 192.013766 213.185815 
L 197.483255 208.894774 
L 202.872898 204.381977 
L 208.142771 199.677916 
L 213.332798 194.745739 
L 218.442978 189.580378 
L 223.433388 184.221281 
L 228.383874 178.579573 
L 233.294438 172.643195 
L 238.125155 166.453576 
L 242.915948 159.952819 
L 247.666819 153.129195 
L 252.377766 145.97299 
L 257.088713 138.408292 
L 261.839583 130.350852 
L 266.590454 121.850152 
L 272.099866 111.495071 
L 274.016184 108.101808 
L 274.33557 107.870384 
L 275.094112 107.854101 
L 430.036364 107.854101 
L 430.036364 107.854101 
" clip-path="url(#p5dc1e57bac)" style="fill: none; stroke: #d3d3d3; stroke-width: 4; stroke-linecap: square"/>
   </g>
   <g id="line2d_3">
    <path d="M 30.763636 265.017301 
L 39.906068 263.34025 
L 48.409726 261.558462 
L 56.514152 259.635729 
L 64.179422 257.589569 
L 71.445459 255.420278 
L 78.352187 253.126904 
L 84.939528 250.706571 
L 91.247406 248.153649 
L 97.315745 245.458822 
L 103.144544 242.628762 
L 108.773726 239.650324 
L 114.243216 236.50509 
L 119.553012 233.194461 
L 124.703115 229.721315 
L 129.733448 226.059718 
L 134.644012 222.208598 
L 139.434806 218.167857 
L 144.105829 213.938419 
L 148.697007 209.482262 
L 153.208337 204.794307 
L 157.639821 199.869974 
L 162.031382 194.65632 
L 166.343097 189.192423 
L 170.614888 183.419504 
L 174.846755 177.324363 
L 179.0387 170.893586 
L 183.190721 164.113537 
L 187.302819 156.970428 
L 191.374993 149.45035 
L 195.447168 141.458638 
L 199.479419 133.052207 
L 203.511671 124.125776 
L 207.503999 114.745666 
L 211.496327 104.797257 
L 215.528578 94.14505 
L 219.600753 82.748267 
L 225.629168 65.738648 
L 226.228017 65.716141 
L 430.036364 65.716141 
L 430.036364 65.716141 
" clip-path="url(#p5dc1e57bac)" style="fill: none; stroke: #d3d3d3; stroke-width: 4; stroke-linecap: square"/>
   </g>
   <g id="line2d_4">
    <path d="M 30.763636 262.739573 
L 37.790134 260.89372 
L 44.377475 258.936741 
L 50.685353 256.832671 
L 56.673845 254.602073 
L 62.382874 252.23961 
L 67.852364 249.736147 
L 73.122237 247.078978 
L 78.192493 244.272388 
L 83.103057 241.299247 
L 87.853927 238.161158 
L 92.445105 234.862639 
L 96.916512 231.377423 
L 101.26815 227.70511 
L 105.539941 223.809287 
L 109.731885 219.683515 
L 113.843983 215.322295 
L 117.876234 210.720285 
L 121.828639 205.873369 
L 125.74112 200.723266 
L 129.613679 195.25593 
L 133.446314 189.456362 
L 137.239025 183.309722 
L 140.991814 176.800729 
L 144.704679 169.913954 
L 148.37762 162.633499 
L 152.050562 154.856093 
L 155.683581 146.641339 
L 159.316599 137.872708 
L 162.949618 128.513224 
L 166.542713 118.636926 
L 170.135808 108.104111 
L 173.728903 96.872764 
L 177.321999 84.898927 
L 180.915094 72.140699 
L 184.508189 58.551813 
L 188.181131 43.770083 
L 193.131618 23.605486 
L 193.451004 23.578182 
L 430.036364 23.578182 
L 430.036364 23.578182 
" clip-path="url(#p5dc1e57bac)" style="fill: none; stroke: #d3d3d3; stroke-width: 4; stroke-linecap: square"/>
   </g>
   <g id="LineCollection_1">
    <path d="M 30.763636 273.580114 
L 30.763636 265.85391 
" clip-path="url(#p5dc1e57bac)" style="fill: none; stroke: #000000; stroke-width: 1.5"/>
    <path d="M 34.755964 268.23915 
L 34.755964 260.405048 
" clip-path="url(#p5dc1e57bac)" style="fill: none; stroke: #000000; stroke-width: 1.5"/>
    <path d="M 38.748292 269.480998 
L 38.748292 261.671984 
" clip-path="url(#p5dc1e57bac)" style="fill: none; stroke: #000000; stroke-width: 1.5"/>
    <path d="M 42.74062 271.986616 
L 42.74062 264.22822 
" clip-path="url(#p5dc1e57bac)" style="fill: none; stroke: #000000; stroke-width: 1.5"/>
    <path d="M 46.732949 270.873812 
L 46.732949 263.092935 
" clip-path="url(#p5dc1e57bac)" style="fill: none; stroke: #000000; stroke-width: 1.5"/>
    <path d="M 50.725277 270.112104 
L 50.725277 262.315839 
" clip-path="url(#p5dc1e57bac)" style="fill: none; stroke: #000000; stroke-width: 1.5"/>
    <path d="M 54.717605 268.457619 
L 54.717605 260.62793 
" clip-path="url(#p5dc1e57bac)" style="fill: none; stroke: #000000; stroke-width: 1.5"/>
    <path d="M 58.709933 274.538972 
L 58.709933 266.832139 
" clip-path="url(#p5dc1e57bac)" style="fill: none; stroke: #000000; stroke-width: 1.5"/>
    <path d="M 62.702261 271.675808 
L 62.702261 263.911134 
" clip-path="url(#p5dc1e57bac)" style="fill: none; stroke: #000000; stroke-width: 1.5"/>
    <path d="M 66.694589 270.500233 
L 66.694589 262.71181 
" clip-path="url(#p5dc1e57bac)" style="fill: none; stroke: #000000; stroke-width: 1.5"/>
    <path d="M 70.686917 269.862235 
L 70.686917 262.060922 
" clip-path="url(#p5dc1e57bac)" style="fill: none; stroke: #000000; stroke-width: 1.5"/>
    <path d="M 74.679245 266.553261 
L 74.679245 258.685101 
" clip-path="url(#p5dc1e57bac)" style="fill: none; stroke: #000000; stroke-width: 1.5"/>
    <path d="M 78.671573 276.078024 
L 78.671573 268.402284 
" clip-path="url(#p5dc1e57bac)" style="fill: none; stroke: #000000; stroke-width: 1.5"/>
    <path d="M 82.663901 277.089313 
L 82.663901 269.434002 
" clip-path="url(#p5dc1e57bac)" style="fill: none; stroke: #000000; stroke-width: 1.5"/>
    <path d="M 86.656229 271.562846 
L 86.656229 263.79589 
" clip-path="url(#p5dc1e57bac)" style="fill: none; stroke: #000000; stroke-width: 1.5"/>
    <path d="M 90.648557 277.523188 
L 90.648557 269.876642 
" clip-path="url(#p5dc1e57bac)" style="fill: none; stroke: #000000; stroke-width: 1.5"/>
    <path d="M 94.640885 279.141818 
L 94.640885 271.527972 
" clip-path="url(#p5dc1e57bac)" style="fill: none; stroke: #000000; stroke-width: 1.5"/>
    <path d="M 98.633213 267.833723 
L 98.633213 259.991431 
" clip-path="url(#p5dc1e57bac)" style="fill: none; stroke: #000000; stroke-width: 1.5"/>
    <path d="M 102.625541 256.322875 
L 102.625541 248.24804 
" clip-path="url(#p5dc1e57bac)" style="fill: none; stroke: #000000; stroke-width: 1.5"/>
    <path d="M 106.617869 272.684362 
L 106.617869 264.940063 
" clip-path="url(#p5dc1e57bac)" style="fill: none; stroke: #000000; stroke-width: 1.5"/>
    <path d="M 110.610197 270.426638 
L 110.610197 262.636727 
" clip-path="url(#p5dc1e57bac)" style="fill: none; stroke: #000000; stroke-width: 1.5"/>
    <path d="M 114.602525 275.332883 
L 114.602525 267.642089 
" clip-path="url(#p5dc1e57bac)" style="fill: none; stroke: #000000; stroke-width: 1.5"/>
    <path d="M 118.594853 260.727312 
L 118.594853 252.741456 
" clip-path="url(#p5dc1e57bac)" style="fill: none; stroke: #000000; stroke-width: 1.5"/>
    <path d="M 122.587181 265.872638 
L 122.587181 257.990728 
" clip-path="url(#p5dc1e57bac)" style="fill: none; stroke: #000000; stroke-width: 1.5"/>
    <path d="M 126.579509 275.131826 
L 126.579509 267.436971 
" clip-path="url(#p5dc1e57bac)" style="fill: none; stroke: #000000; stroke-width: 1.5"/>
    <path d="M 130.571837 267.949571 
L 130.571837 260.109618 
" clip-path="url(#p5dc1e57bac)" style="fill: none; stroke: #000000; stroke-width: 1.5"/>
    <path d="M 134.564165 276.206348 
L 134.564165 268.533199 
" clip-path="url(#p5dc1e57bac)" style="fill: none; stroke: #000000; stroke-width: 1.5"/>
    <path d="M 138.556493 272.421223 
L 138.556493 264.671607 
" clip-path="url(#p5dc1e57bac)" style="fill: none; stroke: #000000; stroke-width: 1.5"/>
    <path d="M 142.548821 260.859814 
L 142.548821 252.876635 
" clip-path="url(#p5dc1e57bac)" style="fill: none; stroke: #000000; stroke-width: 1.5"/>
    <path d="M 146.54115 263.93633 
L 146.54115 256.015303 
" clip-path="url(#p5dc1e57bac)" style="fill: none; stroke: #000000; stroke-width: 1.5"/>
    <path d="M 150.533478 263.48524 
L 150.533478 255.555099 
" clip-path="url(#p5dc1e57bac)" style="fill: none; stroke: #000000; stroke-width: 1.5"/>
    <path d="M 154.525806 258.933631 
L 154.525806 250.911538 
" clip-path="url(#p5dc1e57bac)" style="fill: none; stroke: #000000; stroke-width: 1.5"/>
    <path d="M 158.518134 251.074246 
L 158.518134 242.893379 
" clip-path="url(#p5dc1e57bac)" style="fill: none; stroke: #000000; stroke-width: 1.5"/>
    <path d="M 162.510462 253.975608 
L 162.510462 245.853354 
" clip-path="url(#p5dc1e57bac)" style="fill: none; stroke: #000000; stroke-width: 1.5"/>
    <path d="M 166.50279 269.893861 
L 166.50279 262.093188 
" clip-path="url(#p5dc1e57bac)" style="fill: none; stroke: #000000; stroke-width: 1.5"/>
    <path d="M 170.495118 258.033749 
L 170.495118 249.993477 
" clip-path="url(#p5dc1e57bac)" style="fill: none; stroke: #000000; stroke-width: 1.5"/>
    <path d="M 174.487446 256.867759 
L 174.487446 248.803932 
" clip-path="url(#p5dc1e57bac)" style="fill: none; stroke: #000000; stroke-width: 1.5"/>
    <path d="M 178.479774 262.932895 
L 178.479774 254.991596 
" clip-path="url(#p5dc1e57bac)" style="fill: none; stroke: #000000; stroke-width: 1.5"/>
    <path d="M 182.472102 254.250106 
L 182.472102 246.133397 
" clip-path="url(#p5dc1e57bac)" style="fill: none; stroke: #000000; stroke-width: 1.5"/>
    <path d="M 186.46443 255.813734 
L 186.46443 247.728613 
" clip-path="url(#p5dc1e57bac)" style="fill: none; stroke: #000000; stroke-width: 1.5"/>
    <path d="M 190.456758 257.247069 
L 190.456758 249.190905 
" clip-path="url(#p5dc1e57bac)" style="fill: none; stroke: #000000; stroke-width: 1.5"/>
    <path d="M 194.449086 238.006877 
L 194.449086 229.562022 
" clip-path="url(#p5dc1e57bac)" style="fill: none; stroke: #000000; stroke-width: 1.5"/>
    <path d="M 198.441414 252.805023 
L 198.441414 244.659121 
" clip-path="url(#p5dc1e57bac)" style="fill: none; stroke: #000000; stroke-width: 1.5"/>
    <path d="M 202.433742 246.065069 
L 202.433742 237.783006 
" clip-path="url(#p5dc1e57bac)" style="fill: none; stroke: #000000; stroke-width: 1.5"/>
    <path d="M 206.42607 241.548839 
L 206.42607 233.175539 
" clip-path="url(#p5dc1e57bac)" style="fill: none; stroke: #000000; stroke-width: 1.5"/>
    <path d="M 210.418398 248.744785 
L 210.418398 240.516858 
" clip-path="url(#p5dc1e57bac)" style="fill: none; stroke: #000000; stroke-width: 1.5"/>
    <path d="M 214.410726 236.959572 
L 214.410726 228.49356 
" clip-path="url(#p5dc1e57bac)" style="fill: none; stroke: #000000; stroke-width: 1.5"/>
    <path d="M 218.403054 253.397573 
L 218.403054 245.263642 
" clip-path="url(#p5dc1e57bac)" style="fill: none; stroke: #000000; stroke-width: 1.5"/>
    <path d="M 222.395382 246.837785 
L 222.395382 238.571332 
" clip-path="url(#p5dc1e57bac)" style="fill: none; stroke: #000000; stroke-width: 1.5"/>
    <path d="M 226.38771 247.827991 
L 226.38771 239.581542 
" clip-path="url(#p5dc1e57bac)" style="fill: none; stroke: #000000; stroke-width: 1.5"/>
    <path d="M 230.380038 227.807505 
L 230.380038 219.156602 
" clip-path="url(#p5dc1e57bac)" style="fill: none; stroke: #000000; stroke-width: 1.5"/>
    <path d="M 234.372366 211.976715 
L 234.372366 203.005998 
" clip-path="url(#p5dc1e57bac)" style="fill: none; stroke: #000000; stroke-width: 1.5"/>
    <path d="M 238.364694 237.312623 
L 238.364694 228.853743 
" clip-path="url(#p5dc1e57bac)" style="fill: none; stroke: #000000; stroke-width: 1.5"/>
    <path d="M 242.357022 221.879146 
L 242.357022 213.108478 
" clip-path="url(#p5dc1e57bac)" style="fill: none; stroke: #000000; stroke-width: 1.5"/>
    <path d="M 246.349351 222.880496 
L 246.349351 214.130057 
" clip-path="url(#p5dc1e57bac)" style="fill: none; stroke: #000000; stroke-width: 1.5"/>
    <path d="M 250.341679 221.320656 
L 250.341679 212.538706 
" clip-path="url(#p5dc1e57bac)" style="fill: none; stroke: #000000; stroke-width: 1.5"/>
    <path d="M 254.334007 226.328439 
L 254.334007 217.647656 
" clip-path="url(#p5dc1e57bac)" style="fill: none; stroke: #000000; stroke-width: 1.5"/>
    <path d="M 258.326335 231.214007 
L 258.326335 222.631922 
" clip-path="url(#p5dc1e57bac)" style="fill: none; stroke: #000000; stroke-width: 1.5"/>
    <path d="M 262.318663 209.095969 
L 262.318663 200.067055 
" clip-path="url(#p5dc1e57bac)" style="fill: none; stroke: #000000; stroke-width: 1.5"/>
    <path d="M 266.310991 206.098921 
L 266.310991 197.009461 
" clip-path="url(#p5dc1e57bac)" style="fill: none; stroke: #000000; stroke-width: 1.5"/>
    <path d="M 270.303319 206.816182 
L 270.303319 197.741212 
" clip-path="url(#p5dc1e57bac)" style="fill: none; stroke: #000000; stroke-width: 1.5"/>
    <path d="M 274.295647 193.967765 
L 274.295647 184.633231 
" clip-path="url(#p5dc1e57bac)" style="fill: none; stroke: #000000; stroke-width: 1.5"/>
    <path d="M 278.287975 189.356996 
L 278.287975 179.929315 
" clip-path="url(#p5dc1e57bac)" style="fill: none; stroke: #000000; stroke-width: 1.5"/>
    <path d="M 282.280303 185.773934 
L 282.280303 176.273868 
" clip-path="url(#p5dc1e57bac)" style="fill: none; stroke: #000000; stroke-width: 1.5"/>
    <path d="M 286.272631 193.54238 
L 286.272631 184.199252 
" clip-path="url(#p5dc1e57bac)" style="fill: none; stroke: #000000; stroke-width: 1.5"/>
    <path d="M 290.264959 198.993145 
L 290.264959 189.760134 
" clip-path="url(#p5dc1e57bac)" style="fill: none; stroke: #000000; stroke-width: 1.5"/>
    <path d="M 294.257287 198.932072 
L 294.257287 189.697827 
" clip-path="url(#p5dc1e57bac)" style="fill: none; stroke: #000000; stroke-width: 1.5"/>
    <path d="M 298.249615 163.998841 
L 298.249615 154.058875 
" clip-path="url(#p5dc1e57bac)" style="fill: none; stroke: #000000; stroke-width: 1.5"/>
    <path d="M 302.241943 160.802358 
L 302.241943 150.797816 
" clip-path="url(#p5dc1e57bac)" style="fill: none; stroke: #000000; stroke-width: 1.5"/>
    <path d="M 306.234271 166.045822 
L 306.234271 156.147209 
" clip-path="url(#p5dc1e57bac)" style="fill: none; stroke: #000000; stroke-width: 1.5"/>
    <path d="M 310.226599 159.674718 
L 310.226599 149.647396 
" clip-path="url(#p5dc1e57bac)" style="fill: none; stroke: #000000; stroke-width: 1.5"/>
    <path d="M 314.218927 161.573265 
L 314.218927 151.584297 
" clip-path="url(#p5dc1e57bac)" style="fill: none; stroke: #000000; stroke-width: 1.5"/>
    <path d="M 318.211255 143.27382 
L 318.211255 132.915166 
" clip-path="url(#p5dc1e57bac)" style="fill: none; stroke: #000000; stroke-width: 1.5"/>
    <path d="M 322.203583 142.255533 
L 322.203583 131.876307 
" clip-path="url(#p5dc1e57bac)" style="fill: none; stroke: #000000; stroke-width: 1.5"/>
    <path d="M 326.195911 125.755043 
L 326.195911 115.042474 
" clip-path="url(#p5dc1e57bac)" style="fill: none; stroke: #000000; stroke-width: 1.5"/>
    <path d="M 330.188239 115.025312 
L 330.188239 104.095981 
" clip-path="url(#p5dc1e57bac)" style="fill: none; stroke: #000000; stroke-width: 1.5"/>
    <path d="M 334.180567 106.677527 
L 334.180567 95.579553 
" clip-path="url(#p5dc1e57bac)" style="fill: none; stroke: #000000; stroke-width: 1.5"/>
    <path d="M 338.172895 108.800757 
L 338.172895 97.745677 
" clip-path="url(#p5dc1e57bac)" style="fill: none; stroke: #000000; stroke-width: 1.5"/>
    <path d="M 342.165223 99.658296 
L 342.165223 88.41852 
" clip-path="url(#p5dc1e57bac)" style="fill: none; stroke: #000000; stroke-width: 1.5"/>
    <path d="M 346.157552 88.902532 
L 346.157552 77.445468 
" clip-path="url(#p5dc1e57bac)" style="fill: none; stroke: #000000; stroke-width: 1.5"/>
    <path d="M 350.14988 88.343085 
L 350.14988 76.874719 
" clip-path="url(#p5dc1e57bac)" style="fill: none; stroke: #000000; stroke-width: 1.5"/>
    <path d="M 354.142208 83.659239 
L 354.142208 72.09625 
" clip-path="url(#p5dc1e57bac)" style="fill: none; stroke: #000000; stroke-width: 1.5"/>
    <path d="M 358.134536 89.68058 
L 358.134536 78.239234 
" clip-path="url(#p5dc1e57bac)" style="fill: none; stroke: #000000; stroke-width: 1.5"/>
    <path d="M 362.126864 91.524299 
L 362.126864 80.1202 
" clip-path="url(#p5dc1e57bac)" style="fill: none; stroke: #000000; stroke-width: 1.5"/>
    <path d="M 366.119192 82.364429 
L 366.119192 70.775283 
" clip-path="url(#p5dc1e57bac)" style="fill: none; stroke: #000000; stroke-width: 1.5"/>
    <path d="M 370.11152 88.327137 
L 370.11152 76.858449 
" clip-path="url(#p5dc1e57bac)" style="fill: none; stroke: #000000; stroke-width: 1.5"/>
    <path d="M 374.103848 80.149603 
L 374.103848 68.515712 
" clip-path="url(#p5dc1e57bac)" style="fill: none; stroke: #000000; stroke-width: 1.5"/>
    <path d="M 378.096176 97.353914 
L 378.096176 86.067585 
" clip-path="url(#p5dc1e57bac)" style="fill: none; stroke: #000000; stroke-width: 1.5"/>
    <path d="M 382.088504 67.413121 
L 382.088504 55.521928 
" clip-path="url(#p5dc1e57bac)" style="fill: none; stroke: #000000; stroke-width: 1.5"/>
    <path d="M 386.080832 92.080243 
L 386.080832 80.687375 
" clip-path="url(#p5dc1e57bac)" style="fill: none; stroke: #000000; stroke-width: 1.5"/>
    <path d="M 390.07316 86.707299 
L 390.07316 75.205887 
" clip-path="url(#p5dc1e57bac)" style="fill: none; stroke: #000000; stroke-width: 1.5"/>
    <path d="M 394.065488 95.943625 
L 394.065488 84.628805 
" clip-path="url(#p5dc1e57bac)" style="fill: none; stroke: #000000; stroke-width: 1.5"/>
    <path d="M 398.057816 89.345275 
L 398.057816 77.897155 
" clip-path="url(#p5dc1e57bac)" style="fill: none; stroke: #000000; stroke-width: 1.5"/>
    <path d="M 402.050144 91.686665 
L 402.050144 80.285846 
" clip-path="url(#p5dc1e57bac)" style="fill: none; stroke: #000000; stroke-width: 1.5"/>
    <path d="M 406.042472 86.727848 
L 406.042472 75.226851 
" clip-path="url(#p5dc1e57bac)" style="fill: none; stroke: #000000; stroke-width: 1.5"/>
    <path d="M 410.0348 89.286459 
L 410.0348 77.837151 
" clip-path="url(#p5dc1e57bac)" style="fill: none; stroke: #000000; stroke-width: 1.5"/>
    <path d="M 414.027128 96.575706 
L 414.027128 85.273656 
" clip-path="url(#p5dc1e57bac)" style="fill: none; stroke: #000000; stroke-width: 1.5"/>
    <path d="M 418.019456 99.529865 
L 418.019456 88.287495 
" clip-path="url(#p5dc1e57bac)" style="fill: none; stroke: #000000; stroke-width: 1.5"/>
    <path d="M 422.011784 85.980496 
L 422.011784 74.464401 
" clip-path="url(#p5dc1e57bac)" style="fill: none; stroke: #000000; stroke-width: 1.5"/>
    <path d="M 426.004112 83.992185 
L 426.004112 72.435923 
" clip-path="url(#p5dc1e57bac)" style="fill: none; stroke: #000000; stroke-width: 1.5"/>
    <path d="M 429.99644 89.810715 
L 429.99644 78.371999 
" clip-path="url(#p5dc1e57bac)" style="fill: none; stroke: #000000; stroke-width: 1.5"/>
   </g>
   <g id="line2d_5">
    <path d="M 30.763636 272.506429 
L 49.168269 271.504142 
L 65.816277 270.378586 
L 80.82743 269.144301 
L 94.561038 267.794827 
L 107.176795 266.335373 
L 118.914239 264.756369 
L 129.853218 263.062689 
L 140.113501 261.250957 
L 149.774935 259.320686 
L 158.877443 257.277713 
L 167.540795 255.106864 
L 175.764991 252.818563 
L 183.629877 250.400657 
L 191.135454 247.86248 
L 198.361567 245.185072 
L 205.308218 242.374792 
L 212.015329 239.421704 
L 218.482901 236.331715 
L 224.750856 233.091056 
L 230.819194 229.704233 
L 236.72784 226.152353 
L 242.476792 222.437502 
L 248.105975 218.534247 
L 253.575464 214.471659 
L 258.925184 210.222485 
L 264.195057 205.752045 
L 269.34516 201.091866 
L 274.415417 196.204114 
L 279.405827 191.084094 
L 284.31639 185.727487 
L 289.18703 180.082893 
L 293.977824 174.188875 
L 298.728694 167.988768 
L 303.399718 161.527483 
L 308.030819 154.742774 
L 312.621996 147.623038 
L 317.213173 140.089338 
L 321.764427 132.190147 
L 326.275758 123.914295 
L 330.827012 115.094713 
L 335.378266 105.782433 
L 340.04929 95.711143 
L 345.638549 83.595555 
L 345.918012 83.448077 
L 348.712641 83.443486 
L 430.036364 83.443486 
L 430.036364 83.443486 
" clip-path="url(#p5dc1e57bac)" style="fill: none; stroke: #0072b2; stroke-width: 5; stroke-linecap: square"/>
   </g>
   <g id="line2d_6">
    <defs>
     <path id="m40f2805f66" d="M 0 2.5 
C 0.663008 2.5 1.29895 2.236584 1.767767 1.767767 
C 2.236584 1.29895 2.5 0.663008 2.5 0 
C 2.5 -0.663008 2.236584 -1.29895 1.767767 -1.767767 
C 1.29895 -2.236584 0.663008 -2.5 0 -2.5 
C -0.663008 -2.5 -1.29895 -2.236584 -1.767767 -1.767767 
C -2.236584 -1.29895 -2.5 -0.663008 -2.5 0 
C -2.5 0.663008 -2.236584 1.29895 -1.767767 1.767767 
C -1.29895 2.236584 -0.663008 2.5 0 2.5 
z
" style="stroke: #000000"/>
    </defs>
    <g clip-path="url(#p5dc1e57bac)">
     <use xlink:href="#m40f2805f66" x="30.763636" y="269.717012" style="stroke: #000000"/>
     <use xlink:href="#m40f2805f66" x="34.755964" y="264.322099" style="stroke: #000000"/>
     <use xlink:href="#m40f2805f66" x="38.748292" y="265.576491" style="stroke: #000000"/>
     <use xlink:href="#m40f2805f66" x="42.74062" y="268.107418" style="stroke: #000000"/>
     <use xlink:href="#m40f2805f66" x="46.732949" y="266.983373" style="stroke: #000000"/>
     <use xlink:href="#m40f2805f66" x="50.725277" y="266.213971" style="stroke: #000000"/>
     <use xlink:href="#m40f2805f66" x="54.717605" y="264.542774" style="stroke: #000000"/>
     <use xlink:href="#m40f2805f66" x="58.709933" y="270.685555" style="stroke: #000000"/>
     <use xlink:href="#m40f2805f66" x="62.702261" y="267.793471" style="stroke: #000000"/>
     <use xlink:href="#m40f2805f66" x="66.694589" y="266.606021" style="stroke: #000000"/>
     <use xlink:href="#m40f2805f66" x="70.686917" y="265.961578" style="stroke: #000000"/>
     <use xlink:href="#m40f2805f66" x="74.679245" y="262.619181" style="stroke: #000000"/>
     <use xlink:href="#m40f2805f66" x="78.671573" y="272.240154" style="stroke: #000000"/>
     <use xlink:href="#m40f2805f66" x="82.663901" y="273.261658" style="stroke: #000000"/>
     <use xlink:href="#m40f2805f66" x="86.656229" y="267.679368" style="stroke: #000000"/>
     <use xlink:href="#m40f2805f66" x="90.648557" y="273.699915" style="stroke: #000000"/>
     <use xlink:href="#m40f2805f66" x="94.640885" y="275.334895" style="stroke: #000000"/>
     <use xlink:href="#m40f2805f66" x="98.633213" y="263.912577" style="stroke: #000000"/>
     <use xlink:href="#m40f2805f66" x="102.625541" y="252.285458" style="stroke: #000000"/>
     <use xlink:href="#m40f2805f66" x="106.617869" y="268.812212" style="stroke: #000000"/>
     <use xlink:href="#m40f2805f66" x="110.610197" y="266.531683" style="stroke: #000000"/>
     <use xlink:href="#m40f2805f66" x="114.602525" y="271.487486" style="stroke: #000000"/>
     <use xlink:href="#m40f2805f66" x="118.594853" y="256.734384" style="stroke: #000000"/>
     <use xlink:href="#m40f2805f66" x="122.587181" y="261.931683" style="stroke: #000000"/>
     <use xlink:href="#m40f2805f66" x="126.579509" y="271.284399" style="stroke: #000000"/>
     <use xlink:href="#m40f2805f66" x="130.571837" y="264.029595" style="stroke: #000000"/>
     <use xlink:href="#m40f2805f66" x="134.564165" y="272.369773" style="stroke: #000000"/>
     <use xlink:href="#m40f2805f66" x="138.556493" y="268.546415" style="stroke: #000000"/>
     <use xlink:href="#m40f2805f66" x="142.548821" y="256.868224" style="stroke: #000000"/>
     <use xlink:href="#m40f2805f66" x="146.54115" y="259.975817" style="stroke: #000000"/>
     <use xlink:href="#m40f2805f66" x="150.533478" y="259.520169" style="stroke: #000000"/>
     <use xlink:href="#m40f2805f66" x="154.525806" y="254.922584" style="stroke: #000000"/>
     <use xlink:href="#m40f2805f66" x="158.518134" y="246.983813" style="stroke: #000000"/>
     <use xlink:href="#m40f2805f66" x="162.510462" y="249.914481" style="stroke: #000000"/>
     <use xlink:href="#m40f2805f66" x="166.50279" y="265.993525" style="stroke: #000000"/>
     <use xlink:href="#m40f2805f66" x="170.495118" y="254.013613" style="stroke: #000000"/>
     <use xlink:href="#m40f2805f66" x="174.487446" y="252.835845" style="stroke: #000000"/>
     <use xlink:href="#m40f2805f66" x="178.479774" y="258.962245" style="stroke: #000000"/>
     <use xlink:href="#m40f2805f66" x="182.472102" y="250.191752" style="stroke: #000000"/>
     <use xlink:href="#m40f2805f66" x="186.46443" y="251.771174" style="stroke: #000000"/>
     <use xlink:href="#m40f2805f66" x="190.456758" y="253.218987" style="stroke: #000000"/>
     <use xlink:href="#m40f2805f66" x="194.449086" y="233.78445" style="stroke: #000000"/>
     <use xlink:href="#m40f2805f66" x="198.441414" y="248.732072" style="stroke: #000000"/>
     <use xlink:href="#m40f2805f66" x="202.433742" y="241.924038" style="stroke: #000000"/>
     <use xlink:href="#m40f2805f66" x="206.42607" y="237.362189" style="stroke: #000000"/>
     <use xlink:href="#m40f2805f66" x="210.418398" y="244.630822" style="stroke: #000000"/>
     <use xlink:href="#m40f2805f66" x="214.410726" y="232.726566" style="stroke: #000000"/>
     <use xlink:href="#m40f2805f66" x="218.403054" y="249.330607" style="stroke: #000000"/>
     <use xlink:href="#m40f2805f66" x="222.395382" y="242.704558" style="stroke: #000000"/>
     <use xlink:href="#m40f2805f66" x="226.38771" y="243.704767" style="stroke: #000000"/>
     <use xlink:href="#m40f2805f66" x="230.380038" y="223.482053" style="stroke: #000000"/>
     <use xlink:href="#m40f2805f66" x="234.372366" y="207.491356" style="stroke: #000000"/>
     <use xlink:href="#m40f2805f66" x="238.364694" y="233.083183" style="stroke: #000000"/>
     <use xlink:href="#m40f2805f66" x="242.357022" y="217.493812" style="stroke: #000000"/>
     <use xlink:href="#m40f2805f66" x="246.349351" y="218.505276" style="stroke: #000000"/>
     <use xlink:href="#m40f2805f66" x="250.341679" y="216.929681" style="stroke: #000000"/>
     <use xlink:href="#m40f2805f66" x="254.334007" y="221.988048" style="stroke: #000000"/>
     <use xlink:href="#m40f2805f66" x="258.326335" y="226.922965" style="stroke: #000000"/>
     <use xlink:href="#m40f2805f66" x="262.318663" y="204.581512" style="stroke: #000000"/>
     <use xlink:href="#m40f2805f66" x="266.310991" y="201.554191" style="stroke: #000000"/>
     <use xlink:href="#m40f2805f66" x="270.303319" y="202.278697" style="stroke: #000000"/>
     <use xlink:href="#m40f2805f66" x="274.295647" y="189.300498" style="stroke: #000000"/>
     <use xlink:href="#m40f2805f66" x="278.287975" y="184.643155" style="stroke: #000000"/>
     <use xlink:href="#m40f2805f66" x="282.280303" y="181.023901" style="stroke: #000000"/>
     <use xlink:href="#m40f2805f66" x="286.272631" y="188.870816" style="stroke: #000000"/>
     <use xlink:href="#m40f2805f66" x="290.264959" y="194.37664" style="stroke: #000000"/>
     <use xlink:href="#m40f2805f66" x="294.257287" y="194.31495" style="stroke: #000000"/>
     <use xlink:href="#m40f2805f66" x="298.249615" y="159.028858" style="stroke: #000000"/>
     <use xlink:href="#m40f2805f66" x="302.241943" y="155.800087" style="stroke: #000000"/>
     <use xlink:href="#m40f2805f66" x="306.234271" y="161.096515" style="stroke: #000000"/>
     <use xlink:href="#m40f2805f66" x="310.226599" y="154.661057" style="stroke: #000000"/>
     <use xlink:href="#m40f2805f66" x="314.218927" y="156.578781" style="stroke: #000000"/>
     <use xlink:href="#m40f2805f66" x="318.211255" y="138.094493" style="stroke: #000000"/>
     <use xlink:href="#m40f2805f66" x="322.203583" y="137.06592" style="stroke: #000000"/>
     <use xlink:href="#m40f2805f66" x="326.195911" y="120.398758" style="stroke: #000000"/>
     <use xlink:href="#m40f2805f66" x="330.188239" y="109.560647" style="stroke: #000000"/>
     <use xlink:href="#m40f2805f66" x="334.180567" y="101.12854" style="stroke: #000000"/>
     <use xlink:href="#m40f2805f66" x="338.172895" y="103.273217" style="stroke: #000000"/>
     <use xlink:href="#m40f2805f66" x="342.165223" y="94.038408" style="stroke: #000000"/>
     <use xlink:href="#m40f2805f66" x="346.157552" y="83.174" style="stroke: #000000"/>
     <use xlink:href="#m40f2805f66" x="350.14988" y="82.608902" style="stroke: #000000"/>
     <use xlink:href="#m40f2805f66" x="354.142208" y="77.877745" style="stroke: #000000"/>
     <use xlink:href="#m40f2805f66" x="358.134536" y="83.959907" style="stroke: #000000"/>
     <use xlink:href="#m40f2805f66" x="362.126864" y="85.82225" style="stroke: #000000"/>
     <use xlink:href="#m40f2805f66" x="366.119192" y="76.569856" style="stroke: #000000"/>
     <use xlink:href="#m40f2805f66" x="370.11152" y="82.592793" style="stroke: #000000"/>
     <use xlink:href="#m40f2805f66" x="374.103848" y="74.332658" style="stroke: #000000"/>
     <use xlink:href="#m40f2805f66" x="378.096176" y="91.71075" style="stroke: #000000"/>
     <use xlink:href="#m40f2805f66" x="382.088504" y="61.467525" style="stroke: #000000"/>
     <use xlink:href="#m40f2805f66" x="386.080832" y="86.383809" style="stroke: #000000"/>
     <use xlink:href="#m40f2805f66" x="390.07316" y="80.956593" style="stroke: #000000"/>
     <use xlink:href="#m40f2805f66" x="394.065488" y="90.286215" style="stroke: #000000"/>
     <use xlink:href="#m40f2805f66" x="398.057816" y="83.621215" style="stroke: #000000"/>
     <use xlink:href="#m40f2805f66" x="402.050144" y="85.986256" style="stroke: #000000"/>
     <use xlink:href="#m40f2805f66" x="406.042472" y="80.97735" style="stroke: #000000"/>
     <use xlink:href="#m40f2805f66" x="410.0348" y="83.561805" style="stroke: #000000"/>
     <use xlink:href="#m40f2805f66" x="414.027128" y="90.924681" style="stroke: #000000"/>
     <use xlink:href="#m40f2805f66" x="418.019456" y="93.90868" style="stroke: #000000"/>
     <use xlink:href="#m40f2805f66" x="422.011784" y="80.222449" style="stroke: #000000"/>
     <use xlink:href="#m40f2805f66" x="426.004112" y="78.214054" style="stroke: #000000"/>
     <use xlink:href="#m40f2805f66" x="429.99644" y="84.091357" style="stroke: #000000"/>
    </g>
   </g>
   <g id="patch_3">
    <path d="M 10.8 291.92 
L 10.8 10.8 
" style="fill: none; stroke: #000000; stroke-width: 0.8; stroke-linejoin: miter; stroke-linecap: square"/>
   </g>
   <g id="patch_4">
    <path d="M 450 291.92 
L 450 10.8 
" style="fill: none; stroke: #000000; stroke-width: 0.8; stroke-linejoin: miter; stroke-linecap: square"/>
   </g>
   <g id="patch_5">
    <path d="M 10.8 291.92 
L 450 291.92 
" style="fill: none; stroke: #000000; stroke-width: 0.8; stroke-linejoin: miter; stroke-linecap: square"/>
   </g>
   <g id="patch_6">
    <path d="M 10.8 10.8 
L 450 10.8 
" style="fill: none; stroke: #000000; stroke-width: 0.8; stroke-linejoin: miter; stroke-linecap: square"/>
   </g>
   <g id="legend_1">
    <g id="patch_7">
     <path d="M 36 145.2825 
L 285.12 145.2825 
Q 292.32 145.2825 292.32 138.0825 
L 292.32 36 
Q 292.32 28.8 285.12 28.8 
L 36 28.8 
Q 28.8 28.8 28.8 36 
L 28.8 138.0825 
Q 28.8 145.2825 36 145.2825 
z
" style="fill: #ffffff; opacity: 0.8; stroke: #cccccc; stroke-linejoin: miter"/>
    </g>
    <g id="line2d_7">
     <path d="M 43.2 57.954375 
L 79.2 57.954375 
L 115.2 57.954375 
" style="fill: none; stroke: #0072b2; stroke-width: 5; stroke-linecap: square"/>
    </g>
    <g id="text_2">
     <!-- $\theta_{estimate}$ -->
     <g transform="translate(144 70.554375) scale(0.36 -0.36)">
      <defs>
       <path id="DejaVuSans-Oblique-3b8" d="M 2913 2219 
L 925 2219 
Q 791 1284 928 888 
Q 1100 400 1566 400 
Q 2034 400 2391 891 
Q 2703 1322 2913 2219 
z
M 3009 2750 
Q 3094 3638 2984 3950 
Q 2813 4444 2353 4444 
Q 1875 4444 1525 3956 
Q 1250 3563 1034 2750 
L 3009 2750 
z
M 2444 4913 
Q 3194 4913 3494 4250 
Q 3794 3591 3566 2422 
Q 3341 1256 2781 594 
Q 2225 -72 1475 -72 
Q 722 -72 425 594 
Q 128 1256 353 2422 
Q 581 3591 1134 4250 
Q 1691 4913 2444 4913 
z
" transform="scale(0.015625)"/>
       <path id="DejaVuSans-Oblique-65" d="M 3078 2063 
Q 3088 2113 3092 2166 
Q 3097 2219 3097 2272 
Q 3097 2653 2873 2875 
Q 2650 3097 2266 3097 
Q 1838 3097 1509 2826 
Q 1181 2556 1013 2059 
L 3078 2063 
z
M 3578 1613 
L 903 1613 
Q 884 1494 878 1425 
Q 872 1356 872 1306 
Q 872 872 1139 634 
Q 1406 397 1894 397 
Q 2269 397 2603 481 
Q 2938 566 3225 728 
L 3116 159 
Q 2806 34 2476 -28 
Q 2147 -91 1806 -91 
Q 1078 -91 686 257 
Q 294 606 294 1247 
Q 294 1794 489 2264 
Q 684 2734 1063 3103 
Q 1306 3334 1642 3459 
Q 1978 3584 2356 3584 
Q 2950 3584 3301 3228 
Q 3653 2872 3653 2272 
Q 3653 2128 3634 1964 
Q 3616 1800 3578 1613 
z
" transform="scale(0.015625)"/>
       <path id="DejaVuSans-Oblique-73" d="M 3200 3397 
L 3091 2853 
Q 2863 2978 2609 3040 
Q 2356 3103 2088 3103 
Q 1634 3103 1373 2948 
Q 1113 2794 1113 2528 
Q 1113 2219 1719 2053 
Q 1766 2041 1788 2034 
L 1972 1978 
Q 2547 1819 2739 1644 
Q 2931 1469 2931 1166 
Q 2931 609 2489 259 
Q 2047 -91 1331 -91 
Q 1053 -91 747 -37 
Q 441 16 72 128 
L 184 722 
Q 500 559 806 475 
Q 1113 391 1394 391 
Q 1816 391 2080 572 
Q 2344 753 2344 1031 
Q 2344 1331 1650 1516 
L 1591 1531 
L 1394 1581 
Q 956 1697 753 1886 
Q 550 2075 550 2369 
Q 550 2928 970 3256 
Q 1391 3584 2113 3584 
Q 2397 3584 2667 3537 
Q 2938 3491 3200 3397 
z
" transform="scale(0.015625)"/>
       <path id="DejaVuSans-Oblique-74" d="M 2706 3500 
L 2619 3053 
L 1472 3053 
L 1100 1153 
Q 1081 1047 1072 975 
Q 1063 903 1063 863 
Q 1063 663 1183 572 
Q 1303 481 1569 481 
L 2150 481 
L 2053 0 
L 1503 0 
Q 991 0 739 200 
Q 488 400 488 806 
Q 488 878 497 964 
Q 506 1050 525 1153 
L 897 3053 
L 409 3053 
L 500 3500 
L 978 3500 
L 1172 4494 
L 1747 4494 
L 1556 3500 
L 2706 3500 
z
" transform="scale(0.015625)"/>
       <path id="DejaVuSans-Oblique-69" d="M 1172 4863 
L 1747 4863 
L 1606 4134 
L 1031 4134 
L 1172 4863 
z
M 909 3500 
L 1484 3500 
L 800 0 
L 225 0 
L 909 3500 
z
" transform="scale(0.015625)"/>
       <path id="DejaVuSans-Oblique-6d" d="M 5747 2113 
L 5338 0 
L 4763 0 
L 5166 2094 
Q 5191 2228 5203 2325 
Q 5216 2422 5216 2491 
Q 5216 2772 5059 2928 
Q 4903 3084 4622 3084 
Q 4203 3084 3875 2770 
Q 3547 2456 3450 1953 
L 3066 0 
L 2491 0 
L 2900 2094 
Q 2925 2209 2937 2307 
Q 2950 2406 2950 2484 
Q 2950 2769 2794 2926 
Q 2638 3084 2363 3084 
Q 1938 3084 1609 2770 
Q 1281 2456 1184 1953 
L 800 0 
L 225 0 
L 909 3500 
L 1484 3500 
L 1375 2956 
Q 1609 3263 1923 3423 
Q 2238 3584 2597 3584 
Q 2978 3584 3223 3384 
Q 3469 3184 3519 2828 
Q 3781 3197 4126 3390 
Q 4472 3584 4856 3584 
Q 5306 3584 5551 3325 
Q 5797 3066 5797 2591 
Q 5797 2488 5784 2364 
Q 5772 2241 5747 2113 
z
" transform="scale(0.015625)"/>
       <path id="DejaVuSans-Oblique-61" d="M 3438 1997 
L 3047 0 
L 2472 0 
L 2578 531 
Q 2325 219 2001 64 
Q 1678 -91 1281 -91 
Q 834 -91 548 182 
Q 263 456 263 884 
Q 263 1497 752 1853 
Q 1241 2209 2100 2209 
L 2900 2209 
L 2931 2363 
Q 2938 2388 2941 2417 
Q 2944 2447 2944 2509 
Q 2944 2788 2717 2942 
Q 2491 3097 2081 3097 
Q 1800 3097 1504 3025 
Q 1209 2953 897 2809 
L 997 3341 
Q 1322 3463 1633 3523 
Q 1944 3584 2234 3584 
Q 2853 3584 3176 3315 
Q 3500 3047 3500 2534 
Q 3500 2431 3484 2292 
Q 3469 2153 3438 1997 
z
M 2816 1759 
L 2241 1759 
Q 1534 1759 1195 1570 
Q 856 1381 856 984 
Q 856 709 1029 553 
Q 1203 397 1509 397 
Q 1978 397 2328 733 
Q 2678 1069 2791 1631 
L 2816 1759 
z
" transform="scale(0.015625)"/>
      </defs>
      <use xlink:href="#DejaVuSans-Oblique-3b8" transform="translate(0 0.234375)"/>
      <use xlink:href="#DejaVuSans-Oblique-65" transform="translate(61.181641 -16.171875) scale(0.7)"/>
      <use xlink:href="#DejaVuSans-Oblique-73" transform="translate(104.248047 -16.171875) scale(0.7)"/>
      <use xlink:href="#DejaVuSans-Oblique-74" transform="translate(140.717773 -16.171875) scale(0.7)"/>
      <use xlink:href="#DejaVuSans-Oblique-69" transform="translate(168.164062 -16.171875) scale(0.7)"/>
      <use xlink:href="#DejaVuSans-Oblique-6d" transform="translate(187.612305 -16.171875) scale(0.7)"/>
      <use xlink:href="#DejaVuSans-Oblique-61" transform="translate(255.800781 -16.171875) scale(0.7)"/>
      <use xlink:href="#DejaVuSans-Oblique-74" transform="translate(298.696289 -16.171875) scale(0.7)"/>
      <use xlink:href="#DejaVuSans-Oblique-65" transform="translate(326.142578 -16.171875) scale(0.7)"/>
     </g>
    </g>
    <g id="LineCollection_2">
     <path d="M 79.2 128.795625 
L 79.2 92.795625 
" style="fill: none; stroke: #000000; stroke-width: 1.5"/>
    </g>
    <g id="line2d_8"/>
    <g id="line2d_9">
     <g>
      <use xlink:href="#m40f2805f66" x="79.2" y="110.795625" style="stroke: #000000"/>
     </g>
    </g>
    <g id="text_3">
     <!-- data -->
     <g transform="translate(144 123.395625) scale(0.36 -0.36)">
      <defs>
       <path id="DejaVuSans-64" d="M 2906 2969 
L 2906 4863 
L 3481 4863 
L 3481 0 
L 2906 0 
L 2906 525 
Q 2725 213 2448 61 
Q 2172 -91 1784 -91 
Q 1150 -91 751 415 
Q 353 922 353 1747 
Q 353 2572 751 3078 
Q 1150 3584 1784 3584 
Q 2172 3584 2448 3432 
Q 2725 3281 2906 2969 
z
M 947 1747 
Q 947 1113 1208 752 
Q 1469 391 1925 391 
Q 2381 391 2643 752 
Q 2906 1113 2906 1747 
Q 2906 2381 2643 2742 
Q 2381 3103 1925 3103 
Q 1469 3103 1208 2742 
Q 947 2381 947 1747 
z
" transform="scale(0.015625)"/>
       <path id="DejaVuSans-61" d="M 2194 1759 
Q 1497 1759 1228 1600 
Q 959 1441 959 1056 
Q 959 750 1161 570 
Q 1363 391 1709 391 
Q 2188 391 2477 730 
Q 2766 1069 2766 1631 
L 2766 1759 
L 2194 1759 
z
M 3341 1997 
L 3341 0 
L 2766 0 
L 2766 531 
Q 2569 213 2275 61 
Q 1981 -91 1556 -91 
Q 1019 -91 701 211 
Q 384 513 384 1019 
Q 384 1609 779 1909 
Q 1175 2209 1959 2209 
L 2766 2209 
L 2766 2266 
Q 2766 2663 2505 2880 
Q 2244 3097 1772 3097 
Q 1472 3097 1187 3025 
Q 903 2953 641 2809 
L 641 3341 
Q 956 3463 1253 3523 
Q 1550 3584 1831 3584 
Q 2591 3584 2966 3190 
Q 3341 2797 3341 1997 
z
" transform="scale(0.015625)"/>
       <path id="DejaVuSans-74" d="M 1172 4494 
L 1172 3500 
L 2356 3500 
L 2356 3053 
L 1172 3053 
L 1172 1153 
Q 1172 725 1289 603 
Q 1406 481 1766 481 
L 2356 481 
L 2356 0 
L 1766 0 
Q 1100 0 847 248 
Q 594 497 594 1153 
L 594 3053 
L 172 3053 
L 172 3500 
L 594 3500 
L 594 4494 
L 1172 4494 
z
" transform="scale(0.015625)"/>
      </defs>
      <use xlink:href="#DejaVuSans-64"/>
      <use xlink:href="#DejaVuSans-61" x="63.476562"/>
      <use xlink:href="#DejaVuSans-74" x="124.755859"/>
      <use xlink:href="#DejaVuSans-61" x="163.964844"/>
     </g>
    </g>
   </g>
  </g>
 </g>
 <defs>
  <clipPath id="p5dc1e57bac">
   <rect x="10.8" y="10.8" width="439.2" height="281.12"/>
  </clipPath>
 </defs>
</svg>
