<?xml version="1.0" encoding="utf-8" standalone="no"?>
<!DOCTYPE svg PUBLIC "-//W3C//DTD SVG 1.1//EN"
  "http://www.w3.org/Graphics/SVG/1.1/DTD/svg11.dtd">
<svg xmlns:xlink="http://www.w3.org/1999/xlink" width="460.8pt" height="345.6pt" viewBox="0 0 460.8 345.6" xmlns="http://www.w3.org/2000/svg" version="1.1">
 <metadata>
  <rdf:RDF xmlns:dc="http://purl.org/dc/elements/1.1/" xmlns:cc="http://creativecommons.org/ns#" xmlns:rdf="http://www.w3.org/1999/02/22-rdf-syntax-ns#">
   <cc:Work>
    <dc:type rdf:resource="http://purl.org/dc/dcmitype/StillImage"/>
    <dc:date>2025-07-12T11:05:15.778583</dc:date>
    <dc:format>image/svg+xml</dc:format>
    <dc:creator>
     <cc:Agent>
      <dc:title>Matplotlib v3.9.1, https://matplotlib.org/</dc:title>
     </cc:Agent>
    </dc:creator>
   </cc:Work>
  </rdf:RDF>
 </metadata>
 <defs>
  <style type="text/css">*{stroke-linejoin: round; stroke-linecap: butt}</style>
 </defs>
 <g id="figure_1">
  <g id="patch_1">
   <path d="M 0 345.6 
L 460.8 345.6 
L 460.8 0 
L 0 0 
z
" style="fill: #ffffff"/>
  </g>
  <g id="axes_1">
   <g id="patch_2">
    <path d="M 10.8 302 
L 450 302 
L 450 10.8 
L 10.8 10.8 
z
" style="fill: #ffffff"/>
   </g>
   <g id="matplotlib.axis_1">
    <g id="text_1">
     <!-- Time -->
     <g transform="translate(193.699219 328.795312) scale(0.3 -0.3)">
      <defs>
       <path id="DejaVuSans-54" d="M -19 4666 
L 3928 4666 
L 3928 4134 
L 2272 4134 
L 2272 0 
L 1638 0 
L 1638 4134 
L -19 4134 
L -19 4666 
z
" transform="scale(0.015625)"/>
       <path id="DejaVuSans-69" d="M 603 3500 
L 1178 3500 
L 1178 0 
L 603 0 
L 603 3500 
z
M 603 4863 
L 1178 4863 
L 1178 4134 
L 603 4134 
L 603 4863 
z
" transform="scale(0.015625)"/>
       <path id="DejaVuSans-6d" d="M 3328 2828 
Q 3544 3216 3844 3400 
Q 4144 3584 4550 3584 
Q 5097 3584 5394 3201 
Q 5691 2819 5691 2113 
L 5691 0 
L 5113 0 
L 5113 2094 
Q 5113 2597 4934 2840 
Q 4756 3084 4391 3084 
Q 3944 3084 3684 2787 
Q 3425 2491 3425 1978 
L 3425 0 
L 2847 0 
L 2847 2094 
Q 2847 2600 2669 2842 
Q 2491 3084 2119 3084 
Q 1678 3084 1418 2786 
Q 1159 2488 1159 1978 
L 1159 0 
L 581 0 
L 581 3500 
L 1159 3500 
L 1159 2956 
Q 1356 3278 1631 3431 
Q 1906 3584 2284 3584 
Q 2666 3584 2933 3390 
Q 3200 3197 3328 2828 
z
" transform="scale(0.015625)"/>
       <path id="DejaVuSans-65" d="M 3597 1894 
L 3597 1613 
L 953 1613 
Q 991 1019 1311 708 
Q 1631 397 2203 397 
Q 2534 397 2845 478 
Q 3156 559 3463 722 
L 3463 178 
Q 3153 47 2828 -22 
Q 2503 -91 2169 -91 
Q 1331 -91 842 396 
Q 353 884 353 1716 
Q 353 2575 817 3079 
Q 1281 3584 2069 3584 
Q 2775 3584 3186 3129 
Q 3597 2675 3597 1894 
z
M 3022 2063 
Q 3016 2534 2758 2815 
Q 2500 3097 2075 3097 
Q 1594 3097 1305 2825 
Q 1016 2553 972 2059 
L 3022 2063 
z
" transform="scale(0.015625)"/>
      </defs>
      <use xlink:href="#DejaVuSans-54"/>
      <use xlink:href="#DejaVuSans-69" x="57.958984"/>
      <use xlink:href="#DejaVuSans-6d" x="85.742188"/>
      <use xlink:href="#DejaVuSans-65" x="183.154297"/>
     </g>
    </g>
   </g>
   <g id="matplotlib.axis_2"/>
   <g id="line2d_1">
    <path d="M 30.763636 288.763636 
L 49.447732 287.414206 
L 66.814359 285.939712 
L 82.863517 284.356523 
L 97.834747 282.658429 
L 111.847819 280.847535 
L 125.022501 278.923354 
L 137.478565 276.881693 
L 149.295856 274.721085 
L 160.514298 272.44592 
L 171.213737 270.050987 
L 181.434097 267.537429 
L 191.255224 264.894073 
L 200.677118 262.128768 
L 209.739702 259.238173 
L 218.482901 256.21681 
L 226.906713 253.072059 
L 235.090985 249.779691 
L 242.995795 246.361073 
L 250.700988 242.786418 
L 258.166642 239.078375 
L 265.432679 235.222375 
L 272.539022 231.199478 
L 279.485673 227.010653 
L 286.272631 222.657757 
L 292.899895 218.14354 
L 299.40739 213.441961 
L 305.795115 208.552427 
L 312.06307 203.475043 
L 318.251179 198.175507 
L 324.35944 192.650042 
L 330.387856 186.895604 
L 336.376348 180.869536 
L 342.36484 174.526146 
L 348.513025 167.683455 
L 355.220136 160.218907 
L 355.659292 160.082209 
L 358.214382 160.076768 
L 430.036364 160.076768 
L 430.036364 160.076768 
" clip-path="url(#pf8e06b8642)" style="fill: none; stroke: #0173b2; stroke-width: 4; stroke-linecap: square"/>
   </g>
   <g id="line2d_2">
    <path d="M 30.763636 286.312458 
L 42.98016 284.761396 
L 54.318372 283.102638 
L 65.057734 281.309878 
L 75.118401 279.407644 
L 84.620142 277.387264 
L 93.642803 275.243102 
L 102.226308 272.975912 
L 110.410581 270.585258 
L 118.235544 268.069005 
L 125.74112 265.422811 
L 132.967234 262.639602 
L 139.913885 259.726467 
L 146.620996 256.673535 
L 153.088568 253.487306 
L 159.356523 250.154204 
L 165.464784 246.655639 
L 171.413353 242.992935 
L 177.202229 239.168257 
L 182.871335 235.156257 
L 188.420671 230.95575 
L 193.850237 226.566006 
L 199.160033 221.98746 
L 204.389983 217.183805 
L 209.540086 212.149605 
L 214.570419 206.923194 
L 219.560829 201.417766 
L 224.471393 195.669156 
L 229.342033 189.623937 
L 234.17275 183.270245 
L 238.92362 176.653365 
L 243.634567 169.711736 
L 248.305591 162.43354 
L 252.976615 154.741618 
L 257.607716 146.686243 
L 262.318663 138.039329 
L 267.02961 128.921828 
L 274.255724 114.774888 
L 274.615033 114.731805 
L 315.656165 114.729966 
L 430.036364 114.729966 
L 430.036364 114.729966 
" clip-path="url(#pf8e06b8642)" style="fill: none; stroke: #de8f05; stroke-width: 4; stroke-linecap: square"/>
   </g>
   <g id="line2d_3">
    <path d="M 30.763636 283.861279 
L 39.586681 282.1238 
L 47.810877 280.282268 
L 55.675763 278.295784 
L 63.101493 276.193089 
L 70.167914 273.962573 
L 76.914949 271.600314 
L 83.342597 269.116075 
L 89.530705 266.487096 
L 95.479274 263.719044 
L 101.228226 260.798648 
L 106.777562 257.730318 
L 112.167205 254.495379 
L 117.397155 251.095934 
L 122.467411 247.535556 
L 127.417898 243.787862 
L 132.248615 239.852457 
L 136.999486 235.693714 
L 141.630586 231.344299 
L 146.18184 226.765152 
L 150.653247 221.951415 
L 155.084732 216.851304 
L 159.436369 211.502206 
L 163.748083 205.846575 
L 167.979951 199.928647 
L 172.171896 193.68463 
L 176.323917 187.101216 
L 180.436015 180.164907 
L 184.548112 172.788225 
L 188.620287 165.022012 
L 192.652538 156.85174 
L 196.68479 148.174456 
L 200.677118 139.053445 
L 204.669446 129.374577 
L 208.661774 119.10566 
L 212.654102 108.217121 
L 216.64643 96.679228 
L 220.758528 84.10221 
L 225.509398 69.494709 
L 225.748938 69.389457 
L 228.583491 69.383165 
L 430.036364 69.383165 
L 430.036364 69.383165 
" clip-path="url(#pf8e06b8642)" style="fill: none; stroke: #029e73; stroke-width: 4; stroke-linecap: square"/>
   </g>
   <g id="line2d_4">
    <path d="M 30.763636 281.410101 
L 37.550594 279.495604 
L 43.938319 277.466023 
L 50.086504 275.279548 
L 55.915303 272.971491 
L 61.504562 270.51892 
L 66.854282 267.928196 
L 72.004385 265.186323 
L 76.954872 262.299437 
L 81.745665 259.250098 
L 86.416689 256.012257 
L 90.92802 252.615863 
L 95.359504 249.000059 
L 99.671218 245.194075 
L 103.903086 241.15993 
L 108.055107 236.891572 
L 112.127282 232.383667 
L 116.11961 227.63126 
L 120.072015 222.577619 
L 123.944573 217.264627 
L 127.777208 211.628864 
L 131.569919 205.655692 
L 135.322708 199.330164 
L 139.035573 192.637258 
L 142.748438 185.482171 
L 146.42138 177.918126 
L 150.094321 169.837681 
L 153.72734 161.302682 
L 157.360359 152.192055 
L 160.953454 142.577667 
L 164.546549 132.322984 
L 168.139644 121.386012 
L 171.732739 109.722789 
L 175.285911 97.429405 
L 178.879007 84.183751 
L 182.472102 70.072698 
L 186.065197 55.048225 
L 189.817985 38.378936 
L 193.011848 24.244105 
L 193.211464 24.041 
L 199.718959 24.036364 
L 430.036364 24.036364 
L 430.036364 24.036364 
" clip-path="url(#pf8e06b8642)" style="fill: none; stroke: #d55e00; stroke-width: 4; stroke-linecap: square"/>
   </g>
   <g id="patch_3">
    <path d="M 10.8 302 
L 10.8 10.8 
" style="fill: none; stroke: #000000; stroke-width: 0.8; stroke-linejoin: miter; stroke-linecap: square"/>
   </g>
   <g id="patch_4">
    <path d="M 450 302 
L 450 10.8 
" style="fill: none; stroke: #000000; stroke-width: 0.8; stroke-linejoin: miter; stroke-linecap: square"/>
   </g>
   <g id="patch_5">
    <path d="M 10.8 302 
L 450 302 
" style="fill: none; stroke: #000000; stroke-width: 0.8; stroke-linejoin: miter; stroke-linecap: square"/>
   </g>
   <g id="patch_6">
    <path d="M 10.8 10.8 
L 450 10.8 
" style="fill: none; stroke: #000000; stroke-width: 0.8; stroke-linejoin: miter; stroke-linecap: square"/>
   </g>
  </g>
  <g id="legend_1">
   <g id="patch_7">
    <path d="M 21 200.1375 
L 149.7 200.1375 
Q 155.7 200.1375 155.7 194.1375 
L 155.7 21 
Q 155.7 15 149.7 15 
L 21 15 
Q 15 15 15 21 
L 15 194.1375 
Q 15 200.1375 21 200.1375 
z
" style="fill: #ffffff; opacity: 0.8; stroke: #cccccc; stroke-linejoin: miter"/>
   </g>
   <g id="line2d_5">
    <path d="M 27 39.295312 
L 57 39.295312 
L 87 39.295312 
" style="fill: none; stroke: #0173b2; stroke-width: 4; stroke-linecap: square"/>
   </g>
   <g id="text_2">
    <!-- $\theta_1$ -->
    <g transform="translate(111 49.795312) scale(0.3 -0.3)">
     <defs>
      <path id="DejaVuSans-Oblique-3b8" d="M 2913 2219 
L 925 2219 
Q 791 1284 928 888 
Q 1100 400 1566 400 
Q 2034 400 2391 891 
Q 2703 1322 2913 2219 
z
M 3009 2750 
Q 3094 3638 2984 3950 
Q 2813 4444 2353 4444 
Q 1875 4444 1525 3956 
Q 1250 3563 1034 2750 
L 3009 2750 
z
M 2444 4913 
Q 3194 4913 3494 4250 
Q 3794 3591 3566 2422 
Q 3341 1256 2781 594 
Q 2225 -72 1475 -72 
Q 722 -72 425 594 
Q 128 1256 353 2422 
Q 581 3591 1134 4250 
Q 1691 4913 2444 4913 
z
" transform="scale(0.015625)"/>
      <path id="DejaVuSans-31" d="M 794 531 
L 1825 531 
L 1825 4091 
L 703 3866 
L 703 4441 
L 1819 4666 
L 2450 4666 
L 2450 531 
L 3481 531 
L 3481 0 
L 794 0 
L 794 531 
z
" transform="scale(0.015625)"/>
     </defs>
     <use xlink:href="#DejaVuSans-Oblique-3b8" transform="translate(0 0.234375)"/>
     <use xlink:href="#DejaVuSans-31" transform="translate(61.181641 -16.171875) scale(0.7)"/>
    </g>
   </g>
   <g id="line2d_6">
    <path d="M 27 83.329687 
L 57 83.329687 
L 87 83.329687 
" style="fill: none; stroke: #de8f05; stroke-width: 4; stroke-linecap: square"/>
   </g>
   <g id="text_3">
    <!-- $\theta_2$ -->
    <g transform="translate(111 93.829687) scale(0.3 -0.3)">
     <defs>
      <path id="DejaVuSans-32" d="M 1228 531 
L 3431 531 
L 3431 0 
L 469 0 
L 469 531 
Q 828 903 1448 1529 
Q 2069 2156 2228 2338 
Q 2531 2678 2651 2914 
Q 2772 3150 2772 3378 
Q 2772 3750 2511 3984 
Q 2250 4219 1831 4219 
Q 1534 4219 1204 4116 
Q 875 4013 500 3803 
L 500 4441 
Q 881 4594 1212 4672 
Q 1544 4750 1819 4750 
Q 2544 4750 2975 4387 
Q 3406 4025 3406 3419 
Q 3406 3131 3298 2873 
Q 3191 2616 2906 2266 
Q 2828 2175 2409 1742 
Q 1991 1309 1228 531 
z
" transform="scale(0.015625)"/>
     </defs>
     <use xlink:href="#DejaVuSans-Oblique-3b8" transform="translate(0 0.234375)"/>
     <use xlink:href="#DejaVuSans-32" transform="translate(61.181641 -16.171875) scale(0.7)"/>
    </g>
   </g>
   <g id="line2d_7">
    <path d="M 27 127.364062 
L 57 127.364062 
L 87 127.364062 
" style="fill: none; stroke: #029e73; stroke-width: 4; stroke-linecap: square"/>
   </g>
   <g id="text_4">
    <!-- $\theta_3$ -->
    <g transform="translate(111 137.864062) scale(0.3 -0.3)">
     <defs>
      <path id="DejaVuSans-33" d="M 2597 2516 
Q 3050 2419 3304 2112 
Q 3559 1806 3559 1356 
Q 3559 666 3084 287 
Q 2609 -91 1734 -91 
Q 1441 -91 1130 -33 
Q 819 25 488 141 
L 488 750 
Q 750 597 1062 519 
Q 1375 441 1716 441 
Q 2309 441 2620 675 
Q 2931 909 2931 1356 
Q 2931 1769 2642 2001 
Q 2353 2234 1838 2234 
L 1294 2234 
L 1294 2753 
L 1863 2753 
Q 2328 2753 2575 2939 
Q 2822 3125 2822 3475 
Q 2822 3834 2567 4026 
Q 2313 4219 1838 4219 
Q 1578 4219 1281 4162 
Q 984 4106 628 3988 
L 628 4550 
Q 988 4650 1302 4700 
Q 1616 4750 1894 4750 
Q 2613 4750 3031 4423 
Q 3450 4097 3450 3541 
Q 3450 3153 3228 2886 
Q 3006 2619 2597 2516 
z
" transform="scale(0.015625)"/>
     </defs>
     <use xlink:href="#DejaVuSans-Oblique-3b8" transform="translate(0 0.234375)"/>
     <use xlink:href="#DejaVuSans-33" transform="translate(61.181641 -16.171875) scale(0.7)"/>
    </g>
   </g>
   <g id="line2d_8">
    <path d="M 27 171.398437 
L 57 171.398437 
L 87 171.398437 
" style="fill: none; stroke: #d55e00; stroke-width: 4; stroke-linecap: square"/>
   </g>
   <g id="text_5">
    <!-- $\theta_4$ -->
    <g transform="translate(111 181.898437) scale(0.3 -0.3)">
     <defs>
      <path id="DejaVuSans-34" d="M 2419 4116 
L 825 1625 
L 2419 1625 
L 2419 4116 
z
M 2253 4666 
L 3047 4666 
L 3047 1625 
L 3713 1625 
L 3713 1100 
L 3047 1100 
L 3047 0 
L 2419 0 
L 2419 1100 
L 313 1100 
L 313 1709 
L 2253 4666 
z
" transform="scale(0.015625)"/>
     </defs>
     <use xlink:href="#DejaVuSans-Oblique-3b8" transform="translate(0 0.234375)"/>
     <use xlink:href="#DejaVuSans-34" transform="translate(61.181641 -16.171875) scale(0.7)"/>
    </g>
   </g>
  </g>
 </g>
 <defs>
  <clipPath id="pf8e06b8642">
   <rect x="10.8" y="10.8" width="439.2" height="291.2"/>
  </clipPath>
 </defs>
</svg>
