<?xml version="1.0" encoding="utf-8" standalone="no"?>
<!DOCTYPE svg PUBLIC "-//W3C//DTD SVG 1.1//EN"
  "http://www.w3.org/Graphics/SVG/1.1/DTD/svg11.dtd">
<svg xmlns:xlink="http://www.w3.org/1999/xlink" width="460.8pt" height="345.6pt" viewBox="0 0 460.8 345.6" xmlns="http://www.w3.org/2000/svg" version="1.1">
 <metadata>
  <rdf:RDF xmlns:dc="http://purl.org/dc/elements/1.1/" xmlns:cc="http://creativecommons.org/ns#" xmlns:rdf="http://www.w3.org/1999/02/22-rdf-syntax-ns#">
   <cc:Work>
    <dc:type rdf:resource="http://purl.org/dc/dcmitype/StillImage"/>
    <dc:date>2025-02-05T12:50:40.512976</dc:date>
    <dc:format>image/svg+xml</dc:format>
    <dc:creator>
     <cc:Agent>
      <dc:title>Matplotlib v3.9.1, https://matplotlib.org/</dc:title>
     </cc:Agent>
    </dc:creator>
   </cc:Work>
  </rdf:RDF>
 </metadata>
 <defs>
  <style type="text/css">*{stroke-linejoin: round; stroke-linecap: butt}</style>
 </defs>
 <g id="figure_1">
  <g id="patch_1">
   <path d="M 0 345.6 
L 460.8 345.6 
L 460.8 0 
L 0 0 
z
" style="fill: #ffffff"/>
  </g>
  <g id="axes_1">
   <g id="patch_2">
    <path d="M 10.8 320.72 
L 445.864574 320.72 
L 445.864574 10.8 
L 10.8 10.8 
z
" style="fill: #ffffff"/>
   </g>
   <g id="matplotlib.axis_1">
    <g id="text_1">
     <!-- Time -->
     <g transform="translate(216.098693 332.318437) scale(0.1 -0.1)">
      <defs>
       <path id="DejaVuSans-54" d="M -19 4666 
L 3928 4666 
L 3928 4134 
L 2272 4134 
L 2272 0 
L 1638 0 
L 1638 4134 
L -19 4134 
L -19 4666 
z
" transform="scale(0.015625)"/>
       <path id="DejaVuSans-69" d="M 603 3500 
L 1178 3500 
L 1178 0 
L 603 0 
L 603 3500 
z
M 603 4863 
L 1178 4863 
L 1178 4134 
L 603 4134 
L 603 4863 
z
" transform="scale(0.015625)"/>
       <path id="DejaVuSans-6d" d="M 3328 2828 
Q 3544 3216 3844 3400 
Q 4144 3584 4550 3584 
Q 5097 3584 5394 3201 
Q 5691 2819 5691 2113 
L 5691 0 
L 5113 0 
L 5113 2094 
Q 5113 2597 4934 2840 
Q 4756 3084 4391 3084 
Q 3944 3084 3684 2787 
Q 3425 2491 3425 1978 
L 3425 0 
L 2847 0 
L 2847 2094 
Q 2847 2600 2669 2842 
Q 2491 3084 2119 3084 
Q 1678 3084 1418 2786 
Q 1159 2488 1159 1978 
L 1159 0 
L 581 0 
L 581 3500 
L 1159 3500 
L 1159 2956 
Q 1356 3278 1631 3431 
Q 1906 3584 2284 3584 
Q 2666 3584 2933 3390 
Q 3200 3197 3328 2828 
z
" transform="scale(0.015625)"/>
       <path id="DejaVuSans-65" d="M 3597 1894 
L 3597 1613 
L 953 1613 
Q 991 1019 1311 708 
Q 1631 397 2203 397 
Q 2534 397 2845 478 
Q 3156 559 3463 722 
L 3463 178 
Q 3153 47 2828 -22 
Q 2503 -91 2169 -91 
Q 1331 -91 842 396 
Q 353 884 353 1716 
Q 353 2575 817 3079 
Q 1281 3584 2069 3584 
Q 2775 3584 3186 3129 
Q 3597 2675 3597 1894 
z
M 3022 2063 
Q 3016 2534 2758 2815 
Q 2500 3097 2075 3097 
Q 1594 3097 1305 2825 
Q 1016 2553 972 2059 
L 3022 2063 
z
" transform="scale(0.015625)"/>
      </defs>
      <use xlink:href="#DejaVuSans-54"/>
      <use xlink:href="#DejaVuSans-69" x="57.958984"/>
      <use xlink:href="#DejaVuSans-6d" x="85.742188"/>
      <use xlink:href="#DejaVuSans-65" x="183.154297"/>
     </g>
    </g>
   </g>
   <g id="matplotlib.axis_2"/>
   <g id="line2d_1">
    <path d="M 30.575662 306.632727 
L 48.530169 305.24312 
L 65.258706 303.728093 
L 80.761275 302.10332 
L 95.235613 300.365002 
L 108.800361 298.514561 
L 121.613709 296.54406 
L 133.715204 294.459946 
L 145.183941 292.26153 
L 156.099016 289.94522 
L 166.539521 287.503871 
L 176.505459 284.94705 
L 186.075922 282.263761 
L 195.290459 279.450085 
L 204.14907 276.513623 
L 212.691302 273.449116 
L 220.956703 270.248663 
L 228.945271 266.918396 
L 236.696556 263.4476 
L 244.250104 259.821921 
L 251.566367 256.064875 
L 258.724441 252.139447 
L 265.684778 248.069912 
L 272.486926 243.836653 
L 279.170432 239.41492 
L 285.695748 234.831486 
L 292.102422 230.059802 
L 298.390454 225.099513 
L 304.559843 219.950849 
L 310.650138 214.578926 
L 316.661339 208.979598 
L 322.593444 203.149459 
L 328.486002 197.044221 
L 334.339013 190.6569 
L 340.192024 183.939109 
L 346.400961 176.460933 
L 351.858498 169.914782 
L 352.293519 169.69181 
L 353.163561 169.673452 
L 395.59789 169.673131 
L 426.088912 169.673131 
L 426.088912 169.673131 
" clip-path="url(#p0510ebed5a)" style="fill: none; stroke: #0173b2; stroke-width: 1.5; stroke-linecap: square"/>
   </g>
   <g id="line2d_2">
    <path d="M 30.575662 304.023973 
L 42.321231 302.425256 
L 53.275853 300.713777 
L 63.637264 298.872696 
L 73.365917 296.920872 
L 82.580454 294.847443 
L 91.320423 292.654701 
L 99.664918 290.3328 
L 107.61394 287.891402 
L 115.246582 285.315032 
L 122.562846 282.611299 
L 129.602277 279.773407 
L 136.364878 276.809229 
L 142.929741 273.689721 
L 149.296868 270.4176 
L 155.466258 266.996934 
L 161.477458 263.40873 
L 167.290921 259.680614 
L 172.985743 255.765051 
L 178.561922 251.660275 
L 184.019459 247.365018 
L 189.358354 242.879238 
L 194.578607 238.203782 
L 199.719765 233.30088 
L 204.781828 228.165926 
L 209.764797 222.794721 
L 214.708218 217.136003 
L 219.572545 211.227944 
L 224.397324 205.014669 
L 229.143008 198.539274 
L 233.849145 191.741521 
L 238.515735 184.608848 
L 243.142777 177.130421 
L 247.76982 169.225147 
L 252.357315 160.944542 
L 256.94481 152.202078 
L 261.571852 142.905079 
L 266.277989 132.942599 
L 271.616884 121.592758 
L 271.893716 121.422365 
L 273.040589 121.411178 
L 426.088912 121.411178 
L 426.088912 121.411178 
" clip-path="url(#p0510ebed5a)" style="fill: none; stroke: #de8f05; stroke-width: 1.5; stroke-linecap: square"/>
   </g>
   <g id="line2d_3">
    <path d="M 30.575662 301.415219 
L 39.0388 299.628429 
L 46.987821 297.727094 
L 54.580916 295.684367 
L 61.778538 293.519407 
L 68.620233 291.23095 
L 75.145549 288.815801 
L 81.394033 286.268147 
L 87.405233 283.578776 
L 93.17915 280.754591 
L 98.794876 277.760435 
L 104.212866 274.61997 
L 109.472666 271.314364 
L 114.574277 267.846445 
L 119.557245 264.190308 
L 124.421572 260.344872 
L 129.167256 256.310042 
L 133.833846 252.049363 
L 138.381794 247.596984 
L 142.890194 242.870059 
L 147.319499 237.90096 
L 151.66971 232.685236 
L 155.980373 227.166755 
L 160.211942 221.38778 
L 164.403963 215.28603 
L 168.556437 208.848018 
L 172.669364 202.059988 
L 176.742743 194.908013 
L 180.816122 187.301853 
L 184.849954 179.293879 
L 188.844238 170.869059 
L 192.838522 161.921065 
L 196.793259 152.51508 
L 200.747997 142.532803 
L 204.702734 131.940925 
L 208.657471 120.705621 
L 212.612208 108.79619 
L 216.606492 96.053342 
L 220.956703 81.397013 
L 223.369092 73.474466 
L 223.606376 73.175003 
L 224.120492 73.149226 
L 426.088912 73.149226 
L 426.088912 73.149226 
" clip-path="url(#p0510ebed5a)" style="fill: none; stroke: #029e73; stroke-width: 1.5; stroke-linecap: square"/>
   </g>
   <g id="line2d_4">
    <path d="M 30.575662 298.806465 
L 37.100979 296.832436 
L 43.270368 294.73709 
L 49.202474 292.488335 
L 54.857748 290.107323 
L 60.275738 287.584999 
L 65.456443 284.929106 
L 70.478959 282.103224 
L 75.303738 279.134406 
L 80.009875 275.976787 
L 84.557823 272.65722 
L 88.987128 269.149654 
L 93.297792 265.45395 
L 97.52936 261.533524 
L 101.681834 257.381713 
L 105.755213 252.992925 
L 109.749498 248.361913 
L 113.704235 243.433307 
L 117.579877 238.246932 
L 121.415972 232.740898 
L 125.212519 226.900137 
L 128.96952 220.709822 
L 132.686972 214.154227 
L 136.364878 207.217857 
L 140.042783 199.802412 
L 143.681141 191.963119 
L 147.319499 183.588593 
L 150.91831 174.742894 
L 154.517121 165.300476 
L 158.076384 155.335793 
L 161.635647 144.707301 
L 165.194911 133.371349 
L 168.754174 121.281903 
L 172.313437 108.390747 
L 175.872701 94.647577 
L 179.431964 80.004305 
L 182.991227 64.407931 
L 186.629585 47.444453 
L 191.414817 24.918545 
L 191.731196 24.887273 
L 426.088912 24.887273 
L 426.088912 24.887273 
" clip-path="url(#p0510ebed5a)" style="fill: none; stroke: #d55e00; stroke-width: 1.5; stroke-linecap: square"/>
   </g>
   <g id="patch_3">
    <path d="M 10.8 320.72 
L 10.8 10.8 
" style="fill: none; stroke: #000000; stroke-width: 0.8; stroke-linejoin: miter; stroke-linecap: square"/>
   </g>
   <g id="patch_4">
    <path d="M 445.864574 320.72 
L 445.864574 10.8 
" style="fill: none; stroke: #000000; stroke-width: 0.8; stroke-linejoin: miter; stroke-linecap: square"/>
   </g>
   <g id="patch_5">
    <path d="M 10.8 320.72 
L 445.864574 320.72 
" style="fill: none; stroke: #000000; stroke-width: 0.8; stroke-linejoin: miter; stroke-linecap: square"/>
   </g>
   <g id="patch_6">
    <path d="M 10.8 10.8 
L 445.864574 10.8 
" style="fill: none; stroke: #000000; stroke-width: 0.8; stroke-linejoin: miter; stroke-linecap: square"/>
   </g>
   <g id="text_2">
    <!-- $\theta_1$ -->
    <g style="fill: #0173b2" transform="translate(418.179438 197.499843) scale(0.25 -0.25)">
     <defs>
      <path id="DejaVuSans-Oblique-3b8" d="M 2913 2219 
L 925 2219 
Q 791 1284 928 888 
Q 1100 400 1566 400 
Q 2034 400 2391 891 
Q 2703 1322 2913 2219 
z
M 3009 2750 
Q 3094 3638 2984 3950 
Q 2813 4444 2353 4444 
Q 1875 4444 1525 3956 
Q 1250 3563 1034 2750 
L 3009 2750 
z
M 2444 4913 
Q 3194 4913 3494 4250 
Q 3794 3591 3566 2422 
Q 3341 1256 2781 594 
Q 2225 -72 1475 -72 
Q 722 -72 425 594 
Q 128 1256 353 2422 
Q 581 3591 1134 4250 
Q 1691 4913 2444 4913 
z
" transform="scale(0.015625)"/>
      <path id="DejaVuSans-31" d="M 794 531 
L 1825 531 
L 1825 4091 
L 703 3866 
L 703 4441 
L 1819 4666 
L 2450 4666 
L 2450 531 
L 3481 531 
L 3481 0 
L 794 0 
L 794 531 
z
" transform="scale(0.015625)"/>
     </defs>
     <use xlink:href="#DejaVuSans-Oblique-3b8" transform="translate(0 0.234375)"/>
     <use xlink:href="#DejaVuSans-31" transform="translate(61.181641 -16.171875) scale(0.7)"/>
    </g>
   </g>
   <g id="text_3">
    <!-- $\theta_2$ -->
    <g style="fill: #de8f05" transform="translate(418.179438 149.23789) scale(0.25 -0.25)">
     <defs>
      <path id="DejaVuSans-32" d="M 1228 531 
L 3431 531 
L 3431 0 
L 469 0 
L 469 531 
Q 828 903 1448 1529 
Q 2069 2156 2228 2338 
Q 2531 2678 2651 2914 
Q 2772 3150 2772 3378 
Q 2772 3750 2511 3984 
Q 2250 4219 1831 4219 
Q 1534 4219 1204 4116 
Q 875 4013 500 3803 
L 500 4441 
Q 881 4594 1212 4672 
Q 1544 4750 1819 4750 
Q 2544 4750 2975 4387 
Q 3406 4025 3406 3419 
Q 3406 3131 3298 2873 
Q 3191 2616 2906 2266 
Q 2828 2175 2409 1742 
Q 1991 1309 1228 531 
z
" transform="scale(0.015625)"/>
     </defs>
     <use xlink:href="#DejaVuSans-Oblique-3b8" transform="translate(0 0.234375)"/>
     <use xlink:href="#DejaVuSans-32" transform="translate(61.181641 -16.171875) scale(0.7)"/>
    </g>
   </g>
   <g id="text_4">
    <!-- $\theta_3$ -->
    <g style="fill: #029e73" transform="translate(418.179438 100.975937) scale(0.25 -0.25)">
     <defs>
      <path id="DejaVuSans-33" d="M 2597 2516 
Q 3050 2419 3304 2112 
Q 3559 1806 3559 1356 
Q 3559 666 3084 287 
Q 2609 -91 1734 -91 
Q 1441 -91 1130 -33 
Q 819 25 488 141 
L 488 750 
Q 750 597 1062 519 
Q 1375 441 1716 441 
Q 2309 441 2620 675 
Q 2931 909 2931 1356 
Q 2931 1769 2642 2001 
Q 2353 2234 1838 2234 
L 1294 2234 
L 1294 2753 
L 1863 2753 
Q 2328 2753 2575 2939 
Q 2822 3125 2822 3475 
Q 2822 3834 2567 4026 
Q 2313 4219 1838 4219 
Q 1578 4219 1281 4162 
Q 984 4106 628 3988 
L 628 4550 
Q 988 4650 1302 4700 
Q 1616 4750 1894 4750 
Q 2613 4750 3031 4423 
Q 3450 4097 3450 3541 
Q 3450 3153 3228 2886 
Q 3006 2619 2597 2516 
z
" transform="scale(0.015625)"/>
     </defs>
     <use xlink:href="#DejaVuSans-Oblique-3b8" transform="translate(0 0.234375)"/>
     <use xlink:href="#DejaVuSans-33" transform="translate(61.181641 -16.171875) scale(0.7)"/>
    </g>
   </g>
   <g id="text_5">
    <!-- $\theta_4$ -->
    <g style="fill: #d55e00" transform="translate(418.179438 52.713984) scale(0.25 -0.25)">
     <defs>
      <path id="DejaVuSans-34" d="M 2419 4116 
L 825 1625 
L 2419 1625 
L 2419 4116 
z
M 2253 4666 
L 3047 4666 
L 3047 1625 
L 3713 1625 
L 3713 1100 
L 3047 1100 
L 3047 0 
L 2419 0 
L 2419 1100 
L 313 1100 
L 313 1709 
L 2253 4666 
z
" transform="scale(0.015625)"/>
     </defs>
     <use xlink:href="#DejaVuSans-Oblique-3b8" transform="translate(0 0.234375)"/>
     <use xlink:href="#DejaVuSans-34" transform="translate(61.181641 -16.171875) scale(0.7)"/>
    </g>
   </g>
  </g>
 </g>
 <defs>
  <clipPath id="p0510ebed5a">
   <rect x="10.8" y="10.8" width="435.064574" height="309.92"/>
  </clipPath>
 </defs>
</svg>
