<?xml version="1.0" encoding="utf-8" standalone="no"?>
<!DOCTYPE svg PUBLIC "-//W3C//DTD SVG 1.1//EN"
  "http://www.w3.org/Graphics/SVG/1.1/DTD/svg11.dtd">
<svg xmlns:xlink="http://www.w3.org/1999/xlink" width="354.744pt" height="354.744pt" viewBox="0 0 354.744 354.744" xmlns="http://www.w3.org/2000/svg" version="1.1">
 <metadata>
  <rdf:RDF xmlns:dc="http://purl.org/dc/elements/1.1/" xmlns:cc="http://creativecommons.org/ns#" xmlns:rdf="http://www.w3.org/1999/02/22-rdf-syntax-ns#">
   <cc:Work>
    <dc:type rdf:resource="http://purl.org/dc/dcmitype/StillImage"/>
    <dc:date>2025-07-13T11:47:00.848164</dc:date>
    <dc:format>image/svg+xml</dc:format>
    <dc:creator>
     <cc:Agent>
      <dc:title>Matplotlib v3.9.1, https://matplotlib.org/</dc:title>
     </cc:Agent>
    </dc:creator>
   </cc:Work>
  </rdf:RDF>
 </metadata>
 <defs>
  <style type="text/css">*{stroke-linejoin: round; stroke-linecap: butt}</style>
 </defs>
 <g id="figure_1">
  <g id="patch_1">
   <path d="M 0 354.744 
L 354.744 354.744 
L 354.744 0 
L 0 0 
z
" style="fill: #ffffff"/>
  </g>
  <g id="axes_1">
   <g id="patch_2">
    <path d="M 53.6 151.672 
L 198.072 151.672 
L 198.072 7.2 
L 53.6 7.2 
z
" style="fill: #ffffff"/>
   </g>
   <g id="matplotlib.axis_1"/>
   <g id="patch_3">
    <path d="M 53.6 151.672 
L 198.072 151.672 
" style="fill: none; stroke: #000000; stroke-width: 0.8; stroke-linejoin: miter; stroke-linecap: square"/>
   </g>
  </g>
  <g id="axes_2">
   <g id="patch_4">
    <path d="M 53.6 301.144 
L 198.072 301.144 
L 198.072 156.672 
L 53.6 156.672 
z
" style="fill: #ffffff"/>
   </g>
   <g id="matplotlib.axis_2">
    <g id="text_1">
     <!-- $\Theta_i$ -->
     <g transform="translate(105.436 335.53775) scale(0.4 -0.4)">
      <defs>
       <path id="DejaVuSans-398" d="M 1416 2750 
L 3622 2750 
L 3622 2219 
L 1416 2219 
L 1416 2750 
z
M 2522 4238 
Q 1834 4238 1431 3725 
Q 1025 3213 1025 2328 
Q 1025 1447 1429 934 
Q 1834 422 2522 422 
Q 3209 422 3613 934 
Q 4013 1447 4013 2328 
Q 4013 3213 3613 3725 
Q 3209 4238 2522 4238 
z
M 2522 4750 
Q 3503 4750 4090 4092 
Q 4678 3434 4678 2328 
Q 4678 1225 4091 569 
Q 3503 -91 2522 -91 
Q 1538 -91 950 566 
Q 359 1222 359 2328 
Q 359 3434 950 4094 
Q 1538 4750 2522 4750 
z
" transform="scale(0.015625)"/>
       <path id="DejaVuSans-Oblique-69" d="M 1172 4863 
L 1747 4863 
L 1606 4134 
L 1031 4134 
L 1172 4863 
z
M 909 3500 
L 1484 3500 
L 800 0 
L 225 0 
L 909 3500 
z
" transform="scale(0.015625)"/>
      </defs>
      <use xlink:href="#DejaVuSans-398" transform="translate(0 0.78125)"/>
      <use xlink:href="#DejaVuSans-Oblique-69" transform="translate(79.667969 -15.625) scale(0.7)"/>
     </g>
    </g>
   </g>
   <g id="matplotlib.axis_3">
    <g id="text_2">
     <!-- $\Theta_j$ -->
     <g transform="translate(37.2 249.308) rotate(-90) scale(0.4 -0.4)">
      <defs>
       <path id="DejaVuSans-Oblique-6a" d="M 928 3500 
L 1503 3500 
L 813 -63 
L 809 -78 
Q 694 -675 544 -897 
Q 403 -1106 132 -1218 
Q -138 -1331 -506 -1331 
L -722 -1331 
L -628 -844 
L -481 -844 
Q -144 -844 -1 -703 
Q 141 -563 238 -63 
L 928 3500 
z
M 1197 4863 
L 1772 4863 
L 1631 4134 
L 1056 4134 
L 1197 4863 
z
" transform="scale(0.015625)"/>
      </defs>
      <use xlink:href="#DejaVuSans-398" transform="translate(0 0.78125)"/>
      <use xlink:href="#DejaVuSans-Oblique-6a" transform="translate(79.667969 -15.625) scale(0.7)"/>
     </g>
    </g>
   </g>
   <g id="QuadContourSet_1">
    <path d="M 163.224482 269.274848 
L 163.950472 269.625712 
L 164.676462 269.855324 
L 165.402452 269.893891 
L 166.057182 269.200442 
L 165.742074 268.474452 
L 165.402452 267.867139 
L 165.342859 267.748462 
L 164.899206 267.022472 
L 164.676462 266.700926 
L 164.42235 266.296482 
L 163.950472 265.619199 
L 163.919492 265.570492 
L 163.464564 264.844503 
L 163.224482 264.505059 
L 162.979926 264.118513 
L 162.498492 263.456147 
L 162.456945 263.392523 
L 161.988249 262.666533 
L 161.772503 262.372461 
L 161.490315 261.940543 
L 161.046513 261.363101 
L 160.944056 261.214553 
L 160.364573 260.488563 
L 160.320523 260.439011 
L 159.766395 259.762573 
L 159.594533 259.57335 
L 159.140921 259.036583 
L 158.868543 258.742182 
L 158.493587 258.310593 
L 158.142553 257.937082 
L 157.828768 257.584603 
L 157.416563 257.151685 
L 157.15006 256.858613 
L 156.690573 256.381092 
L 156.460473 256.132623 
L 155.964583 255.621454 
L 155.762574 255.406633 
L 155.238593 254.869694 
L 155.058584 254.680643 
L 154.512603 254.123305 
L 154.35044 253.954653 
L 153.786613 253.380216 
L 153.63984 253.228663 
L 153.060623 252.638702 
L 152.928257 252.502673 
L 152.334633 251.897333 
L 152.216935 251.776683 
L 151.608643 251.154949 
L 151.506884 251.050693 
L 150.882653 250.410666 
L 150.798846 250.324704 
L 150.156663 249.663897 
L 150.093274 249.598714 
L 149.430673 248.914374 
L 149.390309 248.872724 
L 148.704683 248.16218 
L 148.689774 248.146734 
L 147.991551 247.420744 
L 147.978693 247.407558 
L 147.294457 246.694754 
L 147.252704 246.651958 
L 146.596982 245.968764 
L 146.526714 245.896834 
L 145.89828 245.242774 
L 145.800724 245.143112 
L 145.19756 244.516784 
L 145.074734 244.39164 
L 144.49412 243.790794 
L 144.348744 243.643154 
L 143.787349 243.064804 
L 143.622754 242.898267 
L 143.076724 242.338814 
L 142.896764 242.157486 
L 142.361781 241.612824 
L 142.170774 241.421229 
L 141.6421 240.886834 
L 141.444784 240.689859 
L 140.917268 240.160844 
L 140.718794 239.963713 
L 140.186858 239.434854 
L 139.992804 239.243127 
L 139.450398 238.708864 
L 139.266814 238.528469 
L 138.707344 237.982874 
L 138.540824 237.82016 
L 137.957053 237.256884 
L 137.814834 237.118707 
L 137.198749 236.530894 
L 137.088844 236.424728 
L 136.431486 235.804905 
L 136.362854 235.738991 
L 135.654103 235.078915 
L 135.636864 235.062455 
L 134.910874 234.388257 
L 134.872295 234.352925 
L 134.184884 233.717846 
L 134.083956 233.626935 
L 133.458894 233.054539 
L 133.285476 232.900945 
L 132.732905 232.399249 
L 132.475311 232.174955 
L 132.006915 231.753179 
L 131.651521 231.448965 
L 131.280925 231.117874 
L 130.811682 230.722975 
L 130.554935 230.495301 
L 129.952771 229.996985 
L 129.828945 229.887945 
L 129.102955 229.294279 
L 129.073524 229.270995 
L 128.376965 228.695137 
L 128.184762 228.545005 
L 127.650975 228.106378 
L 127.279313 227.819015 
L 126.924985 227.528979 
L 126.356999 227.093025 
L 126.198995 226.963884 
L 125.473005 226.393519 
L 125.442107 226.367035 
L 124.747015 225.769169 
L 124.599385 225.641045 
L 124.021025 225.137466 
L 123.768205 224.915055 
L 123.295035 224.497541 
L 122.949266 224.189065 
L 122.569045 223.848899 
L 122.142526 223.463075 
L 121.843055 223.191435 
L 121.347329 222.737085 
L 121.117065 222.525428 
L 120.562541 222.011095 
L 120.391075 221.851513 
L 119.786693 221.285106 
L 119.665085 221.170634 
L 119.018119 220.559116 
L 118.939095 220.483974 
L 118.255066 219.833126 
L 118.213106 219.792872 
L 117.495785 219.107136 
L 117.487116 219.098755 
L 116.761126 218.389862 
L 116.752273 218.381146 
L 116.035136 217.675454 
L 116.014423 217.655156 
L 115.309146 216.961041 
L 115.276438 216.929166 
L 114.583156 216.247069 
L 114.537833 216.203176 
L 113.857166 215.533911 
L 113.798199 215.477186 
L 113.131176 214.821862 
L 113.057203 214.751196 
L 112.405186 214.111152 
L 112.314584 214.025206 
L 111.679196 213.401945 
L 111.570159 213.299216 
L 110.953206 212.694342 
L 110.823831 212.573226 
L 110.227216 211.988369 
L 110.075599 211.847236 
L 109.501226 211.283974 
L 109.325587 211.121246 
L 108.775236 210.581004 
L 108.574069 210.395256 
L 108.049246 209.879183 
L 107.821499 209.669266 
L 107.323256 209.178078 
L 107.068552 208.943276 
L 106.597266 208.477066 
L 106.316145 208.217286 
L 105.871276 207.775303 
L 105.565441 207.491296 
L 105.145286 207.071714 
L 104.817809 206.765307 
L 104.419296 206.365013 
L 104.074724 206.039317 
L 103.693307 205.653793 
L 103.337597 205.313327 
L 102.967317 204.93668 
L 102.607556 204.587337 
L 102.241327 204.212568 
L 101.885204 203.861347 
L 101.515337 203.480869 
L 101.170454 203.135357 
L 100.789347 202.741717 
L 100.462478 202.409367 
L 100.063357 201.996033 
L 99.759824 201.683377 
L 99.337367 201.245407 
L 99.060656 200.957387 
L 98.611377 200.491816 
L 98.363048 200.231397 
L 97.885387 199.737297 
L 97.665235 199.505407 
L 97.159397 198.983656 
L 96.965784 198.779417 
L 96.433407 198.232298 
L 96.263653 198.053427 
L 95.707417 197.484181 
L 95.558167 197.327437 
L 94.981427 196.73987 
L 94.848944 196.601447 
L 94.255437 195.999626 
L 94.135813 195.875457 
L 93.529447 195.263516 
L 93.418721 195.149467 
L 92.803457 194.531503 
L 92.69767 194.423477 
L 92.077467 193.80351 
L 91.972666 193.697487 
L 91.351477 193.079472 
L 91.243683 192.971497 
L 90.625487 192.359357 
L 90.510642 192.245508 
L 89.899497 191.643183 
L 89.773403 191.519518 
L 89.173508 190.931027 
L 89.031757 190.793528 
L 88.447518 190.223021 
L 88.285428 190.067538 
L 87.721528 189.51936 
L 87.534069 189.341548 
L 86.995538 188.820298 
L 86.777273 188.615558 
L 86.269548 188.126148 
L 86.01457 187.889568 
L 85.543558 187.437288 
L 85.245434 187.163578 
L 84.817568 186.754159 
L 84.469291 186.437588 
L 84.091578 186.077266 
L 83.685528 185.711598 
L 83.365588 185.407175 
L 82.89351 184.985608 
L 82.639598 184.744508 
L 82.092595 184.259618 
L 81.913608 184.089921 
L 81.28216 183.533628 
L 81.187618 183.444084 
L 80.461628 182.807638 
L 80.461628 182.807638 
L 79.735638 182.21738 
L 79.544011 182.081648 
L 79.009648 181.653359 
L 78.576939 181.355658 
L 78.283658 181.124396 
L 77.670493 181.355658 
L 77.90236 182.081648 
L 78.02324 182.807638 
L 77.557668 183.121812 
L 76.831678 183.239295 
L 76.544073 183.533628 
L 76.471912 184.259618 
L 76.676895 184.985608 
L 76.831678 185.281677 
L 77.035084 185.711598 
L 77.479474 186.437588 
L 77.557668 186.536494 
L 78.01315 187.163578 
L 78.283658 187.501246 
L 78.571493 187.889568 
L 79.009648 188.430887 
L 79.148909 188.615558 
L 79.735638 189.335158 
L 79.740525 189.341548 
L 80.338205 190.067538 
L 80.461628 190.211712 
L 80.939397 190.793528 
L 81.187618 191.086407 
L 81.541152 191.519518 
L 81.913608 191.964467 
L 82.140847 192.245508 
L 82.639598 192.850227 
L 82.73637 192.971497 
L 83.30448 193.697487 
L 83.365588 193.779122 
L 83.817772 194.423477 
L 84.091578 194.792732 
L 84.337675 195.149467 
L 84.817568 195.800289 
L 84.868723 195.875457 
L 85.358225 196.601447 
L 85.543558 196.85325 
L 85.857149 197.327437 
L 86.269548 197.87702 
L 86.388302 198.053427 
L 86.932016 198.779417 
L 86.995538 198.859617 
L 87.463234 199.505407 
L 87.721528 199.824091 
L 88.023467 200.231397 
L 88.447518 200.742307 
L 88.610875 200.957387 
L 89.173508 201.619374 
L 89.223331 201.683377 
L 89.853259 202.409367 
L 89.899497 202.458404 
L 90.497062 203.135357 
L 90.625487 203.269722 
L 91.157434 203.861347 
L 91.351477 204.061925 
L 91.831891 204.587337 
L 92.077467 204.838537 
L 92.518123 205.313327 
L 92.803457 205.602658 
L 93.213957 206.039317 
L 93.529447 206.357029 
L 93.91733 206.765307 
L 94.255437 207.104102 
L 94.626269 207.491296 
L 94.981427 207.846092 
L 95.338886 208.217286 
L 95.707417 208.585021 
L 96.053385 208.943276 
L 96.433407 209.322746 
L 96.768089 209.669266 
L 97.159397 210.060959 
L 97.48149 210.395256 
L 97.885387 210.801166 
L 98.192305 211.121246 
L 98.611377 211.544632 
L 98.899558 211.847236 
L 99.337367 212.292322 
L 99.602635 212.573226 
L 100.063357 213.044812 
L 100.301336 213.299216 
L 100.789347 213.80224 
L 100.995874 214.025206 
L 101.515337 214.564266 
L 101.686838 214.751196 
L 102.241327 215.33011 
L 102.375108 215.477186 
L 102.967317 216.098629 
L 103.061743 216.203176 
L 103.693307 216.868459 
L 103.747858 216.929166 
L 104.419296 217.638173 
L 104.434514 217.655156 
L 105.103681 218.381146 
L 105.145286 218.424553 
L 105.764398 219.107136 
L 105.871276 219.218633 
L 106.430358 219.833126 
L 106.597266 220.007102 
L 107.102048 220.559116 
L 107.323256 220.789357 
L 107.779643 221.285106 
L 108.049246 221.565175 
L 108.463097 222.011095 
L 108.775236 222.334613 
L 109.152215 222.737085 
L 109.501226 223.097913 
L 109.846716 223.463075 
L 110.227216 223.855432 
L 110.54627 224.189065 
L 110.953206 224.607595 
L 111.250525 224.915055 
L 111.679196 225.354859 
L 111.959116 225.641045 
L 112.405186 226.097701 
L 112.671667 226.367035 
L 113.131176 226.836612 
L 113.387782 227.093025 
L 113.857166 227.572107 
L 114.107029 227.819015 
L 114.583156 228.304746 
L 114.828905 228.545005 
L 115.309146 229.035159 
L 115.552806 229.270995 
L 116.035136 229.764095 
L 116.277966 229.996985 
L 116.761126 230.49249 
L 117.003379 230.722975 
L 117.487116 231.221556 
L 117.727699 231.448965 
L 118.213106 231.952932 
L 118.449086 232.174955 
L 118.939095 232.688899 
L 119.16499 232.900945 
L 119.665085 233.432732 
L 119.87184 233.626935 
L 120.391075 234.189265 
L 120.56456 234.352925 
L 121.117065 234.965863 
L 121.235828 235.078915 
L 121.843055 235.774175 
L 121.874856 235.804905 
L 122.494701 236.530894 
L 122.569045 236.619317 
L 123.110903 237.256884 
L 123.295035 237.476704 
L 123.72202 237.982874 
L 124.021025 238.33954 
L 124.331798 238.708864 
L 124.747015 239.2013 
L 124.944155 239.434854 
L 125.473005 240.0553 
L 125.562894 240.160844 
L 126.194056 240.886834 
L 126.198995 240.892008 
L 126.86612 241.612824 
L 126.924985 241.673894 
L 127.550297 242.338814 
L 127.650975 242.442206 
L 128.246447 243.064804 
L 128.376965 243.19744 
L 128.954528 243.790794 
L 129.102955 243.940022 
L 129.674632 244.516784 
L 129.828945 244.670263 
L 130.407013 245.242774 
L 130.554935 245.388318 
L 131.152116 245.968764 
L 131.280925 246.094156 
L 131.910618 246.694754 
L 132.006915 246.787519 
L 132.683465 247.420744 
L 132.732905 247.467887 
L 133.458894 248.128845 
L 133.479648 248.146734 
L 134.184884 248.751675 
L 134.329141 248.872724 
L 134.910874 249.361437 
L 135.200509 249.598714 
L 135.636864 249.958833 
L 136.09289 250.324704 
L 136.362854 250.544286 
L 137.005226 251.050693 
L 137.088844 251.11795 
L 137.814834 251.489802 
L 138.42441 251.776683 
L 138.540824 251.824159 
L 139.266814 251.952034 
L 139.992804 252.419983 
L 140.110654 252.502673 
L 140.718794 253.000438 
L 141.059665 253.228663 
L 141.444784 253.535818 
L 142.106887 253.954653 
L 142.170774 254.003959 
L 142.896764 254.593248 
L 143.019134 254.680643 
L 143.622754 255.191249 
L 143.936821 255.406633 
L 144.348744 255.750085 
L 144.936621 256.132623 
L 145.074734 256.245567 
L 145.800724 256.776807 
L 145.918018 256.858613 
L 146.526714 257.351038 
L 146.871066 257.584603 
L 147.252704 257.891025 
L 147.892977 258.310593 
L 147.978693 258.378752 
L 148.704683 258.918205 
L 148.874214 259.036583 
L 149.430673 259.473048 
L 149.849338 259.762573 
L 150.156663 260.00434 
L 150.864788 260.488563 
L 150.882653 260.502658 
L 151.608643 261.078425 
L 151.792809 261.214553 
L 152.334633 261.652107 
L 152.724522 261.940543 
L 153.060623 262.214342 
L 153.671676 262.666533 
L 153.786613 262.760975 
L 154.512603 263.325469 
L 154.601644 263.392523 
L 155.238593 263.914744 
L 155.509329 264.118513 
L 155.964583 264.4938 
L 156.430998 264.844503 
L 156.690573 265.059611 
L 157.370977 265.570492 
L 157.416563 265.60846 
L 158.142553 266.144969 
L 158.364005 266.296482 
L 158.868543 266.670908 
L 159.379332 267.022472 
L 159.594533 267.183586 
L 160.320523 267.657295 
L 160.482938 267.748462 
L 161.046513 268.074861 
L 161.722615 268.474452 
L 161.772503 268.504921 
L 162.498492 268.894464 
L 163.089223 269.200442 
L 163.224482 269.274848 
z
" clip-path="url(#pbbf44a400d)" style="fill: none; stroke: #0072b2; stroke-width: 1.5"/>
    <path d="M 158.142553 262.85574 
L 158.868543 263.001083 
L 159.098477 262.666533 
L 158.86981 261.940543 
L 158.868543 261.938527 
L 158.429627 261.214553 
L 158.142553 260.766537 
L 157.970312 260.488563 
L 157.475109 259.762573 
L 157.416563 259.689758 
L 156.920146 259.036583 
L 156.690573 258.757485 
L 156.342299 258.310593 
L 155.964583 257.861635 
L 155.74326 257.584603 
L 155.238593 256.997712 
L 155.124756 256.858613 
L 154.512603 256.161336 
L 154.488558 256.132623 
L 153.839535 255.406633 
L 153.786613 255.350959 
L 153.176908 254.680643 
L 153.060623 254.559576 
L 152.501656 253.954653 
L 152.334633 253.782247 
L 151.816008 253.228663 
L 151.608643 253.016088 
L 151.121889 252.502673 
L 150.882653 252.258744 
L 150.420952 251.776683 
L 150.156663 251.508294 
L 149.714606 251.050693 
L 149.430673 250.76317 
L 149.004042 250.324704 
L 148.704683 250.022104 
L 148.290249 249.598714 
L 147.978693 249.284078 
L 147.574035 248.872724 
L 147.252704 248.548289 
L 146.856042 248.146734 
L 146.526714 247.814119 
L 146.13676 247.420744 
L 145.800724 247.081111 
L 145.416539 246.694754 
L 145.074734 246.348957 
L 144.695604 245.968764 
L 144.348744 245.617481 
L 143.974057 245.242774 
L 143.622754 244.886633 
L 143.251885 244.516784 
L 142.896764 244.156486 
L 142.528958 243.790794 
L 142.170774 243.42724 
L 141.805016 243.064804 
L 141.444784 242.699234 
L 141.079661 242.338814 
L 140.718794 241.972953 
L 140.352331 241.612824 
L 139.992804 241.249051 
L 139.622275 240.886834 
L 139.266814 240.528358 
L 138.888535 240.160844 
L 138.540824 239.811879 
L 138.149924 239.434854 
L 137.814834 239.100783 
L 137.405028 238.708864 
L 137.088844 238.396352 
L 136.652236 237.982874 
L 136.362854 237.699909 
L 135.889805 237.256884 
L 135.636864 237.01271 
L 135.115969 236.530894 
L 134.910874 236.335815 
L 134.329101 235.804905 
L 134.184884 235.66996 
L 133.527909 235.078915 
L 133.458894 235.015456 
L 132.732905 234.364925 
L 132.719715 234.352925 
L 132.006915 233.696901 
L 131.929831 233.626935 
L 131.280925 233.034013 
L 131.134212 232.900945 
L 130.554935 232.374762 
L 130.33485 232.174955 
L 129.828945 231.717346 
L 129.534104 231.448965 
L 129.102955 231.059843 
L 128.73444 230.722975 
L 128.376965 230.400387 
L 127.938159 229.996985 
L 127.650975 229.737324 
L 127.147185 229.270995 
L 126.924985 229.069317 
L 126.362931 228.545005 
L 126.198995 228.395394 
L 125.586257 227.819015 
L 125.473005 227.714963 
L 124.817492 227.093025 
L 124.747015 227.027779 
L 124.056509 226.367035 
L 124.021025 226.333918 
L 123.302812 225.641045 
L 123.295035 225.633727 
L 122.569045 224.923511 
L 122.560682 224.915055 
L 121.843055 224.207488 
L 121.824893 224.189065 
L 121.117065 223.488691 
L 121.091862 223.463075 
L 120.391075 222.767776 
L 120.360897 222.737085 
L 119.665085 222.045443 
L 119.631289 222.011095 
L 118.939095 221.322398 
L 118.902328 221.285106 
L 118.213106 220.599332 
L 118.173323 220.559116 
L 117.487116 219.876896 
L 117.443621 219.833126 
L 116.761126 219.155685 
L 116.712608 219.107136 
L 116.035136 218.43623 
L 115.979719 218.381146 
L 115.309146 217.718994 
L 115.244434 217.655156 
L 114.583156 217.004377 
L 114.506283 216.929166 
L 113.857166 216.292717 
L 113.764836 216.203176 
L 113.131176 215.584304 
L 113.019702 215.477186 
L 112.405186 214.879386 
L 112.270525 214.751196 
L 111.679196 214.178182 
L 111.516979 214.025206 
L 110.953206 213.480892 
L 110.758769 213.299216 
L 110.227216 212.787704 
L 109.995625 212.573226 
L 109.501226 212.098805 
L 109.227307 211.847236 
L 108.775236 211.414382 
L 108.453611 211.121246 
L 108.049246 210.734628 
L 107.674374 210.395256 
L 107.323256 210.059738 
L 106.889493 209.669266 
L 106.597266 209.389906 
L 106.098941 208.943276 
L 105.871276 208.725306 
L 105.302798 208.217286 
L 105.145286 208.066075 
L 104.501295 207.491296 
L 104.419296 207.412267 
L 103.69486 206.765307 
L 103.693307 206.763802 
L 102.967317 206.09455 
L 102.903795 206.039317 
L 102.241327 205.425113 
L 102.112819 205.313327 
L 101.515337 204.755852 
L 101.321873 204.587337 
L 100.789347 204.086754 
L 100.531127 203.861347 
L 100.063357 203.417896 
L 99.740618 203.135357 
L 99.337367 202.749461 
L 98.950235 202.409367 
L 98.611377 202.081763 
L 98.159694 201.683377 
L 97.885387 201.415272 
L 97.368496 200.957387 
L 97.159397 200.750665 
L 96.575879 200.231397 
L 96.433407 200.088878 
L 95.780726 199.505407 
L 95.707417 199.431205 
L 94.981427 198.779417 
L 94.981427 198.779417 
L 94.255437 198.105108 
L 94.191704 198.053427 
L 93.529447 197.437324 
L 93.391264 197.327437 
L 92.803457 196.781091 
L 92.571448 196.601447 
L 92.077467 196.144518 
L 91.716701 195.875457 
L 91.351477 195.541401 
L 90.796252 195.149467 
L 90.625487 194.996732 
L 89.899497 194.500877 
L 89.766796 194.423477 
L 89.173508 194.00876 
L 88.583915 193.697487 
L 88.447518 193.609139 
L 87.721528 193.250852 
L 87.078614 192.971497 
L 86.995538 192.93134 
L 86.269548 192.751773 
L 85.96423 192.971497 
L 86.15413 193.697487 
L 86.269548 193.883675 
L 86.583178 194.423477 
L 86.995538 195.088839 
L 87.031102 195.149467 
L 87.490204 195.875457 
L 87.721528 196.252832 
L 87.932708 196.601447 
L 88.36725 197.327437 
L 88.447518 197.452497 
L 88.822788 198.053427 
L 89.173508 198.625918 
L 89.264463 198.779417 
L 89.725487 199.505407 
L 89.899497 199.751591 
L 90.212643 200.231397 
L 90.625487 200.811271 
L 90.721085 200.957387 
L 91.24651 201.683377 
L 91.351477 201.811207 
L 91.795425 202.409367 
L 92.077467 202.746626 
L 92.37266 203.135357 
L 92.803457 203.641559 
L 92.974227 203.861347 
L 93.529447 204.503087 
L 93.596394 204.587337 
L 94.227539 205.313327 
L 94.255437 205.343669 
L 94.850739 206.039317 
L 94.981427 206.18006 
L 95.490368 206.765307 
L 95.707417 206.997191 
L 96.143217 207.491296 
L 96.433407 207.799415 
L 96.806436 208.217286 
L 97.159397 208.590434 
L 97.477486 208.943276 
L 97.885387 209.373428 
L 98.154093 209.669266 
L 98.611377 210.151156 
L 98.834217 210.395256 
L 99.337367 210.926034 
L 99.51604 211.121246 
L 100.063357 211.700179 
L 100.197974 211.847236 
L 100.789347 212.475411 
L 100.878689 212.573226 
L 101.515337 213.253231 
L 101.557155 213.299216 
L 102.229236 214.025206 
L 102.241327 214.03808 
L 102.881455 214.751196 
L 102.967317 214.843229 
L 103.531904 215.477186 
L 103.693307 215.651171 
L 104.18145 216.203176 
L 104.419296 216.460663 
L 104.831291 216.929166 
L 105.145286 217.269965 
L 105.482805 217.655156 
L 105.871276 218.077067 
L 106.137406 218.381146 
L 106.597266 218.87993 
L 106.796403 219.107136 
L 107.323256 219.676718 
L 107.460908 219.833126 
L 108.049246 220.465966 
L 108.131779 220.559116 
L 108.775236 221.246667 
L 108.809606 221.285106 
L 109.492179 222.011095 
L 109.501226 222.020477 
L 110.17119 222.737085 
L 110.227216 222.794849 
L 110.859802 223.463075 
L 110.953206 223.558792 
L 111.557888 224.189065 
L 111.679196 224.3126 
L 112.265346 224.915055 
L 112.405186 225.056567 
L 112.982136 225.641045 
L 113.131176 225.79093 
L 113.708314 226.367035 
L 113.857166 226.515828 
L 114.444069 227.093025 
L 114.583156 227.231259 
L 115.189744 227.819015 
L 115.309146 227.937049 
L 115.945871 228.545005 
L 116.035136 228.632819 
L 116.713203 229.270995 
L 116.761126 229.31794 
L 117.487116 229.993864 
L 117.49046 229.996985 
L 118.213106 230.684447 
L 118.254934 230.722975 
L 118.939095 231.370557 
L 119.025214 231.448965 
L 119.665085 232.05227 
L 119.801206 232.174955 
L 120.391075 232.72963 
L 120.582772 232.900945 
L 121.117065 233.402664 
L 121.369695 233.626935 
L 121.843055 234.071415 
L 122.161659 234.352925 
L 122.569045 234.735958 
L 122.958212 235.078915 
L 123.295035 235.39644 
L 123.75876 235.804905 
L 124.021025 236.053108 
L 124.562556 236.530894 
L 124.747015 236.706334 
L 125.368733 237.256884 
L 125.473005 237.356636 
L 126.176359 237.982874 
L 126.198995 238.004666 
L 126.924985 238.678568 
L 126.958696 238.708864 
L 127.650975 239.364124 
L 127.72928 239.434854 
L 128.376965 240.051174 
L 128.497765 240.160844 
L 129.102955 240.739409 
L 129.264588 240.886834 
L 129.828945 241.428316 
L 130.030479 241.612824 
L 130.554935 242.11717 
L 130.796453 242.338814 
L 131.280925 242.805043 
L 131.563785 243.064804 
L 132.006915 243.490835 
L 132.333979 243.790794 
L 132.732905 244.173303 
L 133.108732 244.516784 
L 133.458894 244.851104 
L 133.889905 245.242774 
L 134.184884 245.522805 
L 134.679528 245.968764 
L 134.910874 246.18688 
L 135.479829 246.694754 
L 135.636864 246.841661 
L 136.293319 247.420744 
L 136.362854 247.48525 
L 137.088844 248.123034 
L 137.116719 248.146734 
L 137.814834 248.766238 
L 137.941631 248.872724 
L 138.540824 249.399044 
L 138.781738 249.598714 
L 139.266814 250.020537 
L 139.63895 250.324704 
L 139.992804 250.629464 
L 140.515686 251.050693 
L 140.718794 251.224044 
L 141.415163 251.776683 
L 141.444784 251.801753 
L 142.170774 252.380236 
L 142.333015 252.502673 
L 142.896764 252.949756 
L 143.270083 253.228663 
L 143.622754 253.506472 
L 144.228358 253.954653 
L 144.348744 254.049003 
L 145.074734 254.595603 
L 145.19064 254.680643 
L 145.800724 255.15015 
L 146.150765 255.406633 
L 146.526714 255.69588 
L 147.12296 256.132623 
L 147.252704 256.232614 
L 147.978693 256.78281 
L 148.080029 256.858613 
L 148.704683 257.349606 
L 149.018539 257.584603 
L 149.430673 257.909455 
L 149.965835 258.310593 
L 150.156663 258.461537 
L 150.882653 259.001712 
L 150.934588 259.036583 
L 151.608643 259.516832 
L 151.975293 259.762573 
L 152.334633 260.018759 
L 153.036343 260.488563 
L 153.060623 260.505893 
L 153.786613 260.764061 
L 154.512603 260.979481 
L 155.238593 261.194096 
L 155.274037 261.214553 
L 155.964583 261.635048 
L 156.493938 261.940543 
L 156.690573 262.061334 
L 157.416563 262.46626 
L 157.799171 262.666533 
L 158.142553 262.85574 
z
" clip-path="url(#pbbf44a400d)" style="fill: none; stroke: #0072b2; stroke-width: 1.5"/>
    <path d="M 153.060623 257.602279 
L 153.091911 257.584603 
L 153.060623 257.45855 
L 152.937651 256.858613 
L 152.536997 256.132623 
L 152.334633 255.848348 
L 152.047249 255.406633 
L 151.608643 254.820157 
L 151.513416 254.680643 
L 150.941992 253.954653 
L 150.882653 253.885906 
L 150.345653 253.228663 
L 150.156663 253.014833 
L 149.728813 252.502673 
L 149.430673 252.172198 
L 149.093642 251.776683 
L 148.704683 251.353029 
L 148.442461 251.050693 
L 147.978693 250.553006 
L 147.777539 250.324704 
L 147.252704 249.768525 
L 147.100954 249.598714 
L 146.526714 248.996682 
L 146.414504 248.872724 
L 145.800724 248.235207 
L 145.719672 248.146734 
L 145.074734 247.482372 
L 145.017633 247.420744 
L 144.348744 246.736889 
L 144.309275 246.694754 
L 143.622754 245.997812 
L 143.59525 245.968764 
L 142.896764 245.264456 
L 142.876015 245.242774 
L 142.170774 244.536319 
L 142.15188 244.516784 
L 141.444784 243.813033 
L 141.423046 243.790794 
L 140.718794 243.094312 
L 140.689645 243.064804 
L 139.992804 242.379932 
L 139.951763 242.338814 
L 139.266814 241.669703 
L 139.209465 241.612824 
L 138.540824 240.963457 
L 138.462819 240.886834 
L 137.814834 240.261032 
L 137.71191 240.160844 
L 137.088844 239.562262 
L 136.956864 239.434854 
L 136.362854 238.866957 
L 136.197871 238.708864 
L 135.636864 238.174888 
L 135.435209 237.982874 
L 134.910874 237.48576 
L 134.669271 237.256884 
L 134.184884 236.799192 
L 133.900589 236.530894 
L 133.458894 236.114695 
L 133.129849 235.804905 
L 132.732905 235.431655 
L 132.357894 235.078915 
L 132.006915 234.749337 
L 131.585705 234.352925 
L 131.280925 234.066894 
L 130.814361 233.626935 
L 130.554935 233.383405 
L 130.044982 232.900945 
L 129.828945 232.697916 
L 129.27865 232.174955 
L 129.102955 232.009508 
L 128.516335 231.448965 
L 128.376965 231.317349 
L 127.758824 230.722975 
L 127.650975 230.620755 
L 127.006669 229.996985 
L 126.924985 229.919229 
L 126.260166 229.270995 
L 126.198995 229.212482 
L 125.519349 228.545005 
L 125.473005 228.500442 
L 124.784011 227.819015 
L 124.747015 227.783247 
L 124.053738 227.093025 
L 124.021025 227.061226 
L 123.327948 226.367035 
L 123.295035 226.334876 
L 122.605928 225.641045 
L 122.569045 225.604834 
L 121.886875 224.915055 
L 121.843055 224.87185 
L 121.16993 224.189065 
L 121.117065 224.136757 
L 120.454204 223.463075 
L 120.391075 223.400441 
L 119.738802 222.737085 
L 119.665085 222.66381 
L 119.022844 222.011095 
L 118.939095 221.92777 
L 118.305474 221.285106 
L 118.213106 221.1932 
L 117.585876 220.559116 
L 117.487116 220.460929 
L 116.863276 219.833126 
L 116.761126 219.731732 
L 116.136944 219.107136 
L 116.035136 219.006314 
L 115.406192 218.381146 
L 115.309146 218.285318 
L 114.670369 217.655156 
L 114.583156 217.569327 
L 113.928852 216.929166 
L 113.857166 216.858879 
L 113.181039 216.203176 
L 113.131176 216.154476 
L 112.426339 215.477186 
L 112.405186 215.456608 
L 111.679196 214.764722 
L 111.664832 214.751196 
L 110.953206 214.077409 
L 110.897132 214.025206 
L 110.227216 213.395748 
L 110.122376 213.299216 
L 109.501226 212.719625 
L 109.340563 212.573226 
L 108.775236 212.048925 
L 108.551756 211.847236 
L 108.049246 211.383551 
L 107.756069 211.121246 
L 107.323256 210.723443 
L 106.95364 210.395256 
L 106.597266 210.068595 
L 106.144611 209.669266 
L 105.871276 209.419075 
L 105.329092 208.943276 
L 105.145286 208.775048 
L 104.507123 208.217286 
L 104.419296 208.136801 
L 103.693307 207.504484 
L 103.67781 207.491296 
L 102.967317 206.873124 
L 102.840542 206.765307 
L 102.241327 206.241835 
L 102.003187 206.039317 
L 101.515337 205.611009 
L 101.165373 205.313327 
L 100.789347 204.981317 
L 100.326269 204.587337 
L 100.063357 204.353768 
L 99.484525 203.861347 
L 99.337367 203.729769 
L 98.638191 203.135357 
L 98.611377 203.111224 
L 97.885387 202.507239 
L 97.761049 202.409367 
L 97.159397 201.911636 
L 96.867626 201.683377 
L 96.433407 201.324414 
L 95.960428 200.957387 
L 95.707417 200.748601 
L 95.033861 200.231397 
L 94.981427 200.188264 
L 94.255437 199.714277 
L 93.888759 199.505407 
L 93.529447 199.287831 
L 92.803457 199.060343 
L 92.541249 199.505407 
L 92.715793 200.231397 
L 92.803457 200.598738 
L 92.891166 200.957387 
L 93.049655 201.683377 
L 93.327772 202.409367 
L 93.529447 202.763089 
L 93.72367 203.135357 
L 94.181641 203.861347 
L 94.255437 203.955012 
L 94.711971 204.587337 
L 94.981427 204.921042 
L 95.272585 205.313327 
L 95.707417 205.839284 
L 95.860014 206.039317 
L 96.433407 206.717784 
L 96.470631 206.765307 
L 97.095288 207.491296 
L 97.159397 207.560961 
L 97.732191 208.217286 
L 97.885387 208.382519 
L 98.381334 208.943276 
L 98.611377 209.189985 
L 99.039977 209.669266 
L 99.337367 209.986974 
L 99.705656 210.395256 
L 100.063357 210.776635 
L 100.376147 211.121246 
L 100.789347 211.561738 
L 101.049447 211.847236 
L 101.515337 212.34472 
L 101.723778 212.573226 
L 102.241327 213.127713 
L 102.397606 213.299216 
L 102.967317 213.912522 
L 103.069678 214.025206 
L 103.693307 214.700592 
L 103.739053 214.751196 
L 104.400052 215.477186 
L 104.419296 215.498322 
L 105.041047 216.203176 
L 105.145286 216.31835 
L 105.679942 216.929166 
L 105.871276 217.141539 
L 106.318027 217.655156 
L 106.597266 217.965929 
L 106.956906 218.381146 
L 107.323256 218.78904 
L 107.598332 219.107136 
L 108.049246 219.608174 
L 108.244039 219.833126 
L 108.775236 220.420728 
L 108.895606 220.559116 
L 109.501226 221.224468 
L 109.554366 221.285106 
L 110.220086 222.011095 
L 110.227216 222.018587 
L 110.885425 222.737085 
L 110.953206 222.807613 
L 111.562381 223.463075 
L 111.679196 223.583399 
L 112.250863 224.189065 
L 112.405186 224.346388 
L 112.950687 224.915055 
L 113.131176 225.097163 
L 113.661632 225.641045 
L 113.857166 225.836343 
L 114.383489 226.367035 
L 114.583156 226.564521 
L 115.116086 227.093025 
L 115.309146 227.282214 
L 115.859319 227.819015 
L 116.035136 227.989825 
L 116.613153 228.545005 
L 116.761126 228.687633 
L 117.377637 229.270995 
L 117.487116 229.375779 
L 118.152891 229.996985 
L 118.213106 230.054268 
L 118.939095 230.722975 
L 118.939095 230.722975 
L 119.665085 231.400833 
L 119.71758 231.448965 
L 120.391075 232.07432 
L 120.501933 232.174955 
L 121.117065 232.743842 
L 121.291544 232.900945 
L 121.843055 233.409766 
L 122.085756 233.626935 
L 122.569045 234.072437 
L 122.883872 234.352925 
L 123.295035 234.732186 
L 123.685169 235.078915 
L 124.021025 235.389346 
L 124.488908 235.804905 
L 124.747015 236.044256 
L 125.294366 236.530894 
L 125.473005 236.697266 
L 126.100871 237.256884 
L 126.198995 237.348735 
L 126.907841 237.982874 
L 126.924985 237.999011 
L 127.650975 238.659666 
L 127.706678 238.708864 
L 128.376965 239.324293 
L 128.50176 239.434854 
L 129.102955 239.989711 
L 129.295558 240.160844 
L 129.828945 240.655364 
L 130.088826 240.886834 
L 130.554935 241.320525 
L 130.882577 241.612824 
L 131.280925 241.984316 
L 131.678055 242.338814 
L 132.006915 242.645736 
L 132.476706 243.064804 
L 132.732905 243.303686 
L 133.280147 243.790794 
L 133.458894 243.957004 
L 134.090128 244.516784 
L 134.184884 244.604498 
L 134.908506 245.242774 
L 134.910874 245.244953 
L 135.636864 245.886967 
L 135.734676 245.968764 
L 136.362854 246.519595 
L 136.574494 246.694754 
L 137.088844 247.141192 
L 137.430396 247.420744 
L 137.814834 247.750635 
L 138.304454 248.146734 
L 138.540824 248.347096 
L 139.198382 248.872724 
L 139.266814 248.930002 
L 139.992804 249.517897 
L 140.097869 249.598714 
L 140.718794 250.103024 
L 141.0101 250.324704 
L 141.444784 250.673694 
L 141.944982 251.050693 
L 142.170774 251.230006 
L 142.896764 251.773398 
L 142.90112 251.776683 
L 143.622754 252.346948 
L 143.829964 252.502673 
L 144.348744 252.911235 
L 144.772237 253.228663 
L 145.074734 253.466274 
L 145.727431 253.954653 
L 145.800724 254.012125 
L 146.526714 254.53488 
L 146.740618 254.680643 
L 147.252704 255.043861 
L 147.786116 255.406633 
L 147.978693 255.543472 
L 148.704683 255.916592 
L 149.430673 256.1224 
L 149.521561 256.132623 
L 150.156663 256.203926 
L 150.882653 256.567345 
L 151.41432 256.858613 
L 151.608643 256.966661 
L 152.334633 257.285602 
L 153.018762 257.584603 
L 153.060623 257.602279 
z
" clip-path="url(#pbbf44a400d)" style="fill: none; stroke: #0072b2; stroke-width: 1.5"/>
    <path d="M 147.252704 252.744629 
L 147.978693 252.97255 
L 148.14948 252.502673 
L 147.978693 252.274838 
L 147.64383 251.776683 
L 147.252704 251.274298 
L 147.095349 251.050693 
L 146.526714 250.342971 
L 146.513348 250.324704 
L 145.905077 249.598714 
L 145.800724 249.484846 
L 145.277461 248.872724 
L 145.074734 248.654148 
L 144.633571 248.146734 
L 144.348744 247.842963 
L 143.975782 247.420744 
L 143.622754 247.048021 
L 143.305969 246.694754 
L 142.896764 246.266833 
L 142.625598 245.968764 
L 142.170774 245.497492 
L 141.935805 245.242774 
L 141.444784 244.738514 
L 141.237479 244.516784 
L 140.718794 243.988714 
L 140.531328 243.790794 
L 139.992804 243.247118 
L 139.817941 243.064804 
L 139.266814 242.512885 
L 139.097836 242.338814 
L 138.540824 241.785269 
L 138.371502 241.612824 
L 137.814834 241.063579 
L 137.639419 240.886834 
L 137.088844 240.347159 
L 136.902087 240.160844 
L 136.362854 239.635381 
L 136.160033 239.434854 
L 135.636864 238.927632 
L 135.41382 238.708864 
L 134.910874 238.223311 
L 134.664047 237.982874 
L 134.184884 237.521823 
L 133.911352 237.256884 
L 133.458894 236.822576 
L 133.156412 236.530894 
L 132.732905 236.124974 
L 132.399935 235.804905 
L 132.006915 235.42841 
L 131.642658 235.078915 
L 131.280925 234.732268 
L 130.885337 234.352925 
L 130.554935 234.035913 
L 130.128738 233.626935 
L 129.828945 233.338704 
L 129.373616 232.900945 
L 129.102955 232.639993 
L 128.620697 232.174955 
L 128.376965 231.939146 
L 127.870653 231.448965 
L 127.650975 231.235558 
L 127.124075 230.722975 
L 126.924985 230.528679 
L 126.381448 229.996985 
L 126.198995 229.818039 
L 125.64312 229.270995 
L 125.473005 229.103276 
L 124.909292 228.545005 
L 124.747015 228.384162 
L 124.179992 227.819015 
L 124.021025 227.660624 
L 123.455079 227.093025 
L 123.295035 226.932765 
L 122.734233 226.367035 
L 122.569045 226.200874 
L 122.01697 225.641045 
L 121.843055 225.465428 
L 121.302648 224.915055 
L 121.117065 224.727088 
L 120.590491 224.189065 
L 120.391075 223.986682 
L 119.879612 223.463075 
L 119.665085 223.245171 
L 119.169039 222.737085 
L 118.939095 222.503618 
L 118.457745 222.011095 
L 118.213106 221.763135 
L 117.74468 221.285106 
L 117.487116 221.02484 
L 117.028797 220.559116 
L 116.761126 220.289801 
L 116.309084 219.833126 
L 116.035136 219.559001 
L 115.584584 219.107136 
L 115.309146 218.833304 
L 114.854417 218.381146 
L 114.583156 218.113438 
L 114.117787 217.655156 
L 113.857166 217.399987 
L 113.373999 216.929166 
L 113.131176 216.693402 
L 112.622455 216.203176 
L 112.405186 215.994013 
L 111.862658 215.477186 
L 111.679196 215.302056 
L 111.094204 214.751196 
L 110.953206 214.617695 
L 110.316777 214.025206 
L 110.227216 213.941054 
L 109.530137 213.299216 
L 109.501226 213.272239 
L 108.775236 212.619243 
L 108.723182 212.573226 
L 108.049246 211.978431 
L 107.899371 211.847236 
L 107.323256 211.342623 
L 107.068237 211.121246 
L 106.597266 210.711043 
L 106.231008 210.395256 
L 105.871276 210.083086 
L 105.388782 209.669266 
L 105.145286 209.458341 
L 104.542445 208.943276 
L 104.419296 208.836604 
L 103.693307 208.217994 
L 103.69243 208.217286 
L 102.967317 207.619106 
L 102.808271 207.491296 
L 102.241327 207.02422 
L 101.918056 206.765307 
L 101.515337 206.433627 
L 101.021739 206.039317 
L 100.789347 205.847831 
L 100.118796 205.313327 
L 100.063357 205.267603 
L 99.337367 204.723367 
L 99.129984 204.587337 
L 98.611377 204.217291 
L 98.056637 203.861347 
L 97.885387 203.741926 
L 97.159397 203.388488 
L 96.433407 203.319933 
L 96.087913 203.861347 
L 96.092255 204.587337 
L 96.363934 205.313327 
L 96.433407 205.414088 
L 96.822789 206.039317 
L 97.159397 206.504592 
L 97.330075 206.765307 
L 97.880001 207.491296 
L 97.885387 207.497434 
L 98.476688 208.217286 
L 98.611377 208.368485 
L 99.093215 208.943276 
L 99.337367 209.213963 
L 99.725861 209.669266 
L 100.063357 210.03979 
L 100.371245 210.395256 
L 100.789347 210.850985 
L 101.026316 211.121246 
L 101.515337 211.651796 
L 101.688342 211.847236 
L 102.241327 212.44582 
L 102.354893 212.573226 
L 102.967317 213.236101 
L 103.023831 213.299216 
L 103.693307 214.025206 
L 103.693307 214.025206 
L 104.349607 214.751196 
L 104.419296 214.827186 
L 105.003328 215.477186 
L 105.145286 215.633097 
L 105.654039 216.203176 
L 105.871276 216.44346 
L 106.30177 216.929166 
L 106.597266 217.258114 
L 106.946984 217.655156 
L 107.323256 218.076208 
L 107.590515 218.381146 
L 108.049246 218.896261 
L 108.233493 219.107136 
L 108.775236 219.716278 
L 108.877257 219.833126 
L 109.501226 220.533929 
L 109.523261 220.559116 
L 110.163096 221.285106 
L 110.227216 221.354919 
L 110.808251 222.011095 
L 110.953206 222.167231 
L 111.464333 222.737085 
L 111.679196 222.965713 
L 112.132009 223.463075 
L 112.405186 223.749932 
L 112.811648 224.189065 
L 113.131176 224.519975 
L 113.503376 224.915055 
L 113.857166 225.276311 
L 114.207131 225.641045 
L 114.583156 226.019651 
L 114.92272 226.367035 
L 115.309146 226.750834 
L 115.649854 227.093025 
L 116.035136 227.470738 
L 116.388179 227.819015 
L 116.761126 228.180218 
L 117.137301 228.545005 
L 117.487116 228.880065 
L 117.896793 229.270995 
L 118.213106 229.570987 
L 118.666199 229.996985 
L 118.939095 230.253601 
L 119.445039 230.722975 
L 119.665085 230.928433 
L 120.232797 231.448965 
L 120.391075 231.59593 
L 121.028921 232.174955 
L 121.117065 232.256473 
L 121.832816 232.900945 
L 121.843055 232.910391 
L 122.569045 233.563147 
L 122.641279 233.626935 
L 123.295035 234.213646 
L 123.453441 234.352925 
L 124.021025 234.862009 
L 124.268325 235.078915 
L 124.747015 235.508782 
L 125.084901 235.804905 
L 125.473005 236.154374 
L 125.902372 236.530894 
L 126.198995 236.799041 
L 126.72021 237.256884 
L 126.924985 237.442891 
L 127.53818 237.982874 
L 127.650975 238.085876 
L 128.356341 238.708864 
L 128.376965 238.7278 
L 129.102955 239.371447 
L 129.175653 239.434854 
L 129.828945 240.017212 
L 129.993576 240.160844 
L 130.554935 240.663415 
L 130.811244 240.886834 
L 131.280925 241.308648 
L 131.630625 241.612824 
L 132.006915 241.951353 
L 132.453895 242.338814 
L 132.732905 242.589866 
L 133.283399 243.064804 
L 133.458894 243.222469 
L 134.121612 243.790794 
L 134.184884 243.847448 
L 134.910874 244.473744 
L 134.962218 244.516784 
L 135.636864 245.103869 
L 135.80453 245.242774 
L 136.362854 245.725269 
L 136.660404 245.968764 
L 137.088844 246.33601 
L 137.532798 246.694754 
L 137.814834 246.934277 
L 138.424573 247.420744 
L 138.540824 247.518465 
L 139.266814 248.098091 
L 139.329109 248.146734 
L 139.992804 248.685253 
L 140.235075 248.872724 
L 140.718794 249.262765 
L 141.156445 249.598714 
L 141.444784 249.829857 
L 142.093932 250.324704 
L 142.170774 250.385973 
L 142.896764 250.904721 
L 143.110672 251.050693 
L 143.622754 251.406718 
L 144.164514 251.776683 
L 144.348744 251.90545 
L 145.074734 252.215669 
L 145.800724 252.271785 
L 146.526714 252.369038 
L 146.785563 252.502673 
L 147.252704 252.744629 
z
" clip-path="url(#pbbf44a400d)" style="fill: none; stroke: #0072b2; stroke-width: 1.5"/>
    <path d="M 144.348744 249.605045 
L 144.367385 249.598714 
L 144.378086 248.872724 
L 144.348744 248.83871 
L 143.794517 248.146734 
L 143.622754 247.951338 
L 143.187242 247.420744 
L 142.896764 247.095974 
L 142.559909 246.694754 
L 142.170774 246.266638 
L 141.91536 245.968764 
L 141.444784 245.458822 
L 141.255835 245.242774 
L 140.718794 244.669053 
L 140.583125 244.516784 
L 139.992804 243.894584 
L 139.898694 243.790794 
L 139.266814 243.133186 
L 139.203779 243.064804 
L 138.540824 242.383 
L 138.499457 242.338814 
L 137.814834 241.642436 
L 137.786709 241.612824 
L 137.088844 240.910099 
L 137.06645 240.886834 
L 136.362854 240.184751 
L 136.339559 240.160844 
L 135.636864 239.465272 
L 135.606894 239.434854 
L 134.910874 238.750648 
L 134.869294 238.708864 
L 134.184884 238.039955 
L 134.127582 237.982874 
L 133.458894 237.332354 
L 133.382559 237.256884 
L 132.732905 236.627079 
L 132.635 236.530894 
L 132.006915 235.923432 
L 131.885644 235.804905 
L 131.280925 235.220781 
L 131.135195 235.078915 
L 130.554935 234.518545 
L 130.384311 234.352925 
L 129.828945 233.816196 
L 129.633606 233.626935 
L 129.102955 233.113245 
L 128.883645 232.900945 
L 128.376965 232.409246 
L 128.134945 232.174955 
L 127.650975 231.703783 
L 127.387969 231.448965 
L 126.924985 230.996477 
L 126.643134 230.722975 
L 126.198995 230.286979 
L 125.900799 229.996985 
L 125.473005 229.574976 
L 125.161272 229.270995 
L 124.747015 228.860194 
L 124.4248 228.545005 
L 124.021025 228.142406 
L 123.691564 227.819015 
L 123.295035 227.421445 
L 122.961666 227.093025 
L 122.569045 226.697224 
L 122.235119 226.367035 
L 121.843055 225.969757 
L 121.511818 225.641045 
L 121.117065 225.23919 
L 120.791521 224.915055 
L 120.391075 224.505842 
L 120.073818 224.189065 
L 119.665085 223.770236 
L 119.358101 223.463075 
L 118.939095 223.033134 
L 118.643542 222.737085 
L 118.213106 222.29555 
L 117.929084 222.011095 
L 117.487116 221.558742 
L 117.213443 221.285106 
L 116.761126 220.824167 
L 116.495145 220.559116 
L 116.035136 220.093399 
L 115.772585 219.833126 
L 115.309146 219.368015 
L 115.044108 219.107136 
L 114.583156 218.649464 
L 114.308116 218.381146 
L 113.857166 217.938951 
L 113.563174 217.655156 
L 113.131176 217.23734 
L 112.808111 216.929166 
L 112.405186 216.545116 
L 112.042091 216.203176 
L 111.679196 215.862392 
L 111.264658 215.477186 
L 110.953206 215.188962 
L 110.475743 214.751196 
L 110.227216 214.524381 
L 109.675632 214.025206 
L 109.501226 213.868054 
L 108.864907 213.299216 
L 108.775236 213.21932 
L 108.049246 212.57807 
L 108.043569 212.573226 
L 107.323256 211.954714 
L 107.195698 211.847236 
L 106.597266 211.338982 
L 106.335868 211.121246 
L 105.871276 210.73029 
L 105.464977 210.395256 
L 105.145286 210.128235 
L 104.583875 209.669266 
L 104.419296 209.532586 
L 103.693307 208.943276 
L 103.693307 208.943276 
L 102.967317 208.362046 
L 102.770317 208.217286 
L 102.241327 207.800879 
L 101.810315 207.491296 
L 101.515337 207.263156 
L 100.806197 206.765307 
L 100.789347 206.752513 
L 100.063357 206.300379 
L 99.536404 206.039317 
L 99.337367 205.92516 
L 98.611377 205.779215 
L 98.247891 206.039317 
L 98.316334 206.765307 
L 98.611377 207.353091 
L 98.672712 207.491296 
L 99.171306 208.217286 
L 99.337367 208.421928 
L 99.725506 208.943276 
L 100.063357 209.348326 
L 100.31055 209.669266 
L 100.789347 210.230547 
L 100.920005 210.395256 
L 101.515337 211.080803 
L 101.54824 211.121246 
L 102.189565 211.847236 
L 102.241327 211.903266 
L 102.838511 212.573226 
L 102.967317 212.712643 
L 103.492544 213.299216 
L 103.693307 213.516926 
L 104.14951 214.025206 
L 104.419296 214.318802 
L 104.807596 214.751196 
L 105.145286 215.120468 
L 105.465334 215.477186 
L 105.871276 215.92364 
L 106.121594 216.203176 
L 106.597266 216.72955 
L 106.775582 216.929166 
L 107.323256 217.538929 
L 107.426828 217.655156 
L 108.049246 218.351984 
L 108.075183 218.381146 
L 108.713135 219.107136 
L 108.775236 219.176963 
L 109.348137 219.833126 
L 109.501226 220.005066 
L 109.985962 220.559116 
L 110.227216 220.829052 
L 110.628223 221.285106 
L 110.953206 221.646368 
L 111.276498 222.011095 
L 111.679196 222.454682 
L 111.932273 222.737085 
L 112.405186 223.252037 
L 112.596901 223.463075 
L 113.131176 224.036955 
L 113.271575 224.189065 
L 113.857166 224.808468 
L 113.95731 224.915055 
L 114.583156 225.566106 
L 114.654924 225.641045 
L 115.309146 226.309837 
L 115.365027 226.367035 
L 116.035136 227.039995 
L 116.088003 227.093025 
L 116.761126 227.757197 
L 116.823998 227.819015 
L 117.487116 228.462263 
L 117.572908 228.545005 
L 118.213106 229.156145 
L 118.33437 229.270995 
L 118.939095 229.839874 
L 119.107766 229.996985 
L 119.665085 230.514504 
L 119.892245 230.722975 
L 120.391075 231.181082 
L 120.686749 231.448965 
L 121.117065 231.840611 
L 121.490072 232.174955 
L 121.843055 232.49403 
L 122.300917 232.900945 
L 122.569045 233.142189 
L 123.117975 233.626935 
L 123.295035 233.785836 
L 123.940002 234.352925 
L 124.021025 234.425596 
L 124.747015 235.060158 
L 124.768811 235.078915 
L 125.473005 235.686538 
L 125.610288 235.804905 
L 126.198995 236.314985 
L 126.448752 236.530894 
L 126.924985 236.945714 
L 127.283912 237.256884 
L 127.650975 237.578515 
L 128.116158 237.982874 
L 128.376965 238.2128 
L 128.946445 238.708864 
L 129.102955 238.847651 
L 129.776192 239.434854 
L 129.828945 239.481879 
L 130.554935 240.118193 
L 130.603332 240.160844 
L 131.280925 240.759007 
L 131.426713 240.886834 
L 132.006915 241.399543 
L 132.251774 241.612824 
L 132.732905 242.037823 
L 133.081217 242.338814 
L 133.458894 242.671845 
L 133.917813 243.064804 
L 134.184884 243.299575 
L 134.76443 243.790794 
L 134.910874 243.91896 
L 135.62404 244.516784 
L 135.636864 244.527944 
L 136.362854 245.137111 
L 136.492311 245.242774 
L 137.088844 245.740359 
L 137.372066 245.968764 
L 137.814834 246.335456 
L 138.26551 246.694754 
L 138.540824 246.921164 
L 139.174266 247.420744 
L 139.266814 247.496333 
L 139.992804 248.024191 
L 140.17275 248.146734 
L 140.718794 248.518445 
L 141.239142 248.872724 
L 141.444784 249.013351 
L 142.170774 249.198591 
L 142.867227 248.872724 
L 142.896764 248.866756 
L 142.908428 248.872724 
L 143.622754 249.233086 
L 144.336288 249.598714 
L 144.348744 249.605045 
z
" clip-path="url(#pbbf44a400d)" style="fill: none; stroke: #0072b2; stroke-width: 1.5"/>
    <path d="M 137.814834 245.470033 
L 138.540824 245.968764 
L 138.647313 245.242774 
L 139.266814 244.93876 
L 139.586565 244.516784 
L 139.266814 244.086814 
L 139.070676 243.790794 
L 138.540824 243.128828 
L 138.494887 243.064804 
L 137.841832 242.338814 
L 137.814834 242.311352 
L 137.151375 241.612824 
L 137.088844 241.549858 
L 136.450638 240.886834 
L 136.362854 240.799239 
L 135.740779 240.160844 
L 135.636864 240.057982 
L 135.022885 239.434854 
L 134.910874 239.324745 
L 134.297979 238.708864 
L 134.184884 238.598331 
L 133.567038 237.982874 
L 133.458894 237.877669 
L 132.83099 237.256884 
L 132.732905 237.161796 
L 132.090717 236.530894 
L 132.006915 236.449843 
L 131.347053 235.804905 
L 131.280925 235.741028 
L 130.60078 235.078915 
L 130.554935 235.034641 
L 129.852626 234.352925 
L 129.828945 234.330038 
L 129.103262 233.626935 
L 129.102955 233.626637 
L 128.376965 232.927766 
L 128.349979 232.900945 
L 127.650975 232.227229 
L 127.598166 232.174955 
L 126.924985 231.524804 
L 126.848117 231.448965 
L 126.198995 230.820404 
L 126.099984 230.722975 
L 125.473005 230.113988 
L 125.35385 229.996985 
L 124.747015 229.405555 
L 124.609744 229.270995 
L 124.021025 228.695136 
L 123.867655 228.545005 
L 123.295035 227.982786 
L 123.127539 227.819015 
L 122.569045 227.268585 
L 122.389319 227.093025 
L 121.843055 226.552648 
L 121.652879 226.367035 
L 121.117065 225.835125 
L 120.918062 225.641045 
L 120.391075 225.116228 
L 120.184642 224.915055 
L 119.665085 224.396246 
L 119.452307 224.189065 
L 118.939095 223.675574 
L 118.720626 223.463075 
L 118.213106 222.954743 
L 117.989016 222.737085 
L 117.487116 222.23445 
L 117.256713 222.011095 
L 116.761126 221.515572 
L 116.522744 221.285106 
L 116.035136 220.799168 
L 115.785921 220.559116 
L 115.309146 220.086451 
L 115.044858 219.833126 
L 114.583156 219.378727 
L 114.298016 219.107136 
L 113.857166 218.677307 
L 113.543774 218.381146 
L 113.131176 217.983405 
L 112.780529 217.655156 
L 112.405186 217.298034 
L 112.006797 216.929166 
L 111.679196 216.621942 
L 111.221314 216.203176 
L 110.953206 215.955577 
L 110.423099 215.477186 
L 110.227216 215.299112 
L 109.611493 214.751196 
L 109.501226 214.652506 
L 108.786155 214.025206 
L 108.775236 214.015579 
L 108.049246 213.371115 
L 107.964971 213.299216 
L 107.323256 212.73586 
L 107.128899 212.573226 
L 106.597266 212.113186 
L 106.272932 211.847236 
L 105.871276 211.504782 
L 105.393614 211.121246 
L 105.145286 210.912709 
L 104.486776 210.395256 
L 104.419296 210.339462 
L 103.693307 209.781266 
L 103.530151 209.669266 
L 102.967317 209.249632 
L 102.499504 208.943276 
L 102.241327 208.757464 
L 101.515337 208.352936 
L 101.108751 208.217286 
L 100.789347 208.098988 
L 100.576675 208.217286 
L 100.650748 208.943276 
L 100.789347 209.150535 
L 101.102109 209.669266 
L 101.515337 210.250435 
L 101.609063 210.395256 
L 102.174994 211.121246 
L 102.241327 211.196592 
L 102.782105 211.847236 
L 102.967317 212.055517 
L 103.405354 212.573226 
L 103.693307 212.89485 
L 104.040513 213.299216 
L 104.419296 213.720584 
L 104.684007 214.025206 
L 105.145286 214.537453 
L 105.332823 214.751196 
L 105.871276 215.349216 
L 105.984426 215.477186 
L 106.597266 216.158866 
L 106.636689 216.203176 
L 107.286544 216.929166 
L 107.323256 216.97004 
L 107.933772 217.655156 
L 108.049246 217.784435 
L 108.57997 218.381146 
L 108.775236 218.600731 
L 109.225263 219.107136 
L 109.501226 219.418358 
L 109.870086 219.833126 
L 110.227216 220.23621 
L 110.51517 220.559116 
L 110.953206 221.052693 
L 111.161528 221.285106 
L 111.679196 221.865816 
L 111.810433 222.011095 
L 112.405186 222.673308 
L 112.463413 222.737085 
L 113.122463 223.463075 
L 113.131176 223.472434 
L 113.792634 224.189065 
L 113.857166 224.257323 
L 114.475142 224.915055 
L 114.583156 225.02742 
L 115.170819 225.641045 
L 115.309146 225.782453 
L 115.880267 226.367035 
L 116.035136 226.522563 
L 116.603847 227.093025 
L 116.761126 227.248212 
L 117.341667 227.819015 
L 117.487116 227.960105 
L 118.093577 228.545005 
L 118.213106 228.659108 
L 118.859167 229.270995 
L 118.939095 229.346185 
L 119.637779 229.996985 
L 119.665085 230.022341 
L 120.391075 230.681298 
L 120.43802 230.722975 
L 121.117065 231.324813 
L 121.258625 231.448965 
L 121.843055 231.960583 
L 122.089715 232.174955 
L 122.569045 232.590825 
L 122.928054 232.900945 
L 123.295035 233.217557 
L 123.770554 233.626935 
L 124.021025 233.842486 
L 124.614583 234.352925 
L 124.747015 234.466917 
L 125.458184 235.078915 
L 125.473005 235.091703 
L 126.198995 235.707675 
L 126.309935 235.804905 
L 126.924985 236.329923 
L 127.153127 236.530894 
L 127.650975 236.959367 
L 127.987496 237.256884 
L 128.376965 237.594599 
L 128.81531 237.982874 
L 129.102955 238.233908 
L 129.639111 238.708864 
L 129.828945 238.875398 
L 130.461574 239.434854 
L 130.554935 239.517071 
L 131.280925 240.156578 
L 131.285743 240.160844 
L 132.006915 240.788398 
L 132.119159 240.886834 
L 132.732905 241.418795 
L 132.956538 241.612824 
L 133.458894 242.046059 
L 133.800248 242.338814 
L 134.184884 242.668596 
L 134.652513 243.064804 
L 134.910874 243.2849 
L 135.515448 243.790794 
L 135.636864 243.893523 
L 136.362854 244.475034 
L 136.422665 244.516784 
L 137.088844 244.971988 
L 137.480351 245.242774 
L 137.814834 245.470033 
z
M 139.992804 245.277327 
L 140.024936 245.242774 
L 139.992804 245.195274 
L 139.913026 245.242774 
L 139.992804 245.277327 
z
" clip-path="url(#pbbf44a400d)" style="fill: none; stroke: #0072b2; stroke-width: 1.5"/>
    <path d="M 134.910874 242.457721 
L 135.21101 242.338814 
L 134.978634 241.612824 
L 134.910874 241.34958 
L 134.796998 240.886834 
L 134.868572 240.160844 
L 134.253399 239.434854 
L 134.184884 239.365763 
L 133.581234 238.708864 
L 133.458894 238.587292 
L 132.89214 237.982874 
L 132.732905 237.826403 
L 132.189851 237.256884 
L 132.006915 237.078611 
L 131.477357 236.530894 
L 131.280925 236.340592 
L 130.757038 235.804905 
L 130.554935 235.609862 
L 130.030782 235.078915 
L 129.828945 234.884552 
L 129.300074 234.352925 
L 129.102955 234.163252 
L 128.566073 233.626935 
L 128.376965 233.444904 
L 127.829672 232.900945 
L 127.650975 232.728713 
L 127.091544 232.174955 
L 126.924985 232.014093 
L 126.352191 231.448965 
L 126.198995 231.300621 
L 125.611967 230.722975 
L 125.473005 230.588 
L 124.871115 229.996985 
L 124.747015 229.876035 
L 124.129785 229.270995 
L 124.021025 229.164611 
L 123.388053 228.545005 
L 123.295035 228.453676 
L 122.645938 227.819015 
L 122.569045 227.743233 
L 121.903407 227.093025 
L 121.843055 227.033324 
L 121.160385 226.367035 
L 121.117065 226.324031 
L 120.416754 225.641045 
L 120.391075 225.615473 
L 119.672343 224.915055 
L 119.665085 224.907808 
L 118.939095 224.200885 
L 118.927094 224.189065 
L 118.213106 223.493802 
L 118.181778 223.463075 
L 117.487116 222.786851 
L 117.436166 222.737085 
L 116.761126 222.080488 
L 116.68977 222.011095 
L 116.035136 221.37526 
L 115.94199 221.285106 
L 115.309146 220.671806 
L 115.192092 220.559116 
L 114.583156 219.970865 
L 114.4392 219.833126 
L 113.857166 219.273269 
L 113.682285 219.107136 
L 113.131176 218.579931 
L 112.920162 218.381146 
L 112.405186 217.891829 
L 112.151492 217.655156 
L 111.679196 217.209995 
L 111.374773 216.929166 
L 110.953206 216.535507 
L 110.588332 216.203176 
L 110.227216 215.869489 
L 109.790306 215.477186 
L 109.501226 215.213137 
L 108.978602 214.751196 
L 108.775236 214.567746 
L 108.150845 214.025206 
L 108.049246 213.934765 
L 107.323256 213.314365 
L 107.304729 213.299216 
L 106.597266 212.700526 
L 106.437011 212.573226 
L 105.871276 212.104288 
L 105.537306 211.847236 
L 105.145286 211.529563 
L 104.596166 211.121246 
L 104.419296 210.981439 
L 103.693307 210.499771 
L 103.478725 210.395256 
L 102.967317 210.132029 
L 102.498891 210.395256 
L 102.831779 211.121246 
L 102.967317 211.295767 
L 103.365421 211.847236 
L 103.693307 212.256517 
L 103.931767 212.573226 
L 104.419296 213.167062 
L 104.522412 213.299216 
L 105.132984 214.025206 
L 105.145286 214.038868 
L 105.770278 214.751196 
L 105.871276 214.863368 
L 106.414007 215.477186 
L 106.597266 215.681031 
L 107.061823 216.203176 
L 107.323256 216.494699 
L 107.711807 216.929166 
L 108.049246 217.306557 
L 108.36243 217.655156 
L 108.775236 218.118198 
L 109.012519 218.381146 
L 109.501226 218.930642 
L 109.661254 219.107136 
L 110.227216 219.744337 
L 110.308172 219.833126 
L 110.953206 220.559116 
L 110.953206 220.559116 
L 111.603941 221.285106 
L 111.679196 221.369525 
L 112.258756 222.011095 
L 112.405186 222.174134 
L 112.919138 222.737085 
L 113.131176 222.970685 
L 113.586776 223.463075 
L 113.857166 223.756913 
L 114.263515 224.189065 
L 114.583156 224.530714 
L 114.951291 224.915055 
L 115.309146 225.290297 
L 115.652042 225.641045 
L 116.035136 226.034318 
L 116.367582 226.367035 
L 116.761126 226.761975 
L 117.099443 227.093025 
L 117.487116 227.473066 
L 117.848697 227.819015 
L 118.213106 228.167999 
L 118.615773 228.545005 
L 118.939095 228.847753 
L 119.400323 229.270995 
L 119.665085 229.513796 
L 120.201145 229.996985 
L 120.391075 230.167969 
L 121.016236 230.722975 
L 121.117065 230.81234 
L 121.842953 231.448965 
L 121.843055 231.449055 
L 122.569045 232.052887 
L 122.712459 232.174955 
L 123.295035 232.657998 
L 123.579426 232.900945 
L 124.021025 233.26756 
L 124.439311 233.626935 
L 124.747015 233.883558 
L 125.289653 234.352925 
L 125.473005 234.506881 
L 126.12981 235.078915 
L 126.198995 235.137476 
L 126.924985 235.767507 
L 126.96655 235.804905 
L 127.650975 236.393368 
L 127.80327 236.530894 
L 128.376965 237.027746 
L 128.630505 237.256884 
L 129.102955 237.668095 
L 129.451895 237.982874 
L 129.828945 238.311963 
L 130.270783 238.708864 
L 130.554935 238.957055 
L 131.090205 239.434854 
L 131.280925 239.601257 
L 131.912925 240.160844 
L 132.006915 240.242633 
L 132.732905 240.871392 
L 132.753344 240.886834 
L 133.458894 241.404084 
L 133.740506 241.612824 
L 134.184884 241.932618 
L 134.74283 242.338814 
L 134.910874 242.457721 
z
" clip-path="url(#pbbf44a400d)" style="fill: none; stroke: #0072b2; stroke-width: 1.5"/>
    <path d="M 130.554935 238.119513 
L 130.934535 237.982874 
L 130.634208 237.256884 
L 130.554935 237.127471 
L 130.20694 236.530894 
L 129.828945 235.960783 
L 129.731172 235.804905 
L 129.160482 235.078915 
L 129.102955 235.020755 
L 128.514519 234.352925 
L 128.376965 234.21565 
L 127.844559 233.626935 
L 127.650975 233.435471 
L 127.157617 232.900945 
L 126.924985 232.67228 
L 126.458415 232.174955 
L 126.198995 231.921032 
L 125.75019 231.448965 
L 125.473005 231.178412 
L 125.035197 230.722975 
L 124.747015 230.442188 
L 124.315023 229.996985 
L 124.021025 229.710835 
L 123.590789 229.270995 
L 123.295035 228.98329 
L 122.863291 228.545005 
L 122.569045 228.258816 
L 122.133094 227.819015 
L 121.843055 227.536895 
L 121.400593 227.093025 
L 121.117065 226.817171 
L 120.666057 226.367035 
L 120.391075 226.09941 
L 119.929654 225.641045 
L 119.665085 225.383473 
L 119.191461 224.915055 
L 118.939095 224.669311 
L 118.451467 224.189065 
L 118.213106 223.956955 
L 117.709568 223.463075 
L 117.487116 223.246528 
L 116.965547 222.737085 
L 116.761126 222.538249 
L 116.219065 222.011095 
L 116.035136 221.832448 
L 115.469635 221.285106 
L 115.309146 221.129573 
L 114.716603 220.559116 
L 114.583156 220.430202 
L 113.959135 219.833126 
L 113.857166 219.735042 
L 113.196199 219.107136 
L 113.131176 219.044933 
L 112.426556 218.381146 
L 112.405186 218.360841 
L 111.679196 217.682678 
L 111.649594 217.655156 
L 110.953206 217.010323 
L 110.864448 216.929166 
L 110.227216 216.345647 
L 110.068507 216.203176 
L 109.501226 215.690239 
L 109.259035 215.477186 
L 108.775236 215.045895 
L 108.432704 214.751196 
L 108.049246 214.414697 
L 107.585392 214.025206 
L 107.323256 213.799125 
L 106.711885 213.299216 
L 106.597266 213.20222 
L 105.871276 212.660492 
L 105.728208 212.573226 
L 105.145286 212.20977 
L 104.554699 212.573226 
L 105.035748 213.299216 
L 105.145286 213.430107 
L 105.623947 214.025206 
L 105.871276 214.316384 
L 106.230246 214.751196 
L 106.597266 215.178354 
L 106.849608 215.477186 
L 107.323256 216.023586 
L 107.477943 216.203176 
L 108.049246 216.857679 
L 108.111922 216.929166 
L 108.753606 217.655156 
L 108.775236 217.679418 
L 109.408471 218.381146 
L 109.501226 218.485438 
L 110.064923 219.107136 
L 110.227216 219.289857 
L 110.722562 219.833126 
L 110.953206 220.092717 
L 111.381404 220.559116 
L 111.679196 220.893434 
L 112.041912 221.285106 
L 112.405186 221.69078 
L 112.705048 222.011095 
L 113.131176 222.482893 
L 113.372327 222.737085 
L 113.857166 223.267324 
L 114.045872 223.463075 
L 114.583156 224.04117 
L 114.728424 224.189065 
L 115.309146 224.801295 
L 115.423284 224.915055 
L 116.035136 225.544657 
L 116.134119 225.641045 
L 116.761126 226.268714 
L 116.864594 226.367035 
L 117.487116 226.971862 
L 117.617795 227.093025 
L 118.213106 227.6538 
L 118.395521 227.819015 
L 118.939095 228.315733 
L 119.197597 228.545005 
L 119.665085 228.960335 
L 120.021471 229.270995 
L 120.391075 229.591448 
L 120.862326 229.996985 
L 121.117065 230.213592 
L 121.71379 230.722975 
L 121.843055 230.831375 
L 122.569045 231.448965 
L 122.569045 231.448965 
L 123.295035 232.030706 
L 123.464719 232.174955 
L 124.021025 232.625438 
L 124.340309 232.900945 
L 124.747015 233.234521 
L 125.195496 233.626935 
L 125.473005 233.857622 
L 126.03235 234.352925 
L 126.198995 234.493244 
L 126.854205 235.078915 
L 126.924985 235.139198 
L 127.650975 235.779936 
L 127.681237 235.804905 
L 128.376965 236.363414 
L 128.580346 236.530894 
L 129.102955 236.949701 
L 129.478451 237.256884 
L 129.828945 237.53584 
L 130.381296 237.982874 
L 130.554935 238.119513 
z
M 104.419296 212.125621 
L 104.510099 211.847236 
L 104.419296 211.793746 
L 104.329574 211.847236 
L 104.419296 212.125621 
z
" clip-path="url(#pbbf44a400d)" style="fill: none; stroke: #0072b2; stroke-width: 1.5"/>
    <path d="M 124.021025 231.523563 
L 124.346706 231.448965 
L 124.064011 230.722975 
L 124.021025 230.67731 
L 123.437401 229.996985 
L 123.295035 229.848482 
L 122.789674 229.270995 
L 122.569045 229.044266 
L 122.124272 228.545005 
L 121.843055 228.25951 
L 121.444237 227.819015 
L 121.117065 227.490152 
L 120.752154 227.093025 
L 120.391075 226.73302 
L 120.050157 226.367035 
L 119.665085 225.985671 
L 119.339958 225.641045 
L 118.939095 225.246254 
L 118.622881 224.915055 
L 118.213106 224.513404 
L 117.89991 224.189065 
L 117.487116 223.786155 
L 117.171711 223.463075 
L 116.761126 223.063885 
L 116.438666 222.737085 
L 116.035136 222.346268 
L 115.700881 222.011095 
L 115.309146 221.633239 
L 114.958196 221.285106 
L 114.583156 220.924977 
L 114.21018 220.559116 
L 113.857166 220.221882 
L 113.456127 219.833126 
L 113.131176 219.52457 
L 112.695039 219.107136 
L 112.405186 218.833857 
L 111.925601 218.381146 
L 111.679196 218.15076 
L 111.146147 217.655156 
L 110.953206 217.476499 
L 110.354606 216.929166 
L 110.227216 216.812514 
L 109.548427 216.203176 
L 109.501226 216.160497 
L 108.775236 215.55806 
L 108.668412 215.477186 
L 108.049246 215.011497 
L 107.688479 214.751196 
L 107.323256 214.487817 
L 106.925353 214.751196 
L 107.323256 215.424928 
L 107.353781 215.477186 
L 107.960229 216.203176 
L 108.049246 216.305157 
L 108.596349 216.929166 
L 108.775236 217.132946 
L 109.240606 217.655156 
L 109.501226 217.950545 
L 109.890929 218.381146 
L 110.227216 218.760359 
L 110.545856 219.107136 
L 110.953206 219.563822 
L 111.204523 219.833126 
L 111.679196 220.361458 
L 111.866699 220.559116 
L 112.405186 221.152883 
L 112.532868 221.285106 
L 113.131176 221.93679 
L 113.204356 222.011095 
L 113.857166 222.710942 
L 113.883484 222.737085 
L 114.576652 223.463075 
L 114.583156 223.470073 
L 115.289377 224.189065 
L 115.309146 224.209907 
L 116.016638 224.915055 
L 116.035136 224.93409 
L 116.761126 225.641045 
L 116.761126 225.641045 
L 117.487116 226.314745 
L 117.547338 226.367035 
L 118.213106 226.962129 
L 118.367526 227.093025 
L 118.939095 227.585925 
L 119.219289 227.819015 
L 119.665085 228.191552 
L 120.095085 228.545005 
L 120.391075 228.78634 
L 120.983347 229.270995 
L 121.117065 229.378263 
L 121.843055 229.954683 
L 121.902161 229.996985 
L 122.569045 230.455203 
L 122.933381 230.722975 
L 123.295035 230.978424 
L 123.918384 231.448965 
L 124.021025 231.523563 
z
M 106.597266 214.125536 
L 106.648092 214.025206 
L 106.597266 213.990168 
L 106.543333 214.025206 
L 106.597266 214.125536 
z
" clip-path="url(#pbbf44a400d)" style="fill: none; stroke: #0072b2; stroke-width: 1.5"/>
    <path clip-path="url(#pbbf44a400d)" style="fill: none; stroke: #0072b2; stroke-width: 1.5"/>
   </g>
   <g id="patch_5">
    <path d="M 53.6 301.144 
L 53.6 156.672 
" style="fill: none; stroke: #000000; stroke-width: 0.8; stroke-linejoin: miter; stroke-linecap: square"/>
   </g>
   <g id="patch_6">
    <path d="M 53.6 301.144 
L 198.072 301.144 
" style="fill: none; stroke: #000000; stroke-width: 0.8; stroke-linejoin: miter; stroke-linecap: square"/>
   </g>
  </g>
  <g id="axes_3">
   <g id="patch_7">
    <path d="M 203.072 301.144 
L 347.544 301.144 
L 347.544 156.672 
L 203.072 156.672 
z
" style="fill: #ffffff"/>
   </g>
   <g id="matplotlib.axis_4">
    <g id="text_3">
     <!-- $\Theta_J$ -->
     <g transform="translate(254.508 335.144) scale(0.4 -0.4)">
      <defs>
       <path id="DejaVuSans-Oblique-4a" d="M 1069 4666 
L 1703 4666 
L 856 325 
Q 691 -522 298 -901 
Q -94 -1281 -800 -1281 
L -1050 -1281 
L -947 -750 
L -750 -750 
Q -328 -750 -109 -509 
Q 109 -269 225 325 
L 1069 4666 
z
" transform="scale(0.015625)"/>
      </defs>
      <use xlink:href="#DejaVuSans-398" transform="translate(0 0.78125)"/>
      <use xlink:href="#DejaVuSans-Oblique-4a" transform="translate(79.667969 -15.625) scale(0.7)"/>
     </g>
    </g>
   </g>
   <g id="patch_8">
    <path d="M 203.072 301.144 
L 347.544 301.144 
" style="fill: none; stroke: #000000; stroke-width: 0.8; stroke-linejoin: miter; stroke-linecap: square"/>
   </g>
  </g>
  <g id="axes_4">
   <g id="PolyCollection_1">
    <defs>
     <path id="mc3f4652b17" d="M 57.154798 -203.085656 
L 57.154798 -203.072 
L 57.845061 -203.072 
L 58.535325 -203.072 
L 59.225588 -203.072 
L 59.915851 -203.072 
L 60.606115 -203.072 
L 61.296378 -203.072 
L 61.986642 -203.072 
L 62.676905 -203.072 
L 63.367168 -203.072 
L 64.057432 -203.072 
L 64.747695 -203.072 
L 65.437958 -203.072 
L 66.128222 -203.072 
L 66.818485 -203.072 
L 67.508748 -203.072 
L 68.199012 -203.072 
L 68.889275 -203.072 
L 69.579538 -203.072 
L 70.269802 -203.072 
L 70.960065 -203.072 
L 71.650328 -203.072 
L 72.340592 -203.072 
L 73.030855 -203.072 
L 73.721118 -203.072 
L 74.411382 -203.072 
L 75.101645 -203.072 
L 75.791908 -203.072 
L 76.482172 -203.072 
L 77.172435 -203.072 
L 77.862698 -203.072 
L 78.552962 -203.072 
L 79.243225 -203.072 
L 79.933488 -203.072 
L 80.623752 -203.072 
L 81.314015 -203.072 
L 82.004278 -203.072 
L 82.694542 -203.072 
L 83.384805 -203.072 
L 84.075068 -203.072 
L 84.765332 -203.072 
L 85.455595 -203.072 
L 86.145858 -203.072 
L 86.836122 -203.072 
L 87.526385 -203.072 
L 88.216648 -203.072 
L 88.906912 -203.072 
L 89.597175 -203.072 
L 90.287438 -203.072 
L 90.977702 -203.072 
L 91.667965 -203.072 
L 92.358228 -203.072 
L 93.048492 -203.072 
L 93.738755 -203.072 
L 94.429018 -203.072 
L 95.119282 -203.072 
L 95.809545 -203.072 
L 96.499808 -203.072 
L 97.190072 -203.072 
L 97.880335 -203.072 
L 98.570598 -203.072 
L 99.260862 -203.072 
L 99.951125 -203.072 
L 100.641388 -203.072 
L 101.331652 -203.072 
L 102.021915 -203.072 
L 102.712178 -203.072 
L 103.402442 -203.072 
L 104.092705 -203.072 
L 104.782968 -203.072 
L 105.473232 -203.072 
L 106.163495 -203.072 
L 106.853758 -203.072 
L 107.544022 -203.072 
L 108.234285 -203.072 
L 108.924548 -203.072 
L 109.614812 -203.072 
L 110.305075 -203.072 
L 110.995338 -203.072 
L 111.685602 -203.072 
L 112.375865 -203.072 
L 113.066128 -203.072 
L 113.756392 -203.072 
L 114.446655 -203.072 
L 115.136918 -203.072 
L 115.827182 -203.072 
L 116.517445 -203.072 
L 117.207708 -203.072 
L 117.897972 -203.072 
L 118.588235 -203.072 
L 119.278498 -203.072 
L 119.968762 -203.072 
L 120.659025 -203.072 
L 121.349288 -203.072 
L 122.039552 -203.072 
L 122.729815 -203.072 
L 123.420078 -203.072 
L 124.110342 -203.072 
L 124.800605 -203.072 
L 125.490868 -203.072 
L 126.181132 -203.072 
L 126.871395 -203.072 
L 127.561658 -203.072 
L 128.251922 -203.072 
L 128.942185 -203.072 
L 129.632448 -203.072 
L 130.322712 -203.072 
L 131.012975 -203.072 
L 131.703238 -203.072 
L 132.393502 -203.072 
L 133.083765 -203.072 
L 133.774028 -203.072 
L 134.464292 -203.072 
L 135.154555 -203.072 
L 135.844818 -203.072 
L 136.535082 -203.072 
L 137.225345 -203.072 
L 137.915608 -203.072 
L 138.605872 -203.072 
L 139.296135 -203.072 
L 139.986398 -203.072 
L 140.676662 -203.072 
L 141.366925 -203.072 
L 142.057188 -203.072 
L 142.747452 -203.072 
L 143.437715 -203.072 
L 144.127978 -203.072 
L 144.818242 -203.072 
L 145.508505 -203.072 
L 146.198768 -203.072 
L 146.889032 -203.072 
L 147.579295 -203.072 
L 148.269558 -203.072 
L 148.959822 -203.072 
L 149.650085 -203.072 
L 150.340348 -203.072 
L 151.030612 -203.072 
L 151.720875 -203.072 
L 152.411138 -203.072 
L 153.101402 -203.072 
L 153.791665 -203.072 
L 154.481928 -203.072 
L 155.172192 -203.072 
L 155.862455 -203.072 
L 156.552718 -203.072 
L 157.242982 -203.072 
L 157.933245 -203.072 
L 158.623508 -203.072 
L 159.313772 -203.072 
L 160.004035 -203.072 
L 160.694298 -203.072 
L 161.384562 -203.072 
L 162.074825 -203.072 
L 162.765088 -203.072 
L 163.455352 -203.072 
L 164.145615 -203.072 
L 164.835878 -203.072 
L 165.526142 -203.072 
L 166.216405 -203.072 
L 166.906668 -203.072 
L 167.596932 -203.072 
L 168.287195 -203.072 
L 168.977458 -203.072 
L 169.667722 -203.072 
L 170.357985 -203.072 
L 171.048248 -203.072 
L 171.738512 -203.072 
L 172.428775 -203.072 
L 173.119038 -203.072 
L 173.809302 -203.072 
L 174.499565 -203.072 
L 175.189828 -203.072 
L 175.880092 -203.072 
L 176.570355 -203.072 
L 177.260618 -203.072 
L 177.950882 -203.072 
L 178.641145 -203.072 
L 179.331408 -203.072 
L 180.021672 -203.072 
L 180.711935 -203.072 
L 181.402198 -203.072 
L 182.092462 -203.072 
L 182.782725 -203.072 
L 183.472988 -203.072 
L 184.163252 -203.072 
L 184.853515 -203.072 
L 185.543778 -203.072 
L 186.234042 -203.072 
L 186.924305 -203.072 
L 187.614568 -203.072 
L 188.304832 -203.072 
L 188.995095 -203.072 
L 189.685358 -203.072 
L 190.375622 -203.072 
L 191.065885 -203.072 
L 191.756149 -203.072 
L 192.446412 -203.072 
L 193.136675 -203.072 
L 193.826939 -203.072 
L 194.517202 -203.072 
L 194.517202 -203.088084 
L 194.517202 -203.088084 
L 193.826939 -203.095739 
L 193.136675 -203.106479 
L 192.446412 -203.121282 
L 191.756149 -203.141322 
L 191.065885 -203.167964 
L 190.375622 -203.20274 
L 189.685358 -203.247299 
L 188.995095 -203.303329 
L 188.304832 -203.372446 
L 187.614568 -203.456059 
L 186.924305 -203.555207 
L 186.234042 -203.670386 
L 185.543778 -203.801375 
L 184.853515 -203.947089 
L 184.163252 -204.105466 
L 183.472988 -204.273429 
L 182.782725 -204.44691 
L 182.092462 -204.62099 
L 181.402198 -204.790117 
L 180.711935 -204.948426 
L 180.021672 -205.090131 
L 179.331408 -205.209965 
L 178.641145 -205.303637 
L 177.950882 -205.36827 
L 177.260618 -205.402775 
L 176.570355 -205.408142 
L 175.880092 -205.387616 
L 175.189828 -205.34675 
L 174.499565 -205.29332 
L 173.809302 -205.237134 
L 173.119038 -205.189733 
L 172.428775 -205.164003 
L 171.738512 -205.173741 
L 171.048248 -205.233173 
L 170.357985 -205.356461 
L 169.667722 -205.557198 
L 168.977458 -205.847922 
L 168.287195 -206.239641 
L 167.596932 -206.741395 
L 166.906668 -207.359872 
L 166.216405 -208.099093 
L 165.526142 -208.960192 
L 164.835878 -209.941329 
L 164.145615 -211.03774 
L 163.455352 -212.241966 
L 162.765088 -213.544251 
L 162.074825 -214.933108 
L 161.384562 -216.396033 
L 160.694298 -217.92031 
L 160.004035 -219.493864 
L 159.313772 -221.106091 
L 158.623508 -222.748575 
L 157.933245 -224.415656 
L 157.242982 -226.104762 
L 156.552718 -227.816493 
L 155.862455 -229.554433 
L 155.172192 -231.324726 
L 154.481928 -233.135441 
L 153.791665 -234.995816 
L 153.101402 -236.91545 
L 152.411138 -238.903545 
L 151.720875 -240.968262 
L 151.030612 -243.116262 
L 150.340348 -245.352462 
L 149.650085 -247.680004 
L 148.959822 -250.100406 
L 148.269558 -252.613827 
L 147.579295 -255.219376 
L 146.889032 -257.915366 
L 146.198768 -260.699451 
L 145.508505 -263.568571 
L 144.818242 -266.518704 
L 144.127978 -269.544412 
L 143.437715 -272.638237 
L 142.747452 -275.790023 
L 142.057188 -278.986247 
L 141.366925 -282.209465 
L 140.676662 -285.437973 
L 139.986398 -288.645746 
L 139.296135 -291.802742 
L 138.605872 -294.875579 
L 137.915608 -297.828603 
L 137.225345 -300.625315 
L 136.535082 -303.230107 
L 135.844818 -305.610218 
L 135.154555 -307.737803 
L 134.464292 -309.591986 
L 133.774028 -311.160743 
L 133.083765 -312.442467 
L 132.393502 -313.447054 
L 131.703238 -314.19639 
L 131.012975 -314.724128 
L 130.322712 -315.07471 
L 129.632448 -315.301633 
L 128.942185 -315.465016 
L 128.251922 -315.628599 
L 127.561658 -315.856322 
L 126.871395 -316.208704 
L 126.181132 -316.739229 
L 125.490868 -317.490973 
L 124.800605 -318.493687 
L 124.110342 -319.761519 
L 123.420078 -321.291545 
L 122.729815 -323.063228 
L 122.039552 -325.038862 
L 121.349288 -327.165032 
L 120.659025 -329.37503 
L 119.968762 -331.59212 
L 119.278498 -333.733459 
L 118.588235 -335.714447 
L 117.897972 -337.453183 
L 117.207708 -338.874737 
L 116.517445 -339.914891 
L 115.827182 -340.523091 
L 115.136918 -340.664381 
L 114.446655 -340.320205 
L 113.756392 -339.488081 
L 113.066128 -338.180252 
L 112.375865 -336.421518 
L 111.685602 -334.246532 
L 110.995338 -331.696867 
L 110.305075 -328.818146 
L 109.614812 -325.657492 
L 108.924548 -322.261446 
L 108.234285 -318.674463 
L 107.544022 -314.937947 
L 106.853758 -311.089769 
L 106.163495 -307.164128 
L 105.473232 -303.191642 
L 104.782968 -299.199541 
L 104.092705 -295.211883 
L 103.402442 -291.249761 
L 102.712178 -287.331499 
L 102.021915 -283.472866 
L 101.331652 -279.687343 
L 100.641388 -275.986453 
L 99.951125 -272.380157 
L 99.260862 -268.877275 
L 98.570598 -265.485872 
L 97.880335 -262.213533 
L 97.190072 -259.067463 
L 96.499808 -256.054381 
L 95.809545 -253.18019 
L 95.119282 -250.449489 
L 94.429018 -247.864996 
L 93.738755 -245.426991 
L 93.048492 -243.132901 
L 92.358228 -240.977128 
L 91.667965 -238.951168 
L 90.977702 -237.044046 
L 90.287438 -235.243024 
L 89.597175 -233.534505 
L 88.906912 -231.904995 
L 88.216648 -230.342028 
L 87.526385 -228.834907 
L 86.836122 -227.37521 
L 86.145858 -225.956985 
L 85.455595 -224.576675 
L 84.765332 -223.232792 
L 84.075068 -221.925445 
L 83.384805 -220.655792 
L 82.694542 -219.42553 
L 82.004278 -218.236468 
L 81.314015 -217.090246 
L 80.623752 -215.988198 
L 79.933488 -214.931344 
L 79.243225 -213.920464 
L 78.552962 -212.956222 
L 77.862698 -212.039274 
L 77.172435 -211.170337 
L 76.482172 -210.350196 
L 75.791908 -209.579649 
L 75.101645 -208.859413 
L 74.411382 -208.189992 
L 73.721118 -207.57156 
L 73.030855 -207.003867 
L 72.340592 -206.486177 
L 71.650328 -206.017265 
L 70.960065 -205.595443 
L 70.269802 -205.218621 
L 69.579538 -204.884394 
L 68.889275 -204.590122 
L 68.199012 -204.333009 
L 67.508748 -204.110177 
L 66.818485 -203.918713 
L 66.128222 -203.755714 
L 65.437958 -203.618315 
L 64.747695 -203.50372 
L 64.057432 -203.409223 
L 63.367168 -203.332233 
L 62.676905 -203.270301 
L 61.986642 -203.221145 
L 61.296378 -203.18267 
L 60.606115 -203.152989 
L 59.915851 -203.130431 
L 59.225588 -203.113549 
L 58.535325 -203.10111 
L 57.845061 -203.092091 
L 57.154798 -203.085656 
z
" style="stroke: #0072b2"/>
    </defs>
    <g clip-path="url(#p6d02d2bb33)">
     <use xlink:href="#mc3f4652b17" x="0" y="354.744" style="fill: #0072b2; fill-opacity: 0.25; stroke: #0072b2"/>
    </g>
   </g>
  </g>
  <g id="axes_5">
   <g id="PolyCollection_2">
    <defs>
     <path id="ma28a9f26f6" d="M 209.638909 -53.61374 
L 209.638909 -53.6 
L 210.2989 -53.6 
L 210.958891 -53.6 
L 211.618882 -53.6 
L 212.278873 -53.6 
L 212.938863 -53.6 
L 213.598854 -53.6 
L 214.258845 -53.6 
L 214.918836 -53.6 
L 215.578827 -53.6 
L 216.238818 -53.6 
L 216.898809 -53.6 
L 217.558799 -53.6 
L 218.21879 -53.6 
L 218.878781 -53.6 
L 219.538772 -53.6 
L 220.198763 -53.6 
L 220.858754 -53.6 
L 221.518745 -53.6 
L 222.178735 -53.6 
L 222.838726 -53.6 
L 223.498717 -53.6 
L 224.158708 -53.6 
L 224.818699 -53.6 
L 225.47869 -53.6 
L 226.138681 -53.6 
L 226.798672 -53.6 
L 227.458662 -53.6 
L 228.118653 -53.6 
L 228.778644 -53.6 
L 229.438635 -53.6 
L 230.098626 -53.6 
L 230.758617 -53.6 
L 231.418608 -53.6 
L 232.078598 -53.6 
L 232.738589 -53.6 
L 233.39858 -53.6 
L 234.058571 -53.6 
L 234.718562 -53.6 
L 235.378553 -53.6 
L 236.038544 -53.6 
L 236.698534 -53.6 
L 237.358525 -53.6 
L 238.018516 -53.6 
L 238.678507 -53.6 
L 239.338498 -53.6 
L 239.998489 -53.6 
L 240.65848 -53.6 
L 241.318471 -53.6 
L 241.978461 -53.6 
L 242.638452 -53.6 
L 243.298443 -53.6 
L 243.958434 -53.6 
L 244.618425 -53.6 
L 245.278416 -53.6 
L 245.938407 -53.6 
L 246.598397 -53.6 
L 247.258388 -53.6 
L 247.918379 -53.6 
L 248.57837 -53.6 
L 249.238361 -53.6 
L 249.898352 -53.6 
L 250.558343 -53.6 
L 251.218333 -53.6 
L 251.878324 -53.6 
L 252.538315 -53.6 
L 253.198306 -53.6 
L 253.858297 -53.6 
L 254.518288 -53.6 
L 255.178279 -53.6 
L 255.83827 -53.6 
L 256.49826 -53.6 
L 257.158251 -53.6 
L 257.818242 -53.6 
L 258.478233 -53.6 
L 259.138224 -53.6 
L 259.798215 -53.6 
L 260.458206 -53.6 
L 261.118196 -53.6 
L 261.778187 -53.6 
L 262.438178 -53.6 
L 263.098169 -53.6 
L 263.75816 -53.6 
L 264.418151 -53.6 
L 265.078142 -53.6 
L 265.738132 -53.6 
L 266.398123 -53.6 
L 267.058114 -53.6 
L 267.718105 -53.6 
L 268.378096 -53.6 
L 269.038087 -53.6 
L 269.698078 -53.6 
L 270.358069 -53.6 
L 271.018059 -53.6 
L 271.67805 -53.6 
L 272.338041 -53.6 
L 272.998032 -53.6 
L 273.658023 -53.6 
L 274.318014 -53.6 
L 274.978005 -53.6 
L 275.637995 -53.6 
L 276.297986 -53.6 
L 276.957977 -53.6 
L 277.617968 -53.6 
L 278.277959 -53.6 
L 278.93795 -53.6 
L 279.597941 -53.6 
L 280.257931 -53.6 
L 280.917922 -53.6 
L 281.577913 -53.6 
L 282.237904 -53.6 
L 282.897895 -53.6 
L 283.557886 -53.6 
L 284.217877 -53.6 
L 284.877868 -53.6 
L 285.537858 -53.6 
L 286.197849 -53.6 
L 286.85784 -53.6 
L 287.517831 -53.6 
L 288.177822 -53.6 
L 288.837813 -53.6 
L 289.497804 -53.6 
L 290.157794 -53.6 
L 290.817785 -53.6 
L 291.477776 -53.6 
L 292.137767 -53.6 
L 292.797758 -53.6 
L 293.457749 -53.6 
L 294.11774 -53.6 
L 294.77773 -53.6 
L 295.437721 -53.6 
L 296.097712 -53.6 
L 296.757703 -53.6 
L 297.417694 -53.6 
L 298.077685 -53.6 
L 298.737676 -53.6 
L 299.397667 -53.6 
L 300.057657 -53.6 
L 300.717648 -53.6 
L 301.377639 -53.6 
L 302.03763 -53.6 
L 302.697621 -53.6 
L 303.357612 -53.6 
L 304.017603 -53.6 
L 304.677593 -53.6 
L 305.337584 -53.6 
L 305.997575 -53.6 
L 306.657566 -53.6 
L 307.317557 -53.6 
L 307.977548 -53.6 
L 308.637539 -53.6 
L 309.297529 -53.6 
L 309.95752 -53.6 
L 310.617511 -53.6 
L 311.277502 -53.6 
L 311.937493 -53.6 
L 312.597484 -53.6 
L 313.257475 -53.6 
L 313.917466 -53.6 
L 314.577456 -53.6 
L 315.237447 -53.6 
L 315.897438 -53.6 
L 316.557429 -53.6 
L 317.21742 -53.6 
L 317.877411 -53.6 
L 318.537402 -53.6 
L 319.197392 -53.6 
L 319.857383 -53.6 
L 320.517374 -53.6 
L 321.177365 -53.6 
L 321.837356 -53.6 
L 322.497347 -53.6 
L 323.157338 -53.6 
L 323.817328 -53.6 
L 324.477319 -53.6 
L 325.13731 -53.6 
L 325.797301 -53.6 
L 326.457292 -53.6 
L 327.117283 -53.6 
L 327.777274 -53.6 
L 328.437265 -53.6 
L 329.097255 -53.6 
L 329.757246 -53.6 
L 330.417237 -53.6 
L 331.077228 -53.6 
L 331.737219 -53.6 
L 332.39721 -53.6 
L 333.057201 -53.6 
L 333.717191 -53.6 
L 334.377182 -53.6 
L 335.037173 -53.6 
L 335.697164 -53.6 
L 336.357155 -53.6 
L 337.017146 -53.6 
L 337.677137 -53.6 
L 338.337127 -53.6 
L 338.997118 -53.6 
L 339.657109 -53.6 
L 340.3171 -53.6 
L 340.977091 -53.6 
L 340.977091 -53.613582 
L 340.977091 -53.613582 
L 340.3171 -53.620043 
L 339.657109 -53.629068 
L 338.997118 -53.641432 
L 338.337127 -53.658041 
L 337.677137 -53.679922 
L 337.017146 -53.708183 
L 336.357155 -53.743972 
L 335.697164 -53.788403 
L 335.037173 -53.842488 
L 334.377182 -53.907046 
L 333.717191 -53.982636 
L 333.057201 -54.069504 
L 332.39721 -54.167573 
L 331.737219 -54.276487 
L 331.077228 -54.395721 
L 330.417237 -54.524766 
L 329.757246 -54.663368 
L 329.097255 -54.81183 
L 328.437265 -54.971314 
L 327.777274 -55.144126 
L 327.117283 -55.333934 
L 326.457292 -55.545858 
L 325.797301 -55.786408 
L 325.13731 -56.063239 
L 324.477319 -56.384711 
L 323.817328 -56.759297 
L 323.157338 -57.194862 
L 322.497347 -57.697901 
L 321.837356 -58.272818 
L 321.177365 -58.92134 
L 320.517374 -59.642142 
L 319.857383 -60.430767 
L 319.197392 -61.279845 
L 318.537402 -62.179638 
L 317.877411 -63.118837 
L 317.21742 -64.085556 
L 316.557429 -65.068389 
L 315.897438 -66.057426 
L 315.237447 -67.045109 
L 314.577456 -68.026819 
L 313.917466 -69.001146 
L 313.257475 -69.969809 
L 312.597484 -70.937273 
L 311.937493 -71.910129 
L 311.277502 -72.896344 
L 310.617511 -73.904526 
L 309.95752 -74.943316 
L 309.297529 -76.021022 
L 308.637539 -77.145564 
L 307.977548 -78.324731 
L 307.317557 -79.566713 
L 306.657566 -80.880813 
L 305.997575 -82.278175 
L 305.337584 -83.772402 
L 304.677593 -85.379875 
L 304.017603 -87.11967 
L 303.357612 -89.013001 
L 302.697621 -91.082175 
L 302.03763 -93.349126 
L 301.377639 -95.833659 
L 300.717648 -98.55156 
L 300.057657 -101.512773 
L 299.397667 -104.719803 
L 298.737676 -108.166538 
L 298.077685 -111.837574 
L 297.417694 -115.708129 
L 296.757703 -119.744573 
L 296.097712 -123.905539 
L 295.437721 -128.143583 
L 294.77773 -132.407298 
L 294.11774 -136.643781 
L 293.457749 -140.801333 
L 292.797758 -144.832222 
L 292.137767 -148.695338 
L 291.477776 -152.358523 
L 290.817785 -155.800366 
L 290.157794 -159.011236 
L 289.497804 -161.9934 
L 288.837813 -164.760098 
L 288.177822 -167.333589 
L 287.517831 -169.742255 
L 286.85784 -172.017023 
L 286.197849 -174.187425 
L 285.537858 -176.27773 
L 284.877868 -178.303577 
L 284.217877 -180.269523 
L 283.557886 -182.167822 
L 282.897895 -183.978612 
L 282.237904 -185.671519 
L 281.577913 -187.20851 
L 280.917922 -188.547698 
L 280.257931 -189.647648 
L 279.597941 -190.47173 
L 278.93795 -190.992022 
L 278.277959 -191.192381 
L 277.617968 -191.070359 
L 276.957977 -190.637826 
L 276.297986 -189.92029 
L 275.637995 -188.955023 
L 274.978005 -187.788264 
L 274.318014 -186.471773 
L 273.658023 -185.059109 
L 272.998032 -183.601944 
L 272.338041 -182.146717 
L 271.67805 -180.731849 
L 271.018059 -179.385671 
L 270.358069 -178.125147 
L 269.698078 -176.955379 
L 269.038087 -175.869877 
L 268.378096 -174.851475 
L 267.718105 -173.87382 
L 267.058114 -172.90329 
L 266.398123 -171.90124 
L 265.738132 -170.826446 
L 265.078142 -169.637631 
L 264.418151 -168.295941 
L 263.75816 -166.76725 
L 263.098169 -165.024163 
L 262.438178 -163.047591 
L 261.778187 -160.827806 
L 261.118196 -158.36488 
L 260.458206 -155.668485 
L 259.798215 -152.75706 
L 259.138224 -149.656401 
L 258.478233 -146.397799 
L 257.818242 -143.015872 
L 257.158251 -139.546283 
L 256.49826 -136.023554 
L 255.83827 -132.479144 
L 255.178279 -128.939983 
L 254.518288 -125.427551 
L 253.858297 -121.957568 
L 253.198306 -118.540286 
L 252.538315 -115.181282 
L 251.878324 -111.882634 
L 251.218333 -108.644306 
L 250.558343 -105.465546 
L 249.898352 -102.346146 
L 249.238361 -99.287405 
L 248.57837 -96.292715 
L 247.918379 -93.367754 
L 247.258388 -90.520282 
L 246.598397 -87.759642 
L 245.938407 -85.096052 
L 245.278416 -82.539807 
L 244.618425 -80.100514 
L 243.958434 -77.786428 
L 243.298443 -75.603984 
L 242.638452 -73.55752 
L 241.978461 -71.649223 
L 241.318471 -69.879244 
L 240.65848 -68.245957 
L 239.998489 -66.74629 
L 239.338498 -65.376088 
L 238.678507 -64.130454 
L 238.018516 -63.004023 
L 237.358525 -61.99117 
L 236.698534 -61.086115 
L 236.038544 -60.28296 
L 235.378553 -59.575664 
L 234.718562 -58.957969 
L 234.058571 -58.423336 
L 233.39858 -57.96488 
L 232.738589 -57.575347 
L 232.078598 -57.247142 
L 231.418608 -56.972398 
L 230.758617 -56.743099 
L 230.098626 -56.551239 
L 229.438635 -56.389 
L 228.778644 -56.248946 
L 228.118653 -56.124206 
L 227.458662 -56.008649 
L 226.798672 -55.89703 
L 226.138681 -55.785103 
L 225.47869 -55.669697 
L 224.818699 -55.548745 
L 224.158708 -55.421269 
L 223.498717 -55.287307 
L 222.838726 -55.147799 
L 222.178735 -55.004421 
L 221.518745 -54.85939 
L 220.858754 -54.715245 
L 220.198763 -54.574625 
L 219.538772 -54.44006 
L 218.878781 -54.313785 
L 218.21879 -54.197612 
L 217.558799 -54.092832 
L 216.898809 -54.000187 
L 216.238818 -53.919878 
L 215.578827 -53.851627 
L 214.918836 -53.794754 
L 214.258845 -53.748282 
L 213.598854 -53.711045 
L 212.938863 -53.681781 
L 212.278873 -53.659224 
L 211.618882 -53.642169 
L 210.958891 -53.629518 
L 210.2989 -53.620313 
L 209.638909 -53.61374 
z
" style="stroke: #0072b2"/>
    </defs>
    <g clip-path="url(#pf911af3bfe)">
     <use xlink:href="#ma28a9f26f6" x="0" y="354.744" style="fill: #0072b2; fill-opacity: 0.25; stroke: #0072b2"/>
    </g>
   </g>
  </g>
 </g>
 <defs>
  <clipPath id="pbbf44a400d">
   <rect x="53.6" y="156.672" width="144.472" height="144.472"/>
  </clipPath>
  <clipPath id="p6d02d2bb33">
   <rect x="53.6" y="7.2" width="144.472" height="144.472"/>
  </clipPath>
  <clipPath id="pf911af3bfe">
   <rect x="203.072" y="156.672" width="144.472" height="144.472"/>
  </clipPath>
 </defs>
</svg>
